<?xml version="1.0" standalone="no"?>
<!DOCTYPE svg PUBLIC "-//W3C//DTD SVG 1.1//EN" "http://www.w3.org/Graphics/SVG/1.1/DTD/svg11.dtd" >
<svg>
<metadata>
Created by FontForge 20090914 at Thu Dec 11 22:48:13 2014
 By www-data
 
</metadata>
<defs>
<font id="Helvetica_Light-Normal" horiz-adv-x="512" >
  <font-face 
    font-family="Helvetica_Light-Normal"
    font-weight="400"
    font-stretch="normal"
    units-per-em="1000"
    panose-1="0 0 0 0 0 0 0 0 0 0"
    ascent="800"
    descent="-200"
    x-height="464"
    cap-height="642"
    bbox="-15 -209 849 765"
    underline-thickness="50"
    underline-position="-55"
    unicode-range="U+0020-U+2219"
  />
<missing-glyph 
 />
    <glyph glyph-name=".notdef" 
 />
    <glyph glyph-name="space" unicode=" " horiz-adv-x="302" 
 />
    <glyph glyph-name="exclam" unicode="!" horiz-adv-x="253" 
d="M102 0v79h60v-79h-60v0zM162 410l-13 -253h-34l-13 253v232h60v-232v0z" />
    <glyph glyph-name="quotedbl" unicode="&#x22;" horiz-adv-x="355" 
d="M102 626h37v-242h-37v242v0zM256 384h-37v242h37v-242v0z" />
    <glyph glyph-name="numbersign" unicode="#" horiz-adv-x="736" 
d="M374 634h49l-76 -216h117l77 216h49l-76 -216h139l-13 -40h-141l-44 -124h153l-15 -38h-152l-76 -216h-49l76 216h-116l-78 -216h-49l76 216h-146l13 38h148l44 124h-158l13 40h159l76 216v0zM407 254l44 124h-119l-42 -124h117v0z" />
    <glyph glyph-name="dollar" unicode="$" horiz-adv-x="605" 
d="M88 183l55.002 -0.000976562c2 -45.333 14.333 -80.166 37 -104.499s56.667 -39.833 102 -46.5v258c-2.66699 0.666992 -5.5 1.5 -8.5 2.5s-5.83301 1.83301 -8.5 2.5c-44 12.667 -81.833 29.167 -113.5 49.5s-47.5 58.5 -47.5 114.5l-2 3c0 54.667 17.667 94.667 53 120
s77.666 39.333 126.999 42v53h41v-53c48.667 -0.666992 88.5 -15 119.5 -43s47.167 -66.667 48.5 -116h-53c-2.66699 35.333 -13.834 62 -33.501 80s-46.834 28 -81.501 30v-238c49.333 -12.667 92.833 -30.5 130.5 -53.5s57.167 -64.167 58.5 -123.5v-6
c0 -54.667 -18.667 -96.167 -56 -124.5s-81.666 -43.166 -132.999 -44.499v-71h-41v70c-62.667 7.33301 -110.5 26.166 -143.5 56.499s-49.833 77.833 -50.5 142.5v0zM457.002 158.999c-1.33301 41.333 -15.332 69.667 -41.999 85s-57.334 27.333 -92.001 36v-248
c37.333 2.66699 69 13.5 95 32.5s39 48.833 39 89.5v5v0zM282.003 348l0.000976562 227c-32.667 -2 -61.834 -12 -87.501 -30s-38.5 -45.667 -38.5 -83l1 -2c0 -34 11.667 -60.5 35 -79.5s49 -29.5 77 -31.5c2 -0.666992 4.16699 -1 6.5 -1h6.5v0z" />
    <glyph glyph-name="percent" unicode="%" horiz-adv-x="796" 
d="M172 -16l400 640h46l-401 -640h-45v0zM428 149c0 48 15.001 84.165 45.001 108.498s63 36.833 99 37.5h1.5h1.5h2.5h3.5c35.333 -1.33301 67.833 -14.166 97.5 -38.499s44.5 -60.166 44.5 -107.499c0 -40.667 -14.5 -75.667 -43.5 -105s-63.833 -44 -104.5 -44
s-75.334 14.667 -104.001 44s-43 64.333 -43 105v0zM575.001 245.998c-32.667 0 -56.667 -9.66895 -72 -29.002s-23 -42 -23 -68c0 -31.333 9.5 -55.166 28.5 -71.499s40.833 -24.5 65.5 -24.5h1.5h1.5c23.333 0.666992 44.833 8.83398 64.5 24.501s29.5 39.5 29.5 71.5
c0 25.333 -8.5 47.833 -25.5 67.5s-40.5 29.5 -70.5 29.5v0zM70.001 461.996c0 48.667 15.168 85.166 45.501 109.499s63.833 36.5 100.5 36.5h6.5c2.33301 0 4.5 -0.333008 6.5 -1c34 -2.66699 65.167 -16.167 93.5 -40.5s42.5 -59.166 42.5 -104.499
c0 -41.333 -14.5 -76.5 -43.5 -105.5s-63.833 -43.5 -104.5 -43.5s-75.334 14.5 -104.001 43.5s-43 64.167 -43 105.5v0zM216.002 365.995h1.49902h1.5c23.333 0.666992 44.833 8.83398 64.5 24.501s29.5 39.5 29.5 71.5c0 25.333 -8.5 47.833 -25.5 67.5
s-40.5 29.5 -70.5 29.5c-32.667 0 -57 -9.83301 -73 -29.5s-24 -42.167 -24 -67.5c0 -32.667 9.83301 -56.834 29.5 -72.501s41.834 -23.5 66.501 -23.5v0z" />
    <glyph glyph-name="ampersand" unicode="&#x26;" horiz-adv-x="705" 
d="M556 0l-64.999 78.001c-18.667 -24 -43.167 -43.833 -73.5 -59.5s-61.833 -25.834 -94.5 -30.501l-19.5 -2c-6.33301 -0.666992 -12.833 -1 -19.5 -1c-22.667 0 -44.834 3.16699 -66.501 9.5s-41.167 16.166 -58.5 29.499c-22 19.333 -38.833 42 -50.5 68
s-17.5 52.667 -17.5 80c0 4.66699 0.333008 9.66699 1 15l2 16l2 10l2 10c0 2 0.333008 3.83301 1 5.5s1 3.16699 1 4.5c11.333 34 30.333 61.833 57 83.5s55.334 39.834 86.001 54.501c-1.33301 1.33301 -2.5 2.66602 -3.5 3.99902s-1.83301 2.66602 -2.5 3.99902
c-14 16.667 -26.833 34.334 -38.5 53.001s-18.834 39 -21.501 61c0 1.33301 -0.166992 2.83301 -0.5 4.5s-0.833008 3.5 -1.5 5.5c0 0.666992 -0.166992 1.33398 -0.5 2.00098s-0.5 1.33398 -0.5 2.00098c0 1.33301 -0.166992 2.5 -0.5 3.5s-0.5 2.16699 -0.5 3.5
c0 33.333 12.333 62.333 37 87s54 38.334 88 41.001h12c37.333 0 70.166 -11 98.499 -33s42.5 -53.333 42.5 -94s-12.833 -72.334 -38.5 -95.001s-54.167 -43.334 -85.5 -62.001l159 -186c7.33301 18.667 12.5 37.667 15.5 57s4.83301 39 5.5 59h55
c-0.666992 -28.667 -4.16699 -56.5 -10.5 -83.5s-16.166 -53.167 -29.499 -78.5l107 -126h-73v0zM276.001 334.001c-22.667 -11.333 -44.332 -24.834 -64.999 -40.501s-36.334 -35.167 -47.001 -58.5c-2.66699 -5.33301 -4.83398 -11.166 -6.50098 -17.499
s-3.16699 -12.833 -4.5 -19.5c-0.666992 -4 -1.16699 -8.16699 -1.5 -12.5s-0.5 -8.5 -0.5 -12.5c0 -3.33301 0.166992 -6.83301 0.5 -10.5s0.833008 -7.5 1.5 -11.5c2 -15.333 6.83301 -30.5 14.5 -45.5s17.834 -28.167 30.501 -39.5
c11.333 -9.33301 23.5 -16.833 36.5 -22.5s26.167 -9.16699 39.5 -10.5c2 -0.666992 4.16699 -1 6.5 -1h6.5c4.66699 0 9.16699 0.166992 13.5 0.5s8.5 0.833008 12.5 1.5c28 4.66699 54.667 15.167 80 31.5s46 34.5 62 54.5l-179 214v0zM237.003 546
c-0.666992 -2.66699 -1.5 -5.33008 -2.5 -7.99707s-1.83301 -5.33398 -2.5 -8.00098s-1.16699 -5.33398 -1.5 -8.00098s-0.5 -5.33398 -0.5 -8.00098c0 -18 5 -35.167 15 -51.5s21 -31.833 33 -46.5c2.66699 -4 5.5 -7.66699 8.5 -11s5.83301 -6.66602 8.5 -9.99902
c2.66699 1.33301 5.33398 2.83301 8.00098 4.5s5.33398 3.16699 8.00098 4.5c19.333 11.333 37.5 24.666 54.5 39.999s26.5 34.666 28.5 57.999v9c0 20.667 -7.83301 37.834 -23.5 51.501s-32.834 22.5 -51.501 26.5c-2.66699 0 -5.33398 0.166992 -8.00098 0.5
s-5.33398 0.5 -8.00098 0.5h-2h-3c-12.667 -0.666992 -24.667 -4.5 -36 -11.5s-19.666 -17.833 -24.999 -32.5v0z" />
    <glyph glyph-name="quotesingle" unicode="'" horiz-adv-x="243" 
d="M105 626h38v-242h-38v242v0z" />
    <glyph glyph-name="parenleft" unicode="(" horiz-adv-x="374" 
d="M311 642c-12 -17.333 -23.001 -34.5 -33.001 -51.5s-19 -33.833 -27 -50.5c-23.333 -48 -40.666 -96.667 -51.999 -146s-17 -104 -17 -164c0 -56 4.83301 -107 14.5 -153s24.834 -91 45.501 -135c9.33301 -20 19.666 -40 30.999 -60s24 -40.333 38 -61l-42 -1
c-46.667 59.333 -82.167 124.333 -106.5 195s-36.5 142.334 -36.5 215.001v14c0 4.66699 0.333008 9 1 13c2.66699 68.667 16 136.167 40 202.5s58 127.166 102 182.499h42v0z" />
    <glyph glyph-name="parenright" unicode=")" horiz-adv-x="363" 
d="M52 642l42 0.000976562c41.333 -52.667 73.5 -109.667 96.5 -171s37.167 -123.666 42.5 -186.999c0.666992 -8.66699 1.16699 -17.5 1.5 -26.5s0.5 -18.167 0.5 -27.5v-15.5c0 -5 -0.333008 -10.167 -1 -15.5c-2.66699 -66.667 -15.834 -132.334 -39.501 -197.001
s-57.167 -125 -100.5 -181l-42 -1l34 55.5c10.667 17.667 20.334 35.5 29.001 53.5c22 46 38.333 93 49 141s16 101.333 16 160c0 60 -5.33301 114.5 -16 163.5s-27.667 96.833 -51 143.5c-8.66699 17.333 -18 34.666 -28 51.999s-21 35 -33 53v0z" />
    <glyph glyph-name="asterisk" unicode="*" horiz-adv-x="514" 
d="M266 447l-80 -115l-40 29l87 111l-131 34l16 50l127 -47v133h40v-133l127 45l17 -47l-132 -35l89 -111l-41 -29l-79 115v0z" />
    <glyph glyph-name="plus" unicode="+" horiz-adv-x="574" 
d="M271 533h35v-248h243v-37h-243v-248h-35v248h-243v37h243v248v0z" />
    <glyph glyph-name="comma" unicode="," horiz-adv-x="293" 
d="M123 -123v34c12 11.333 19.667 22.833 23 34.5s5 24.167 5 37.5v17h-28v79h59v-105l-59 -97v0z" />
    <glyph glyph-name="hyphen" unicode="-" horiz-adv-x="264" 
d="M23 207v56h215v-56h-215v0z" />
    <glyph glyph-name="period" unicode="." horiz-adv-x="233" 
d="M92 0v79h59v-79h-59v0z" />
    <glyph glyph-name="slash" unicode="/" horiz-adv-x="444" 
d="M326 660h44l-240 -733h-42l238 733v0z" />
    <glyph glyph-name="zero" unicode="0" horiz-adv-x="535" 
d="M66 305c0 13.333 0.333008 27.1641 1 41.4971s2 28.833 4 43.5c7.33301 58 25.5 111.167 54.5 159.5s75.833 72.5 140.5 72.5h27c57.333 -5.33301 99 -30.166 125 -74.499s43 -92.5 51 -144.5c2.66699 -17.333 4.5 -34.5 5.5 -51.5s1.5 -33.167 1.5 -48.5
c0 -16 -0.5 -32.667 -1.5 -50s-3.16699 -34.666 -6.5 -51.999c-8 -51.333 -25 -98.666 -51 -141.999s-67.333 -67.666 -124 -72.999l-27 -1c-65.333 0.666992 -112.333 25.5 -141 74.5s-46.667 102.833 -54 161.5c-2 14 -3.33301 28.167 -4 42.5s-1 28.166 -1 41.499v0z
M287 573.998l-18 0.00292969c-44.667 0 -77 -17.333 -97 -52s-33 -73 -39 -115c-2.66699 -18 -4.5 -35.833 -5.5 -53.5s-1.5 -33.834 -1.5 -48.501s0.5 -31 1.5 -49s2.83301 -36 5.5 -54c6 -42.667 18.833 -81.667 38.5 -117s51.5 -53 95.5 -53
c1.33301 0 2.83301 0.166992 4.5 0.5s3.16699 0.5 4.5 0.5s2.33301 0.166992 3 0.5s1.66699 0.5 3 0.5h2.5h2.5c40.667 4.66699 69.834 23.5 87.501 56.5s29.167 68.833 34.5 107.5c2.66699 18.667 4.33398 37.167 5.00098 55.5s1 34.833 1 49.5
c0 15.333 -0.333008 32.166 -1 50.499s-2.33398 37.166 -5.00098 56.499c-5.33301 38.667 -16.833 74.5 -34.5 107.5s-46.834 51.833 -87.501 56.5v0z" />
    <glyph glyph-name="one" unicode="1" horiz-adv-x="374" 
d="M225 0v499c-23.333 -16.667 -48 -26.667 -74 -30s-53 -5 -81 -5v37c47.333 2.66699 84.5 11.167 111.5 25.5s43.833 46.833 50.5 97.5h52v-624h-59v0z" />
    <glyph glyph-name="two" unicode="2" horiz-adv-x="566" 
d="M78 0c0 0.666992 -0.163086 1.16113 -0.496094 1.49414s-0.5 0.833008 -0.5 1.5l-0.5 0.5c-0.333008 0.333008 -0.5 0.833008 -0.5 1.5c0 58.667 13.833 105.834 41.5 141.501s65.167 67.834 112.5 96.501l13.5 8l13.5 8c5.33301 2.66699 10.666 5.5 15.999 8.5l17 9.5
c35.333 19.333 66.333 40.833 93 64.5s40 57.167 40 100.5c0 2 -0.166992 4.33301 -0.5 7s-0.5 5.66699 -0.5 9c0 2.66699 -0.166992 5.33398 -0.5 8.00098s-0.5 5 -0.5 7c-4 34 -19.5 59.333 -46.5 76s-56.167 25 -87.5 25c-2 0 -4 -0.166992 -6 -0.5s-4 -0.5 -6 -0.5
s-4 -0.166992 -6 -0.5s-4 -0.5 -6 -0.5c-40.667 -5.33301 -69.334 -23.166 -86.001 -53.499s-25.334 -63.833 -26.001 -100.5h-59c2.66699 50.667 16.167 95.334 40.5 134.001s64.5 62 120.5 70c6.66699 1.33301 13.167 2 19.5 2h19.5
c47.333 0 90.166 -13.167 128.499 -39.5s59.166 -66.166 62.499 -119.499v-21c0 -58.667 -18.167 -103 -54.5 -133s-76.166 -57 -119.499 -81l-3 -1.5l-3 -1.5c-38.667 -21.333 -74.667 -44.833 -108 -70.5s-53 -61.167 -59 -106.5h345v-50h-403v0z" />
    <glyph glyph-name="three" unicode="3" horiz-adv-x="545" 
d="M70 180l60 -0.00195312c0.666992 -26 5.66699 -51 15 -75s26.333 -42.667 51 -56c8.66699 -4.66699 18.5 -8.5 29.5 -11.5s22.167 -5.16699 33.5 -6.5h5.5h4.5c4 0 8.16699 0.166992 12.5 0.5s8.83301 0.833008 13.5 1.5c14.667 2 29 5.83301 43 11.5
s25.667 12.834 35 21.501c11.333 10 20.333 22.833 27 38.5s10.667 32.167 12 49.5c0.666992 2.66699 1 5.33398 1 8.00098v8v7.5c0 2.33301 -0.333008 4.83301 -1 7.5c-0.666992 12 -3 23.833 -7 35.5s-9.33301 21.834 -16 30.501c-11.333 16 -25.666 27.167 -42.999 33.5
s-35.333 10.5 -54 12.5c-6 0 -11.833 0.166992 -17.5 0.5s-11.167 0.5 -16.5 0.5h-29v47h3.5h4.5c0 -0.666992 0.166992 -1 0.5 -1h0.5h4h3c4.66699 0 9.5 0.166992 14.5 0.5s10.167 0.5 15.5 0.5c21.333 2 42 7.33301 62 16s35 23.334 45 44.001
c1.33301 3.33301 2.66602 6.5 3.99902 9.5s2.33301 5.83301 3 8.5c2 6 3.33301 12.167 4 18.5s1 12.166 1 17.499c0 32.667 -12.667 60.834 -38 84.501s-54.333 35.5 -87 35.5c-3.33301 0 -6.83301 -0.166992 -10.5 -0.5s-7.16699 -0.833008 -10.5 -1.5
c-7.33301 -1.33301 -14.5 -3.33301 -21.5 -6s-13.833 -6 -20.5 -10c-21.333 -12 -36.333 -28 -45 -48s-14 -41 -16 -63c0 -2 -0.166992 -3.83301 -0.5 -5.5s-0.5 -3.5 -0.5 -5.5h-55c1.33301 33.333 9.16602 65.166 23.499 95.499s37.5 53.166 69.5 68.499
c11.333 6 23.333 10.667 36 14s25.334 5.33301 38.001 6c2.66699 0.666992 5.33398 1 8.00098 1h8c45.333 0 86.666 -14.5 123.999 -43.5s56 -67.833 56 -116.5v-6.5v-6.5c-0.666992 -2.66699 -1 -5 -1 -7v-6c-3.33301 -26 -12.5 -48.167 -27.5 -66.5
s-34.167 -33.5 -57.5 -45.5c34.667 -11.333 60.834 -31 78.501 -59s27.167 -58 28.5 -90v-4v-4v-4.5v-4.5c-2 -33.333 -11.833 -64.833 -29.5 -94.5s-42.834 -51.5 -75.501 -65.5c-9.33301 -2.66699 -19.166 -5.33398 -29.499 -8.00098s-20.833 -4.66699 -31.5 -6
c-6 -1.33301 -12 -2.16602 -18 -2.49902s-12 -0.5 -18 -0.5h-7.5h-7.5c-25.333 2 -49.833 7.33301 -73.5 16s-43.834 22 -60.501 40c-18.667 19.333 -32 41 -40 65s-12 49.333 -12 76v0z" />
    <glyph glyph-name="four" unicode="4" horiz-adv-x="504" 
d="M324 0v156h-269v50l264 400h62v-402h84v-48h-84v-156h-57v0zM324 204v329l-215 -329h215v0z" />
    <glyph glyph-name="five" unicode="5" horiz-adv-x="556" 
d="M71 162h58.998c2.66699 -34 13.5 -62.333 32.5 -85s45.833 -36.334 80.5 -41.001c2 0 4.16699 -0.166992 6.5 -0.5s4.5 -0.833008 6.5 -1.5s4.16699 -1.16699 6.5 -1.5s4.5 -0.5 6.5 -0.5c39.333 0 72.333 12.667 99 38s41.334 59.333 44.001 102v18
c0 50 -13.833 88.167 -41.5 114.5s-58.167 41.166 -91.5 44.499c-2 0.666992 -4.33301 1 -7 1h-8h-3h-3c-23.333 -0.666992 -45.5 -6.33398 -66.5 -17.001s-37.833 -25.667 -50.5 -45h-49l47 318h305v-48h-262l-31 -201c13.333 10.667 28.333 19.167 45 25.5
s33.667 10.5 51 12.5c5.33301 0.666992 10.5 1.16699 15.5 1.5s9.83301 0.5 14.5 0.5s9.33398 -0.166992 14.001 -0.5s9.33398 -0.833008 14.001 -1.5c10 -0.666992 19.667 -2.16699 29 -4.5s18.333 -5.5 27 -9.5c34.667 -15.333 61.167 -39.166 79.5 -71.499
s28.833 -66.166 31.5 -101.499c0.666992 -3.33301 1 -6.5 1 -9.5v-8.5c0 -18.667 -2 -37.167 -6 -55.5s-10 -35.5 -18 -51.5c-14.667 -30 -37.334 -53.167 -68.001 -69.5s-62.667 -25.5 -96 -27.5c-3.33301 -0.666992 -6.5 -1 -9.5 -1h-8.5c-46.667 0 -90 14.333 -130 43
s-62 73.334 -66 134.001v0z" />
    <glyph glyph-name="six" unicode="6" horiz-adv-x="533" 
d="M117 298c14.667 29.333 34.9971 51.999 60.9971 67.999s53.333 25.333 82 28c2.66699 0 5.66699 0.166992 9 0.5s6.66602 0.5 9.99902 0.5h2.5h2.5c32 -0.666992 62.333 -9.16699 91 -25.5s50.667 -40.166 66 -71.499c4.66699 -11.333 8.83398 -23.333 12.501 -36
s6.5 -25.667 8.5 -39c0.666992 -6 1.16699 -11.833 1.5 -17.5s0.5 -11.5 0.5 -17.5c0 -5.33301 -0.166992 -10.666 -0.5 -15.999s-0.833008 -10.666 -1.5 -15.999c-2 -16 -5.33301 -31.833 -10 -47.5s-11 -29.834 -19 -42.501c-16 -28 -37.667 -48 -65 -60
s-56 -18.667 -86 -20h-5h-6l-26 -1c-63.333 6.66699 -108.833 33.5 -136.5 80.5s-43.834 98.167 -48.501 153.5c-0.666992 4.66699 -1.16699 9.16699 -1.5 13.5s-0.5 8.5 -0.5 12.5v10v10c-0.666992 3.33301 -1 6.66602 -1 9.99902v10c0 14.667 0.5 29.5 1.5 44.5
s2.5 30.5 4.5 46.5c4.66699 38.667 14.167 76.167 28.5 112.5s35.833 66.5 64.5 90.5c16 13.333 34.5 23.833 55.5 31.5s42.5 12.167 64.5 13.5h4.5h4.5c4.66699 0 9.33398 -0.166992 14.001 -0.5s9.33398 -0.833008 14.001 -1.5c16 -2 31.833 -6.16699 47.5 -12.5
s29.5 -14.5 41.5 -24.5c18 -15.333 31 -33.166 39 -53.499s13.333 -41.833 16 -64.5h-53c-6.66699 33.333 -19.834 60 -39.501 80s-47.167 30 -82.5 30c-51.333 0 -88.166 -18.833 -110.499 -56.5s-37.166 -79.167 -44.499 -124.5
c-3.33301 -17.333 -5.66602 -34.333 -6.99902 -51s-2.33301 -32.334 -3 -47.001v0zM268.997 31.999c47.333 0 81.668 14.501 103.001 43.501s32 65.5 32 109.5l-2 1c0 52 -12.833 91.333 -38.5 118s-53.834 41.334 -84.501 44.001h-4h-4h-2.5h-3.5
c-32.667 -1.33301 -63 -15.333 -91 -42s-42.333 -64.334 -43 -113.001l-1 -5c0 -40.667 11.833 -76.834 35.5 -108.501s58.167 -47.5 103.5 -47.5v0z" />
    <glyph glyph-name="seven" unicode="7" horiz-adv-x="494" 
d="M141 0c17.333 94.667 41.834 181.334 73.501 260.001s73.5 155.667 125.5 231l22.5 30.5l23.5 31.5h-326v53h387v-53c-24 -31.333 -45.667 -61.333 -65 -90s-37 -57.334 -53 -86.001c-31.333 -56 -56.833 -113.5 -76.5 -172.5s-35.834 -127.167 -48.501 -204.5h-63v0z
" />
    <glyph glyph-name="eight" unicode="8" horiz-adv-x="514" 
d="M160 331c-25.333 15.333 -45.834 33.168 -61.501 53.501s-23.5 45.166 -23.5 74.499c0 1.33301 0.166992 3 0.5 5s0.833008 4.33301 1.5 7v2.5v3.5c0.666992 1.33301 1 2.66602 1 3.99902v4c5.33301 47.333 25.166 82.333 59.499 105s73.166 34 116.499 34h20
c46 -2.66699 83.5 -18.167 112.5 -46.5s44.5 -66.166 46.5 -113.499c0 -30.667 -7.83301 -56.834 -23.5 -78.501s-36.167 -39.834 -61.5 -54.501c35.333 -12.667 61.833 -33.667 79.5 -63s26.834 -60.333 27.501 -93v-2.5v-2.5v-8.5c0 -3 -0.333008 -5.83301 -1 -8.5
c-3.33301 -40.667 -20 -78 -50 -112s-72.333 -52.333 -127 -55l-23 -1c-66.667 0.666992 -116.667 19.334 -150 56.001s-50.666 77.334 -51.999 122.001v3.5v2.5v2v3c0.666992 32.667 10.334 64 29.001 94s45 51 79 63v0zM112.999 170.002
c0.666992 -43.333 14.835 -76.6689 42.502 -100.002s57.5 -36 89.5 -38h5h4h4.5h4.5c31.333 2 60.166 13.5 86.499 34.5s41.166 50.167 44.499 87.5v19c0 32.667 -9.16699 61.334 -27.5 86.001s-45.5 39.334 -81.5 44.001c-2 0 -4.33301 0.166992 -7 0.5
s-5.66699 0.5 -9 0.5h-0.5h-1.5c-2.66699 0.666992 -5.16699 1 -7.5 1h-6.5c-38.667 0 -71.667 -11.333 -99 -34s-41 -55.667 -41 -99v-2v0zM133 461.999c0 -34.667 12.335 -61.3311 37.002 -79.998s51.667 -28.334 81 -29.001h1.5h1.5h3.5h2.5
c27.333 1.33301 52.5 10.166 75.5 26.499s35.833 39.5 38.5 69.5v10v4v4c-2.66699 26.667 -14.834 51.167 -36.501 73.5s-48.167 33.5 -79.5 33.5c-36.667 0 -66.334 -10.833 -89.001 -32.5s-34.667 -48.167 -36 -79.5v0z" />
    <glyph glyph-name="nine" unicode="9" horiz-adv-x="514" 
d="M109 141c4.66699 -32.667 16.665 -59.1689 35.998 -79.502s46.666 -30.5 81.999 -30.5l5 1c52 0.666992 89.167 20.167 111.5 58.5s36.833 80.5 43.5 126.5c2.66699 16 4.5 31.667 5.5 47s1.83301 30 2.5 44c-14 -26.667 -33.833 -48.167 -59.5 -64.5
s-52.5 -26.5 -80.5 -30.5c-4 -0.666992 -8.16699 -1.16699 -12.5 -1.5s-8.83301 -0.5 -13.5 -0.5c-3.33301 0 -6.83301 0.166992 -10.5 0.5s-7.16699 0.5 -10.5 0.5c-21.333 2.66699 -42 9.16699 -62 19.5s-37.333 24.5 -52 42.5c-14 16.667 -25.167 36 -33.5 58
s-13.166 45 -14.499 69c-0.666992 2.66699 -1 5.33398 -1 8.00098v8c0 6 0.333008 12.333 1 19s1.33398 13 2.00098 19c3.33301 18.667 8.5 36.667 15.5 54s15.5 33 25.5 47c16 20.667 36.5 36.667 61.5 48s51.167 18 78.5 20h6h6c15.333 0 30.333 -1.33301 45 -4
s28.334 -6.66699 41.001 -12c40 -18 69.167 -46 87.5 -84s30.166 -77.667 35.499 -119c1.33301 -12 2.33301 -23.667 3 -35s1 -22.333 1 -33v-21c0 -15.333 -0.666992 -31.166 -2 -47.499s-3 -32.5 -5 -48.5c-7.33301 -48.667 -22.5 -94.5 -45.5 -137.5
s-59.167 -72.167 -108.5 -87.5c-3.33301 -1.33301 -6.83301 -2.33301 -10.5 -3l-10.5 -2c-8.66699 -2 -17.334 -3.33301 -26.001 -4s-16.667 -1 -24 -1c-43.333 0 -80.666 13.5 -111.999 40.5s-49.666 65.5 -54.999 115.5h54v0zM380.998 394.998v20
c0 6 -0.333008 12.167 -1 18.5s-1.66699 12.5 -3 18.5c-4.66699 28 -15.167 53.833 -31.5 77.5s-38.5 37.834 -66.5 42.501c-2 0.666992 -4.16699 1 -6.5 1s-4.5 0.333008 -6.5 1c-4.66699 0 -9.16699 0.166992 -13.5 0.5s-8.5 0.5 -12.5 0.5
c-42 0 -74.333 -13.833 -97 -41.5s-34 -64.5 -34 -110.5v-1c0 -0.666992 -0.333008 -1 -1 -1v-1v0c0 -0.666992 -0.166992 -1.33398 -0.5 -2.00098l-0.5 -1c0 -51.333 13.333 -90.333 40 -117s56 -40.667 88 -42h3.5h2.5h6c2 0 4 0.333008 6 1
c30 2.66699 57.833 15.5 83.5 38.5s40.5 55.5 44.5 97.5v0z" />
    <glyph glyph-name="colon" unicode=":" horiz-adv-x="263" 
d="M117 0v79h60v-79h-60v0zM177 376h-60v79h60v-79v0z" />
    <glyph glyph-name="semicolon" unicode=";" horiz-adv-x="282" 
d="M117 -123v34c12 11.333 19.5 22.833 22.5 34.5s4.5 24.167 4.5 37.5v17h-27v79h58v-105l-58 -97v0zM175 455v-79h-58v79h58v0z" />
    <glyph glyph-name="less" unicode="&#x3c;" horiz-adv-x="575" 
d="M541 491v-40l-455 -184l455 -184v-39l-512 209v27l512 211v0z" />
    <glyph glyph-name="equal" unicode="=" horiz-adv-x="535" 
d="M530 170h-522v36h522v-36v0zM8 363h522v-36h-522v36v0z" />
    <glyph glyph-name="greater" unicode="&#x3e;" horiz-adv-x="585" 
d="M39 491l512 -211v-27l-512 -209v39l454 184l-454 184v40v0z" />
    <glyph glyph-name="question" unicode="?" horiz-adv-x="494" 
d="M214 0v79h60v-79h-60v0zM337 323c-12.667 -11.333 -23.0029 -21.5 -31.0029 -30.5s-14.667 -17.833 -20 -26.5c-8 -14 -12.833 -29 -14.5 -45s-2.5 -37.333 -2.5 -64h-52v3.5v3.5v2v2c-0.666992 2 -1 3.83301 -1 5.5v4.5c0 22.667 0.833008 41.834 2.5 57.501
s5.83398 30.5 12.501 44.5c5.33301 10.667 12.5 21.5 21.5 32.5s20.833 23.5 35.5 37.5c4 4 8.33301 8 13 12s9.33398 8.33301 14.001 13c12.667 11.333 24.5 23.666 35.5 36.999s18.833 27.666 23.5 42.999l2 6c0.666992 2 1 4 1 6c0.666992 4 1.16699 8.16699 1.5 12.5
s0.5 8.16602 0.5 11.499c0 35.333 -13.333 63.833 -40 85.5s-57 32.5 -91 32.5c-4 0 -7.83301 -0.166992 -11.5 -0.5s-7.16699 -0.833008 -10.5 -1.5l-10.5 -2l-11.5 -2c-34 -10.667 -57 -29 -69 -55s-18.667 -54.667 -20 -86h-58c3.33301 46 15.5 87.167 36.5 123.5
s56.833 59.5 107.5 69.5c2.66699 0 5.33398 0.166992 8.00098 0.5s5.66699 0.5 9 0.5c5.33301 0.666992 11 1.16699 17 1.5s12 0.5 18 0.5h6h6c36 -2 70.167 -11.333 102.5 -28s54.5 -44 66.5 -82c1.33301 -3.33301 2.33301 -6.66602 3 -9.99902l2 -10
c0.666992 -5.33301 1.16699 -10.666 1.5 -15.999s0.5 -10 0.5 -14c0 -36 -10.5 -67.833 -31.5 -95.5s-45.167 -54.167 -72.5 -79.5v0z" />
    <glyph glyph-name="at" unicode="@" horiz-adv-x="916" 
d="M710 83c-9.33301 -4.66699 -19.8301 -9.33496 -31.4971 -14.002s-23.5 -8.66699 -35.5 -12c-6 -1.33301 -11.833 -2.33301 -17.5 -3s-11.5 -1 -17.5 -1c-3.33301 0 -6.66602 0.166992 -9.99902 0.5s-6.66602 0.833008 -9.99902 1.5
c-4.66699 1.33301 -9.5 2.83301 -14.5 4.5s-9.83301 3.5 -14.5 5.5c-12.667 5.33301 -21.5 13.333 -26.5 24s-7.5 22 -7.5 34c0 0.666992 0.166992 1.66699 0.5 3s0.5 2.66602 0.5 3.99902c0 0.666992 0.166992 1.66699 0.5 3s0.5 2.33301 0.5 3
c-12 -22 -27.667 -39.833 -47 -53.5s-39.333 -22.5 -60 -26.5c-4.66699 -1.33301 -9.33398 -2.16602 -14.001 -2.49902s-9.33398 -0.5 -14.001 -0.5c-32.667 0 -62.334 12.167 -89.001 36.5s-40 59.833 -40 106.5v3c0 1.33301 0.333008 2.66602 1 3.99902v3v3v1.5v1.5
c3.33301 55.333 22.833 106.333 58.5 153s83.167 70.334 142.5 71.001c27.333 0 50.5 -6.33301 69.5 -19s33.167 -31.334 42.5 -56.001l26 57h36l-60 -241c-0.666992 -2 -1.5 -4.33301 -2.5 -7s-1.83301 -5.33398 -2.5 -8.00098
c-0.666992 -1.33301 -1.16699 -2.83301 -1.5 -4.5s-0.833008 -3.5 -1.5 -5.5c-1.33301 -4 -2.33301 -7.83301 -3 -11.5s-1 -7.16699 -1 -10.5c0 -1.33301 0.166992 -3 0.5 -5s0.833008 -3.66699 1.5 -5l4 -8c1.33301 -2.66699 2.66602 -5 3.99902 -7
c3.33301 -4.66699 8.16602 -8.5 14.499 -11.5s12.833 -4.83301 19.5 -5.5h2.5h2.5c3.33301 0 6.5 0.166992 9.5 0.5s6.16699 0.833008 9.5 1.5c6 1.33301 11.833 2.83301 17.5 4.5s10.834 3.5 15.501 5.5c2 0.666992 3.66699 1.33398 5 2.00098l4 2
c38 17.333 67.333 44.5 88 81.5s33 76.167 37 117.5c0.666992 5.33301 1.16699 10.666 1.5 15.999s0.5 10.666 0.5 15.999c0 4 -0.166992 8.33301 -0.5 13s-0.5 9.33398 -0.5 14.001l-2 18c-0.666992 6 -1.33398 11.667 -2.00098 17c-12 56.667 -41.333 101.5 -88 134.5
s-96.667 53.833 -150 62.5c-4.66699 1.33301 -9.5 2.16602 -14.5 2.49902s-9.83301 0.833008 -14.5 1.5h-38c-65.333 0 -127.833 -14 -187.5 -42s-107.167 -70.667 -142.5 -128c-16 -25.333 -29.167 -53.666 -39.5 -84.999s-16.5 -63 -18.5 -95
c-0.666992 -4 -1 -7.83301 -1 -11.5v-11.5v-4.5v-4.5c1.33301 -38 8.5 -74.667 21.5 -110s32.833 -66.333 59.5 -93c35.333 -34.667 76.166 -60 122.499 -76s94.166 -24 143.499 -24c8 0 16 0.166992 24 0.5s16 0.833008 24 1.5c42 4.66699 83.167 13.834 123.5 27.501
s76.833 31.5 109.5 53.5l13 -20c-33.333 -23.333 -70.666 -42.666 -111.999 -57.999s-83.333 -25.666 -126 -30.999c-10.667 -1.33301 -21.167 -2.33301 -31.5 -3s-20.5 -1 -30.5 -1h-10h-10c-48 2 -94.833 11.333 -140.5 28s-86.167 41.667 -121.5 75
c-34.667 31.333 -60.667 68.5 -78 111.5s-26 87.167 -26 132.5c0 6 0.166992 11.833 0.5 17.5s0.833008 11.5 1.5 17.5c3.33301 38.667 12.333 76.334 27 113.001s34 69.334 58 98.001c42.667 51.333 94.167 89.833 154.5 115.5s122.833 38.5 187.5 38.5
c7.33301 0 14.5 -0.166992 21.5 -0.5s14.167 -0.5 21.5 -0.5c10.667 -1.33301 21.334 -2.5 32.001 -3.5s21 -2.5 31 -4.5c70.667 -15.333 130.667 -48 180 -98s74 -112.667 74 -188v-10c0 -3.33301 -0.333008 -6.66602 -1 -9.99902
c-2.66699 -46.667 -15.667 -91.334 -39 -134.001s-56.333 -75.334 -99 -98.001v0zM567.003 313.999c-4.66699 25.333 -15.501 46.5 -32.501 63.5s-39.167 25.833 -66.5 26.5h-3c-38.667 0 -70.334 -14.5 -95.001 -43.5s-41 -61.167 -49 -96.5
c-3.33301 -12 -6 -23.833 -8 -35.5s-3 -22.5 -3 -32.5c0 -36.667 9.83301 -64.167 29.5 -82.5s41.5 -27.5 65.5 -27.5c4.66699 0 9.33398 0.333008 14.001 1l14 2c22.667 6 44.334 18.833 65.001 38.5s34.667 45.167 42 76.5l27 110v0z" />
    <glyph glyph-name="A" unicode="A" horiz-adv-x="606" 
d="M24 0l243 642h72l243 -642h-62l-73 198h-288l-73 -198h-62v0zM428 250l-125 330l-125 -330h250v0z" />
    <glyph glyph-name="B" unicode="B" horiz-adv-x="595" 
d="M79 0v642.003h213h9.5h8.5c47.333 -2 91.166 -13.167 131.499 -33.5s63.833 -57.833 70.5 -112.5v-13c0 -31.333 -8.5 -59.833 -25.5 -85.5s-40.167 -44.834 -69.5 -57.501c38.667 -10.667 69 -31.834 91 -63.501s33 -66.167 33 -103.5
c0 -4 -0.166992 -8.16699 -0.5 -12.5s-0.833008 -8.5 -1.5 -12.5l-2 -12.5l-2 -12.5c-14.667 -54 -42.167 -87.833 -82.5 -101.5s-83.166 -20.834 -128.499 -21.501h-9.5h-9.5h-226v0zM311 53.0029c45.333 0 85 6.66699 119 20s51 47.333 51 102
c0 52 -16.5 87.167 -49.5 105.5s-72.167 27.5 -117.5 27.5h-176v-255h173v0zM452 475.003c0 43.333 -14.999 73.333 -44.999 90s-72.333 25 -127 25h-142v-232h138h10h10c39.333 0.666992 75.166 7.66699 107.499 21s48.5 45.333 48.5 96v0z" />
    <glyph glyph-name="C" unicode="C" horiz-adv-x="634" 
d="M528 211l58.998 -0.00195312c-4 -62.667 -26.333 -114.667 -67 -156s-93 -64.333 -157 -69l-32 -1c-85.333 0.666992 -151.833 29.167 -199.5 85.5s-73.834 126.833 -78.501 211.5c0 4 -0.166992 7.83301 -0.5 11.5s-0.5 7.16699 -0.5 10.5
c-0.666992 3.33301 -1.16699 6.83301 -1.5 10.5s-0.5 7.5 -0.5 11.5c0 9.33301 0.333008 18.666 1 27.999l2 29c4.66699 40 14.834 78.833 30.501 116.5s38.5 69.5 68.5 95.5c20 17.333 43.5 31 70.5 41s54.5 16.333 82.5 19c5.33301 0 10.5 0.166992 15.5 0.5
s9.83301 0.5 14.5 0.5h2.5h3.5c58.667 -1.33301 112.834 -18.5 162.501 -51.5s75.167 -82.833 76.5 -149.5h-58c-4.66699 50 -25.667 87.333 -63 112s-77.666 37.334 -120.999 38.001h-1.5h-1.5h-4.5h-4.5c-26 -1.33301 -51.333 -6.66602 -76 -15.999
s-46.334 -22.666 -65.001 -39.999c-22 -20.667 -38.167 -45 -48.5 -73s-17.166 -57 -20.499 -87c-1.33301 -10.667 -2.33301 -21.5 -3 -32.5s-1 -21.833 -1 -32.5c0 -0.666992 -0.166992 -1.66699 -0.5 -3s-0.5 -2.66602 -0.5 -3.99902s-0.166992 -2.66602 -0.5 -3.99902
s-0.5 -2.33301 -0.5 -3c0 -70.667 18.833 -134.334 56.5 -191.001s93.5 -85 167.5 -85c1.33301 0 3 0.166992 5 0.5s4 0.5 6 0.5h1h1c2 0.666992 3.83301 1 5.5 1h4.5c51.333 3.33301 92 21.166 122 53.499s46.333 72.833 49 121.5v0z" />
    <glyph glyph-name="D" unicode="D" horiz-adv-x="605" 
d="M211 642l61.002 0.00195312h19.5c6.33301 0 12.833 -0.333008 19.5 -1c20 -0.666992 39.667 -2.83398 59 -6.50098s37.666 -9.83398 54.999 -18.501c39.333 -18.667 69.166 -46.834 89.499 -84.501s33.833 -77.5 40.5 -119.5c1.33301 -9.33301 2.5 -18.5 3.5 -27.5
s1.83301 -17.833 2.5 -26.5v-37c0 -11.333 -0.333008 -22.833 -1 -34.5s-1.66699 -23.167 -3 -34.5c-5.33301 -45.333 -17.833 -88.666 -37.5 -129.999s-50.167 -72.333 -91.5 -93c-18 -9.33301 -37.167 -16 -57.5 -20s-40.833 -6.66699 -61.5 -8
c-12.667 -0.666992 -25 -1 -37 -1h-35h-177v642h151v0zM118.002 53.002l93.998 -0.00195312h16h16c0.666992 -0.666992 1.5 -1 2.5 -1h2.5h14h14h9.5h9.5c18.667 0.666992 37.334 3 56.001 7s36.334 10.333 53.001 19c28 16 49 39 63 69s23.333 61.333 28 94
c2 12 3.33301 23.833 4 35.5s1 22.834 1 33.501v11c0 12 -0.333008 24.333 -1 37s-1.66699 25.334 -3 38.001c-5.33301 38 -16.5 73.833 -33.5 107.5s-44.5 57.5 -82.5 71.5c-10.667 4 -22 7 -34 9s-24 3.66699 -36 5c-5.33301 0 -11 0.166992 -17 0.5s-12 0.5 -18 0.5h-158
v-537v0z" />
    <glyph glyph-name="E" unicode="E" horiz-adv-x="556" 
d="M76 0v642h420v-52h-361v-233h330v-52h-330v-252h371v-53h-430v0z" />
    <glyph glyph-name="F" unicode="F" horiz-adv-x="433" 
d="M79 0v642h406v-52h-347v-232h314v-53h-314v-305h-59v0z" />
    <glyph glyph-name="G" unicode="G" horiz-adv-x="676" 
d="M566 0l-7.00098 113.003c-16.667 -36.667 -43.167 -65.834 -79.5 -87.501s-75.166 -34.834 -116.499 -39.501h-8.5c-3 0 -6.16699 -0.333008 -9.5 -1h-2.5h-3.5h-6h-6c-84 0 -149.667 29 -197 87s-74 128.667 -80 212c0 3.33301 -0.166992 6.83301 -0.5 10.5
s-0.5 7.16699 -0.5 10.5c-0.666992 3.33301 -1.16699 6.83301 -1.5 10.5s-0.5 7.16699 -0.5 10.5c0 93.333 25.167 172.333 75.5 237s122.833 97 217.5 97c4 0 8.33301 -0.166992 13 -0.5s9.66699 -0.5 15 -0.5c4.66699 -0.666992 9.33398 -1.16699 14.001 -1.5
s9 -0.833008 13 -1.5c56 -6.66699 103 -27.834 141 -63.501s61.333 -81.5 70 -137.5h-61c-8.66699 44 -30 79.5 -64 106.5s-72.667 41.833 -116 44.5h-26c-80.667 0 -139.167 -26.667 -175.5 -80s-54.5 -119.666 -54.5 -198.999
c1.33301 -74.667 18.666 -141.667 51.999 -201s90.333 -89 171 -89c2 0 4 0.166992 6 0.5s4.33301 0.5 7 0.5h0.5h1.5c2 0.666992 3.83301 1 5.5 1h5.5c70 5.33301 120.667 30.666 152 75.999s47.333 99.333 48 162h-213v54h269v-331h-48v0z" />
    <glyph glyph-name="H" unicode="H" horiz-adv-x="624" 
d="M79 0v642h59v-277h366v277h60v-642h-60v311h-366v-311h-59v0z" />
    <glyph glyph-name="I" unicode="I" horiz-adv-x="203" 
d="M83 0v642h60v-642h-60v0z" />
    <glyph glyph-name="J" unicode="J" horiz-adv-x="413" 
d="M21 198l59.999 0.00292969c0 -0.666992 -0.166992 -1.66699 -0.5 -3s-0.5 -2.66602 -0.5 -3.99902v-1.5v-1.5c-0.666992 -0.666992 -1 -1.5 -1 -2.5v-2.5c0 -6 0.166992 -12.333 0.5 -19s0.5 -13.334 0.5 -20.001c2 -23.333 8 -45.333 18 -66s28.667 -33.667 56 -39
c1.33301 0 2.66602 -0.166992 3.99902 -0.5s3 -0.833008 5 -1.5c4 -0.666992 8.5 -1.33398 13.5 -2.00098s9.83301 -1 14.5 -1h6c2 0 4 0.333008 6 1c14.667 0.666992 28.834 4 42.501 10s25.167 14.333 34.5 25c8.66699 9.33301 14.667 20 18 32s5.33301 24.333 6 37
c0.666992 5.33301 1 10.666 1 15.999v15v472h58v-485c0 -56.667 -16 -99.5 -48 -128.5s-73.667 -43.5 -125 -43.5h-8h-7c-2.66699 0.666992 -5.33398 1 -8.00098 1h-8c-27.333 3.33301 -53.166 12.666 -77.499 27.999s-41.166 36.666 -50.499 63.999
c-2.66699 10.667 -5 21.834 -7 33.501s-3.33301 23.5 -4 35.5c-0.666992 3.33301 -1 7 -1 11v12c0 2 0.166992 4.16699 0.5 6.5s0.5 4.83301 0.5 7.5s0.166992 5.16699 0.5 7.5s0.5 4.5 0.5 6.5v0z" />
    <glyph glyph-name="K" unicode="K" horiz-adv-x="595" 
d="M65 0v642h58v-339l331 339h76l-261 -266l292 -376h-73l-258 337l-107 -110v-227h-58v0z" />
    <glyph glyph-name="L" unicode="L" horiz-adv-x="485" 
d="M70 0v642h60v-589h327v-53h-387v0z" />
    <glyph glyph-name="M" unicode="M" horiz-adv-x="715" 
d="M78 0v642h82l213 -564l207 564h83v-642h-57v561l-206 -561h-55l-209 561v-561h-58v0z" />
    <glyph glyph-name="N" unicode="N" horiz-adv-x="605" 
d="M70 0v642h65l361 -550v550h57v-642h-65l-362 551v-551h-56v0z" />
    <glyph glyph-name="O" unicode="O" horiz-adv-x="686" 
d="M50 321c0 95.333 25.335 175.334 76.002 240.001s121.667 97 213 97c6 0 12.167 -0.166992 18.5 -0.5s12.833 -0.833008 19.5 -1.5c5.33301 0 10.666 -0.333008 15.999 -1s10.333 -1.33398 15 -2.00098c77.333 -12.667 134.166 -49.667 170.499 -111
s56.166 -127.333 59.499 -198c0.666992 -4 1 -7.83301 1 -11.5v-11.5c0 -91.333 -24.167 -170.166 -72.5 -236.499s-122.166 -99.5 -221.499 -99.5s-173.333 33.167 -222 99.5s-73 145.166 -73 236.499v0zM194.002 549.001c-30 -27.333 -50.834 -59.498 -62.501 -96.498
s-18.167 -75.167 -19.5 -114.5v-8.5v-8.5c0 -72.667 18.5 -138.334 55.5 -197.001s96.167 -88 177.5 -88c63.333 0 115.5 21 156.5 63s65.167 93.667 72.5 155c0 3.33301 0.166992 6.66602 0.5 9.99902s0.5 7 0.5 11c0 2.66699 0.166992 5.5 0.5 8.5s0.5 5.83301 0.5 8.5
c0.666992 4.66699 1 9.16699 1 13.5v12.5v13.5c0 4.33301 -0.333008 8.5 -1 12.5c-3.33301 62.667 -20.833 120.5 -52.5 173.5s-83.5 82.5 -155.5 88.5h-23c-27.333 0 -54.166 -5 -80.499 -15s-49.833 -24 -70.5 -42v0z" />
    <glyph glyph-name="P" unicode="P" horiz-adv-x="485" 
d="M86 0v642h224c59.333 0 109.166 -13.167 149.499 -39.5s60.5 -72.5 60.5 -138.5c0 -74.667 -24.167 -124 -72.5 -148s-104.166 -36.333 -167.499 -37h-136v-279h-58v0zM144 590l-0.000976562 -258.002h138c46 0 87 7.83301 123 23.5s54 51.834 54 108.501
c0 48.667 -14.667 81.834 -44 99.501s-65.666 26.5 -108.999 26.5h-162v0z" />
    <glyph glyph-name="Q" unicode="Q" horiz-adv-x="686" 
d="M543 60l81 -65.001l-31 -40l-92 71c-18.667 -12.667 -39.667 -22.5 -63 -29.5s-47.333 -11.167 -72 -12.5c-2.66699 -0.666992 -5.66699 -1 -9 -1h-10h-9.5c-3 0 -6.16699 0.333008 -9.5 1c-26.667 1.33301 -53 6 -79 14s-49 19 -69 33c-44 30 -77.333 70.667 -100 122
s-34.334 104.666 -35.001 159.999v2.5v3.5c0 6.66699 0.166992 13.334 0.5 20.001s0.833008 13.667 1.5 21c4.66699 44.667 16.167 87.834 34.5 129.501s43.166 76.167 74.499 103.5c24 22 51.5 38.333 82.5 49s62.5 16.667 94.5 18h5.5h5.5c6 0 12.167 -0.166992 18.5 -0.5
s12.833 -0.833008 19.5 -1.5c9.33301 -1.33301 18.333 -2.83301 27 -4.5s17 -3.5 25 -5.5c68.667 -19.333 119.834 -59.5 153.501 -120.5s51.167 -126.167 52.5 -195.5v-4v-4v-4v-4c-0.666992 -48 -9.16699 -94.833 -25.5 -140.5s-40.166 -84.167 -71.499 -115.5v0z
M455 62.999l-73.998 62.001l31 40l89 -69c25.333 24.667 43.666 53.334 54.999 86.001s18 66.334 20 101.001c0.666992 5.33301 1 10.5 1 15.5v15.5v7.5v7.5c0 6 -0.166992 11.833 -0.5 17.5s-0.833008 11.5 -1.5 17.5c0 4 -0.166992 8 -0.5 12s-0.5 7.66699 -0.5 11
c-4.66699 39.333 -16.834 76.333 -36.501 111s-47.167 61.667 -82.5 81c-11.333 6 -23.333 11 -36 15s-25.667 7 -39 9c-6 1.33301 -11.833 2.16602 -17.5 2.49902s-11.5 0.5 -17.5 0.5c-19.333 0 -38.5 -2.33301 -57.5 -7s-37.167 -11.334 -54.5 -20.001
c-40 -24 -70.5 -58.167 -91.5 -102.5s-32.5 -90.833 -34.5 -139.5v-8v-8v-13.5c0 -4.33301 0.333008 -8.83301 1 -13.5c2 -29.333 7.66699 -58.333 17 -87s21.666 -54 36.999 -76c18.667 -27.333 43.167 -49.5 73.5 -66.5s61.833 -26.833 94.5 -29.5
c3.33301 -0.666992 6.5 -1 9.5 -1h8.5c5.33301 0 10.833 0.166992 16.5 0.5s11.167 1.16602 16.5 2.49902c12.667 2 25.334 5.33301 38.001 10s24.667 10 36 16v0z" />
    <glyph glyph-name="R" unicode="R" horiz-adv-x="585" 
d="M79 0l0.000976562 641.999h244h8.5h9.5c20.667 -0.666992 41 -2.66699 61 -6s39 -10 57 -20c23.333 -13.333 41.333 -31.666 54 -54.999s20 -48 22 -74c0.666992 -2.66699 1 -5.16699 1 -7.5v-7.5c0 -33.333 -8.66699 -64.833 -26 -94.5s-42.666 -50.834 -75.999 -63.501
c35.333 -12.667 56.833 -31 64.5 -55s12.5 -52.667 14.5 -86c0.666992 -1.33301 1 -2.66602 1 -3.99902v-4l8 -97c0.666992 -3.33301 1.16699 -6.83301 1.5 -10.5s0.833008 -7.5 1.5 -11.5c1.33301 -6.66699 3.33301 -13 6 -19s6.66699 -11.667 12 -17v-10h-65
c-6.66699 14.667 -11.334 31.667 -14.001 51s-4.66699 39.333 -6 60c0 4.66699 -0.166992 9.33398 -0.5 14.001s-0.5 9.66699 -0.5 15l-2 33.5c-0.666992 11 -1.66699 21.167 -3 30.5c-6.66699 37.333 -21.334 60.666 -44.001 69.999s-50.667 14 -84 14h-186v-288h-59v0z
M138.001 589.999l-0.000976562 -250.002h172h6h5c38 0.666992 72.833 8.33398 104.5 23.001s48.5 45 50.5 91v14v8c0 2.66699 -0.333008 5.33398 -1 8.00098c-1.33301 12.667 -4.33301 25 -9 37s-11 22.667 -19 32c-12 12 -26.167 20.5 -42.5 25.5s-33.166 8.5 -50.499 10.5
c-6 0 -12 0.166992 -18 0.5s-12 0.5 -18 0.5h-180v0z" />
    <glyph glyph-name="S" unicode="S" horiz-adv-x="585" 
d="M70 194l58 -0.00195312c1.33301 -34 9.83301 -64 25.5 -90s40.834 -44.333 75.501 -55c9.33301 -3.33301 19.5 -6.16602 30.5 -8.49902s22.167 -4.16602 33.5 -5.49902c3.33301 0 6.66602 -0.166992 9.99902 -0.5s6.66602 -0.5 9.99902 -0.5h10.5
c3.66699 0 7.16699 0.333008 10.5 1c22 2 43 7.33301 63 16s36.333 21.334 49 38.001c6 8 11 17.333 15 28s6.66699 21.667 8 33c0.666992 2.66699 1 5.16699 1 7.5v7.5c0 3.33301 -0.166992 6.5 -0.5 9.5s-0.5 6.16699 -0.5 9.5c-1.33301 8.66699 -3.5 17.167 -6.5 25.5
s-6.83301 15.833 -11.5 22.5c-12.667 16.667 -29 29.667 -49 39s-40.667 17 -62 23l-25.5 6l-24.5 6l-8 2l-8 2c-1.33301 0 -2.66602 0.166992 -3.99902 0.5s-2.66602 0.833008 -3.99902 1.5c-4 0.666992 -8 1.66699 -12 3s-8.33301 2.33301 -13 3
c-26.667 7.33301 -52.334 16.666 -77.001 27.999s-44.334 30 -59.001 56c-4.66699 8.66699 -8.83398 18 -12.501 28s-6.16699 20.333 -7.5 31c-0.666992 3.33301 -1.16699 6.66602 -1.5 9.99902s-0.5 6.66602 -0.5 9.99902c0 4 0.166992 8.16699 0.5 12.5
s0.833008 8.5 1.5 12.5c2.66699 20 8.66699 39.167 18 57.5s21.333 33.5 36 45.5c16 14 35 25.167 57 33.5s44.667 13.833 68 16.5c4.66699 0 9.33398 0.166992 14.001 0.5s9.33398 0.5 14.001 0.5h10.5c3.66699 0 7.16699 -0.333008 10.5 -1
c19.333 -1.33301 38.166 -4.33301 56.499 -9s35.166 -11.334 50.499 -20.001c28.667 -15.333 50.334 -37.333 65.001 -66s23 -58.667 25 -90c0.666992 -1.33301 1 -2.83301 1 -4.5v-5.5h-60c-2 28 -9.16699 53.833 -21.5 77.5s-32.166 40.834 -59.499 51.501
c-7.33301 2.66699 -15.166 5 -23.499 7s-16.833 3.66699 -25.5 5l-17.5 2c-5.66699 0.666992 -11.167 1 -16.5 1h-7.5c-2.33301 0 -4.83301 -0.333008 -7.5 -1c-16.667 -1.33301 -33.167 -4.83301 -49.5 -10.5s-30.5 -13.834 -42.5 -24.501
c-10 -9.33301 -18.167 -20.5 -24.5 -33.5s-10.166 -26.5 -11.499 -40.5c-0.666992 -2 -1 -4.16699 -1 -6.5v-6.5c0 -2.66699 0.166992 -5.66699 0.5 -9s0.833008 -6.66602 1.5 -9.99902c1.33301 -6 3 -12 5 -18s4.33301 -11.667 7 -17c10 -16 24.167 -28.5 42.5 -37.5
s37.833 -16.167 58.5 -21.5l28 -6l27 -6c2.66699 -0.666992 5.16699 -1.16699 7.5 -1.5s4.5 -0.833008 6.5 -1.5c5.33301 -1.33301 10.833 -2.83301 16.5 -4.5s11.5 -3.16699 17.5 -4.5c28 -8 55.333 -18.833 82 -32.5s48 -33.5 64 -59.5c6 -9.33301 10.5 -19.5 13.5 -30.5
s5.16699 -22.167 6.5 -33.5c0.666992 -3.33301 1 -6.66602 1 -9.99902v-10c0 -4 -0.166992 -7.83301 -0.5 -11.5s-0.5 -7.5 -0.5 -11.5c-2.66699 -20.667 -8.33398 -40.834 -17.001 -60.501s-20 -36.167 -34 -49.5c-16.667 -15.333 -36.667 -27.333 -60 -36
s-47.333 -14.667 -72 -18c-6 -0.666992 -12.333 -1.16699 -19 -1.5s-13.334 -0.5 -20.001 -0.5h-6.5h-7.5c-18 0.666992 -35.833 2.83398 -53.5 6.50098s-34.167 8.16699 -49.5 13.5c-42.667 17.333 -73 42.833 -91 76.5s-27 71.834 -27 114.501v0z" />
    <glyph glyph-name="T" unicode="T" horiz-adv-x="485" 
d="M250 0v590h-200v52h459v-52h-198v-590h-61v0z" />
    <glyph glyph-name="U" unicode="U" horiz-adv-x="614" 
d="M75 642h57.999v-404v-5v-5c0.666992 -4.66699 1 -9.5 1 -14.5s0.333008 -9.83301 1 -14.5c0.666992 -16.667 2.83398 -33 6.50098 -49s9.83398 -31 18.501 -45c15.333 -23.333 37.5 -41.333 66.5 -54s59.5 -19 91.5 -19h7.5h6.5c29.333 2 57.333 9.16699 84 21.5
s46.667 29.5 60 51.5c9.33301 14 15.666 29 18.999 45s5.66602 32.333 6.99902 49c0.666992 4.66699 1 9.5 1 14.5s0.333008 9.83301 1 14.5v5.5v4.5v404h58v-412v-4.5v-5.5c-0.666992 -31.333 -4.66699 -62 -12 -92s-22.666 -56.333 -45.999 -79
c-20 -20 -43 -34.667 -69 -44s-52.667 -15.333 -80 -18c-6 -0.666992 -12.167 -1.16699 -18.5 -1.5s-12.5 -0.5 -18.5 -0.5c-82 0 -143 21 -183 63s-60 102.667 -60 182v412v0z" />
    <glyph glyph-name="V" unicode="V" horiz-adv-x="545" 
d="M277 0l-222 642h60l193 -566l194 566h60l-222 -642h-63v0z" />
    <glyph glyph-name="W" unicode="W" horiz-adv-x="786" 
d="M209 0l-165 642h58l143 -553l141 553h73l139 -553l144 553h57l-169 -642h-64l-145 571l-149 -571h-63v0z" />
    <glyph glyph-name="X" unicode="X" horiz-adv-x="616" 
d="M68 0l214 331l-207 311h69l172 -263l170 263h70l-206 -313l222 -329h-71l-185 279l-178 -279h-70v0z" />
    <glyph glyph-name="Y" unicode="Y" horiz-adv-x="535" 
d="M284 0v282l-226 360h67l189 -303l188 303h69l-227 -360v-282h-60v0z" />
    <glyph glyph-name="Z" unicode="Z" horiz-adv-x="606" 
d="M75 0v55l397 535h-367v52h440v-50l-401 -539h407v-53h-476v0z" />
    <glyph glyph-name="bracketleft" unicode="[" horiz-adv-x="355" 
d="M293 -177h-162v819h162v-44h-108v-729h108v-46v0z" />
    <glyph glyph-name="backslash" unicode="\" horiz-adv-x="494" 
d="M335 -73l-238 733h42l240 -733h-44v0z" />
    <glyph glyph-name="bracketright" unicode="]" horiz-adv-x="353" 
d="M68 -177v46h109v729h-109v44h162v-819h-162v0z" />
    <glyph glyph-name="asciicircum" unicode="^" horiz-adv-x="425" 
d="M96 524l87 152h67l85 -152h-38l-81 115l-80 -115h-40v0z" />
    <glyph glyph-name="underscore" unicode="_" horiz-adv-x="454" 
d="M3 -173h446v-36h-446v36v0z" />
    <glyph glyph-name="grave" unicode="`" horiz-adv-x="243" 
d="M105 626h38v-242h-38v242v0z" />
    <glyph glyph-name="a" unicode="a" horiz-adv-x="514" 
d="M373 68c-16 -16 -36.168 -30.5039 -60.501 -43.5039s-49.5 -22.167 -75.5 -27.5c-8.66699 -2 -17 -3.5 -25 -4.5s-16 -1.5 -24 -1.5c-24.667 0 -48.167 5.33301 -70.5 16s-40.5 28.334 -54.5 53.001c-3.33301 6.66699 -6.16602 13.334 -8.49902 20.001
s-4.16602 13.334 -5.49902 20.001c-0.666992 3.33301 -1.16699 6.66602 -1.5 9.99902s-0.5 6.66602 -0.5 9.99902c0 24.667 6.83301 47.834 20.5 69.501s32.167 37.834 55.5 48.501c19.333 9.33301 39.833 16 61.5 20s43.5 7.33301 65.5 10
c2.66699 0.666992 5.33398 1 8.00098 1s5.33398 0.333008 8.00098 1l35 4c11.333 1.33301 22.666 3 33.999 5c13.333 2.66699 22.666 9.16699 27.999 19.5s8 21.5 8 33.5c0 3.33301 -0.166992 6.5 -0.5 9.5s-0.833008 6.16699 -1.5 9.5c-2 11.333 -5.5 22.166 -10.5 32.499
s-11.167 18.166 -18.5 23.499c-9.33301 6.66699 -20 11.834 -32 15.501s-24 6.16699 -36 7.5c-2.66699 0.666992 -5.5 1 -8.5 1h-9.5c-31.333 0 -60 -9 -86 -27s-40.333 -44 -43 -78h-54c2 46 20.667 81.833 56 107.5s74.333 39.834 117 42.501h6.5h7.5
c42 0 80.333 -11.667 115 -35s52 -58.666 52 -105.999v-247c0 -18.667 2.5 -31.5 7.5 -38.5s14.167 -10.5 27.5 -10.5c1.33301 0 2.66602 0.166992 3.99902 0.5s3 0.5 5 0.5h1h2c0.666992 0.666992 1.66699 1 3 1h3v-41h-6.5h-6.5c-4.66699 -0.666992 -9.16699 -1 -13.5 -1
h-12.5c-19.333 0 -35.5 4.16699 -48.5 12.5s-19.5 25.5 -19.5 51.5l2 5v0zM287.999 52.9961c37.333 16.667 60.333 38.1641 69 64.4971s13 55.833 13 88.5v37c-15.333 -4.66699 -30.833 -8.16699 -46.5 -10.5s-31.5 -4.5 -47.5 -6.5c-2 -0.666992 -3.83301 -1 -5.5 -1
s-3.5 -0.333008 -5.5 -1c-14.667 -2 -29.5 -4.16699 -44.5 -6.5s-29.5 -5.83301 -43.5 -10.5c-19.333 -5.33301 -36.666 -16.666 -51.999 -33.999s-23 -35.666 -23 -54.999c0 -3.33301 0.333008 -6.83301 1 -10.5s1.66699 -7.5 3 -11.5c2 -4.66699 4.66699 -9.5 8 -14.5
s7 -9.5 11 -13.5c9.33301 -9.33301 20.5 -16.666 33.5 -21.999s26.5 -8.33301 40.5 -9h4h4c3.33301 0 6.83301 0.166992 10.5 0.5s7.16699 0.5 10.5 0.5c11.333 1.33301 22.166 3.5 32.499 6.5s19.5 5.83301 27.5 8.5v0z" />
    <glyph glyph-name="b" unicode="b" horiz-adv-x="524" 
d="M57 0l-0.000976562 641.999h53v-260c18.667 31.333 41.334 54.666 68.001 69.999s58.667 23 96 23c70.667 0 122.334 -24.5 155.001 -73.5s49 -105.5 49 -169.5c0 -64.667 -16.833 -121 -50.5 -169s-85.834 -72 -156.501 -72l-7 -1
c-31.333 0.666992 -61 8.83398 -89 24.501s-49.667 37.834 -65 66.501v-81h-53v0zM420.999 229.999l-0.000976562 3.49902v2.5c-0.666992 46 -11.167 88.333 -31.5 127s-55.5 60.334 -105.5 65.001h-21c-53.333 0 -92.666 -19 -117.999 -57s-38 -82.667 -38 -134
c0 -0.666992 0.166992 -1.16699 0.5 -1.5s0.5 -0.833008 0.5 -1.5s0.166992 -1.16699 0.5 -1.5l0.5 -0.5c0 -50.667 12 -96 36 -136s64.333 -60 121 -60s96.667 19.833 120 59.5s35 84.5 35 134.5v0z" />
    <glyph glyph-name="c" unicode="c" horiz-adv-x="485" 
d="M386 160l53.0029 -0.00195312c-4.66699 -54.667 -25.834 -96.5 -63.501 -125.5s-78.5 -43.833 -122.5 -44.5h-1.5h-1.5h-7.5c-2.33301 0 -4.83301 0.333008 -7.5 1c-45.333 2.66699 -87.333 21.167 -126 55.5s-60 85.166 -64 152.499v9v8
c-0.666992 2.66699 -1 5.33398 -1 8.00098v8c0 78 19.333 136.667 58 176s81 61.333 127 66c3.33301 0 6.83301 0.166992 10.5 0.5s7.16699 0.5 10.5 0.5c44.667 0 85.667 -13.667 123 -41s57.333 -66.666 60 -117.999h-52c-5.33301 36 -20.333 63.5 -45 82.5
s-51 28.833 -79 29.5h-2h-2c-3.33301 0 -6.5 -0.166992 -9.5 -0.5s-6.16699 -0.5 -9.5 -0.5c-32.667 -4.66699 -62.667 -21.334 -90 -50.001s-42 -70 -44 -124v-5.5v-5.5c-0.666992 -2 -1 -4 -1 -6v-6v-11.5c0 -3.66699 0.333008 -7.5 1 -11.5
c3.33301 -42 16.166 -80.667 38.499 -116s57.166 -53.666 104.499 -54.999h1.5h0.5c0.666992 0 1.16699 -0.166992 1.5 -0.5s0.833008 -0.5 1.5 -0.5s1.33398 -0.166992 2.00098 -0.5l1 -0.5c37.333 0 67.666 12.333 90.999 37s38 54.334 44 89.001v0z" />
    <glyph glyph-name="d" unicode="d" horiz-adv-x="514" 
d="M464 642l0.00195312 -642h-54v79c-18.667 -28.667 -40.667 -50.5 -66 -65.5s-55.666 -22.833 -90.999 -23.5h-3c-66.667 0.666992 -117.334 25.5 -152.001 74.5s-52.667 102.833 -54 161.5v3.5v2.5v4v5c2 58 20.167 111.5 54.5 160.5s85.166 73.5 152.499 73.5h3
c33.333 0 63.666 -8 90.999 -24s49 -38.333 65 -67v258h54v0zM415.002 207l0.000976562 14.999c0 7.33301 -0.166992 14.833 -0.5 22.5s-1.16602 15.167 -2.49902 22.5c-4 36 -14.833 69.5 -32.5 100.5s-45.834 50.167 -84.501 57.5c-2 0 -4.16699 0.166992 -6.5 0.5
s-4.83301 0.5 -7.5 0.5c-0.666992 0 -1.33398 0.166992 -2.00098 0.5s-1.33398 0.5 -2.00098 0.5c-4 0 -8 0.166992 -12 0.5s-7.66699 0.5 -11 0.5c-50.667 0 -89 -19.167 -115 -57.5s-39 -83.5 -39 -135.5l2 -3c0 -50.667 11.833 -96 35.5 -136s63.834 -60 120.501 -60
c50 0 88 16.833 114 50.5s40.333 73.834 43 120.501v0z" />
    <glyph glyph-name="e" unicode="e" horiz-adv-x="504" 
d="M347 455c37.333 -18.667 63.6689 -45.668 79.002 -81.001s24.333 -72.333 27 -111c0 -5.33301 0.166992 -10.5 0.5 -15.5s0.5 -10.167 0.5 -15.5v-10h-345c0 -61.333 14.667 -107.666 44 -138.999s61.666 -48.333 96.999 -51h4h4h2h2
c29.333 0.666992 56.833 10.834 82.5 30.501s42.167 46.834 49.5 81.501h53c-6.66699 -48.667 -27.334 -86.167 -62.001 -112.5s-76 -39.833 -124 -40.5l-10 -1c-70.667 0.666992 -121.5 26 -152.5 76s-46.5 107 -46.5 171v5c0 2 0.333008 4 1 6v6v5
c0 4.66699 0.333008 9.5 1 14.5l2 15.5c4.66699 33.333 15.5 65.333 32.5 96s41.5 53.667 73.5 69c14 7.33301 28.833 12.666 44.5 15.999s31.5 5 47.5 5c5.33301 0 10.666 -0.166992 15.999 -0.5s10.666 -0.833008 15.999 -1.5c10.667 -2 21.334 -4.33301 32.001 -7
s20.334 -6.33398 29.001 -11.001v0zM109.003 263.999l290.001 -0.000976562c-3.33301 43.333 -14.833 81.333 -34.5 114s-54.834 49.334 -105.501 50.001h-6c-47.333 0 -82.833 -16.5 -106.5 -49.5s-36.167 -69.167 -37.5 -108.5v-3.5v-2.5v0z" />
    <glyph glyph-name="f" unicode="f" horiz-adv-x="233" 
d="M88 0l0.000976562 420.002h-67v44h67v7.5c0 2.33301 -0.333008 4.5 -1 6.5v4v3c0 4 -0.166992 7.66699 -0.5 11s-0.5 6.66602 -0.5 9.99902c0 39.333 5.33301 72.666 16 99.999s38.334 41 83.001 41h15c5.33301 0 11 -0.333008 17 -1
c1.33301 0 2.66602 -0.166992 3.99902 -0.5s2.66602 -0.5 3.99902 -0.5v-47h-22c-26.667 0 -44.167 -6 -52.5 -18s-12.5 -27.667 -12.5 -47c0 -4.66699 0.166992 -9.66699 0.5 -15s0.833008 -11 1.5 -17c0 -6 0.166992 -12.167 0.5 -18.5s0.5 -12.5 0.5 -18.5h84v-44h-84
v-420h-53v0z" />
    <glyph glyph-name="g" unicode="g" horiz-adv-x="514" 
d="M464 464l-0.000976562 -440.001v-10.5c0 -3.66699 -0.333008 -7.16699 -1 -10.5c-1.33301 -22.667 -5.5 -45.167 -12.5 -67.5s-18.833 -42.5 -35.5 -60.5c-15.333 -16.667 -35.333 -30.334 -60 -41.001s-50 -17.667 -76 -21c-6 -0.666992 -11.833 -1.16699 -17.5 -1.5
s-11.167 -0.5 -16.5 -0.5h-1.5h-1.5c-44 0.666992 -84.667 12.167 -122 34.5s-58 56.5 -62 102.5l57 -1c4.66699 -30.667 19.334 -52.667 44.001 -66s51 -20.333 79 -21h3.5h3.5c4 0 8 0.166992 12 0.5s7.66699 0.5 11 0.5c6 0.666992 12 1.5 18 2.5s11.667 1.83301 17 2.5
c51.333 12 82.333 36.167 93 72.5s16 74.5 16 114.5v2v2v22c-19.333 -30 -42.666 -52.333 -69.999 -67s-55 -22.667 -83 -24h-5h-4h-2h-1c-46 0.666992 -88.833 17.5 -128.5 50.5s-62.834 78.5 -69.501 136.5c0 2 -0.166992 4 -0.5 6s-0.833008 4 -1.5 6l-2 20
c-0.666992 6.66699 -1 13.334 -1 20.001v5.5v4.5c1.33301 54.667 15.333 105.334 42 152.001s70 74.667 130 84c6.66699 1.33301 13 2 19 2h18c34 0 64 -7.66699 90 -23s48.333 -38 67 -68v80h54v0zM292.999 424.999c-2 0 -4.16797 0.167969 -6.50098 0.500977
s-4.5 0.5 -6.5 0.5c-4.66699 0.666992 -9.16699 1.16699 -13.5 1.5s-8.5 0.5 -12.5 0.5c-50.667 0 -89 -19.333 -115 -58s-39 -83.667 -39 -135l2 -3c0 -49.333 12 -94.666 36 -135.999s64 -62 120 -62c56.667 0 97 20.333 121 61s36 85.667 36 135
c0 5.33301 -0.166992 10.666 -0.5 15.999s-0.833008 10.666 -1.5 15.999c-3.33301 36.667 -14.166 71 -32.499 103s-47.5 52 -87.5 60v0z" />
    <glyph glyph-name="h" unicode="h" horiz-adv-x="454" 
d="M41 0l0.000976562 642.001h55v-250c17.333 27.333 39.333 48 66 62s55.334 21 86.001 21h12c4 0 8 -0.333008 12 -1h6c2 0 4 -0.333008 6 -1c53.333 -8.66699 86.666 -28.334 99.999 -59.001s20 -67.667 20 -111v-303h-54v282c0 42 -5.33301 76.833 -16 104.5
s-42 41.5 -94 41.5c-46.667 0 -82.334 -14.833 -107.001 -44.5s-37 -66.167 -37 -109.5v-274h-55v0z" />
    <glyph glyph-name="i" unicode="i" horiz-adv-x="152" 
d="M52 0v464h53v-464h-53v0zM105 562h-53v80h53v-80v0z" />
    <glyph glyph-name="j" unicode="j" horiz-adv-x="162" 
d="M-15 -185v47h20c17.333 0.666992 30.5 4.5 39.5 11.5s13.5 21.833 13.5 44.5v546h54v-553l-127 -96v0zM112 642v-80h-54v80h54v0z" />
    <glyph glyph-name="k" unicode="k" horiz-adv-x="475" 
d="M57 0v642h53v-404l232 226h68l-175 -169l198 -295h-62l-173 259l-88 -84v-175h-53v0z" />
    <glyph glyph-name="l" unicode="l" horiz-adv-x="152" 
d="M52 0v642h53v-642h-53v0z" />
    <glyph glyph-name="m" unicode="m" horiz-adv-x="736" 
d="M52 0l-0.00292969 463.999h50v-77c17.333 28.667 38 50.5 62 65.5s52.667 22.5 86 22.5c31.333 0 59 -7.66699 83 -23s40.333 -38 49 -68c17.333 30 38.5 52.667 63.5 68s53.833 23 86.5 23c2 0 4.16699 -0.166992 6.5 -0.5s4.83301 -0.5 7.5 -0.5
c1.33301 0 2.5 -0.166992 3.5 -0.5s2.16699 -0.5 3.5 -0.5h4h4c44.667 -4.66699 75.834 -20.5 93.501 -47.5s26.5 -60.833 26.5 -101.5v-324h-55v319c0 0.666992 -0.166992 1.16699 -0.5 1.5s-0.5 0.833008 -0.5 1.5s-0.166992 1.16699 -0.5 1.5l-0.5 0.5
c0 34 -8 59.833 -24 77.5s-41 26.5 -75 26.5h-13c-36.667 -2.66699 -65.5 -17.5 -86.5 -44.5s-31.5 -58.167 -31.5 -93.5v-290h-54v314c0 32.667 -7.83301 59.5 -23.5 80.5s-40.167 31.5 -73.5 31.5h-16c-37.333 -2.66699 -66.666 -17.667 -87.999 -45
s-32.666 -58.666 -33.999 -93.999v-287h-53v0z" />
    <glyph glyph-name="n" unicode="n" horiz-adv-x="454" 
d="M41 0l0.00292969 463.999h51v-75c18 29.333 40.667 51 68 65s56.666 21 87.999 21h12c4 0 8 -0.333008 12 -1h6c2 0 4 -0.333008 6 -1c53.333 -8.66699 86.666 -28.667 99.999 -60s20 -68.666 20 -111.999v-301h-56v300c0 36.667 -6.5 67.167 -19.5 91.5
s-42.5 36.5 -88.5 36.5c-46.667 0 -82.334 -14.833 -107.001 -44.5s-37 -66.167 -37 -109.5v-274h-55v0z" />
    <glyph glyph-name="o" unicode="o" horiz-adv-x="524" 
d="M49 232c0 73.333 17.8311 132.167 53.498 176.5s87.5 66.5 155.5 66.5c4.66699 0 9.66699 -0.166992 15 -0.5s11 -0.833008 17 -1.5c2.66699 0 5.33398 -0.166992 8.00098 -0.5s5.33398 -0.5 8.00098 -0.5c59.333 -8 102 -35 128 -81s39.667 -95.667 41 -149v-4.5v-5.5
c0 -68.667 -17.333 -126 -52 -172s-88.667 -69 -162 -69c-74 0 -127.833 23 -161.5 69s-50.5 103.333 -50.5 172v0zM414.998 185.001c0.666992 3.33301 1.16797 7.00195 1.50098 11.002s0.5 8 0.5 12v11v11v11.5c0 3.66699 -0.333008 7.16699 -1 10.5
c-2.66699 42 -14.167 80.833 -34.5 116.5s-54.5 55.5 -102.5 59.5h-18c-53.333 0 -92.833 -19.333 -118.5 -58s-38.5 -83 -38.5 -133v-1.5c0 -0.333008 0.333008 -0.833008 1 -1.5v-1.5v-0.5v-2v-1c-0.666992 -0.666992 -1 -1.33398 -1 -2.00098v-2
c0 -48.667 12.5 -92.334 37.5 -131.001s64.833 -58 119.5 -58c43.333 0 78.666 14.167 105.999 42.5s43.333 63.833 48 106.5v0z" />
    <glyph glyph-name="p" unicode="p" horiz-adv-x="524" 
d="M53 -185v649.001h56v-83c18.667 31.333 40.667 54.833 66 70.5s57.333 23.5 96 23.5c70.667 0 122.334 -24.333 155.001 -73s49 -105.334 49 -170.001c0 -66 -16.5 -122.667 -49.5 -170s-85.833 -71.333 -158.5 -72c-36.667 0.666992 -67.834 8.5 -93.501 23.5
s-47.167 37.5 -64.5 67.5v-266h-56v0zM418 206.001l0.000976562 23.002c0 5.33301 -0.166992 10.666 -0.5 15.999s-0.5 10.333 -0.5 15c-3.33301 38 -13.833 73.167 -31.5 105.5s-47.167 52.166 -88.5 59.499c-2 0 -4.16699 0.166992 -6.5 0.5s-4.5 0.5 -6.5 0.5
c-4.66699 0.666992 -9.16699 1.16699 -13.5 1.5s-8.5 0.5 -12.5 0.5c-52 0 -90.5 -19.5 -115.5 -58.5s-37.5 -84.833 -37.5 -137.5c1.33301 -50.667 13.833 -96 37.5 -136s63.834 -60 120.501 -60c49.333 0 87.166 16.667 113.499 50s40.166 73.333 41.499 120v0z" />
    <glyph glyph-name="q" unicode="q" horiz-adv-x="514" 
d="M462 464l0.000976562 -649.001h-54v269c-18.667 -31.333 -41 -54.666 -67 -69.999s-56.333 -23 -91 -23l-20 -1c-61.333 4.66699 -107.833 30.667 -139.5 78s-48.167 99.333 -49.5 156v2.5v3.5v4.5v4.5c2 57.333 18.833 110 50.5 158s78.5 74 140.5 78h19
c35.333 0 65.666 -7.66699 90.999 -23s47.333 -38 66 -68v80h54v0zM413.001 231.999c0 5.33301 -0.166016 10.668 -0.499023 16.001s-0.5 10.666 -0.5 15.999c-4 36 -15 69.833 -33 101.5s-47 51.5 -87 59.5c-2 0 -4.16699 0.166992 -6.5 0.5s-4.83301 0.5 -7.5 0.5
c-0.666992 0 -1.33398 0.166992 -2.00098 0.5s-1.33398 0.5 -2.00098 0.5c-4 0 -8 0.166992 -12 0.5s-7.66699 0.5 -11 0.5c-50 0 -87.833 -19.167 -113.5 -57.5s-38.5 -83.5 -38.5 -135.5l1 -3c0 -50.667 11.833 -96 35.5 -136s63.834 -60 120.501 -60
c57.333 0 97.833 20 121.5 60s35.5 85.333 35.5 136v0z" />
    <glyph glyph-name="r" unicode="r" horiz-adv-x="284" 
d="M57 0v464.001h52v-82c15.333 33.333 35 57.166 59 71.499s54 21.5 90 21.5v-55c-52.667 0 -90 -15 -112 -45s-33 -69.667 -33 -119v-256h-56v0z" />
    <glyph glyph-name="s" unicode="s" horiz-adv-x="455" 
d="M49 146l52.999 0.00488281c1.33301 -35.333 15.666 -62.5 42.999 -81.5s57.333 -28.5 90 -28.5c4.66699 0 9.33398 0.166992 14.001 0.5s9.33398 1.16602 14.001 2.49902c6.66699 1.33301 13.334 3 20.001 5s12.667 4 18 6c15.333 6 27.666 15.667 36.999 29
s14 27.666 14 42.999c0 2 -0.166992 4.33301 -0.5 7s-0.833008 5.33398 -1.5 8.00098c0 2 -0.166992 3.83301 -0.5 5.5s-0.833008 3.16699 -1.5 4.5c-5.33301 15.333 -15.333 26.833 -30 34.5s-30.334 13.5 -47.001 17.5l-17.5 4c-5.66699 1.33301 -11.167 2.33301 -16.5 3
c-2 0.666992 -4 1.16699 -6 1.5s-4 0.833008 -6 1.5c-7.33301 1.33301 -14.666 2.83301 -21.999 4.5s-14.666 3.5 -21.999 5.5c-24.667 6.66699 -48.167 16.334 -70.5 29.001s-37.5 32 -45.5 58c0 1.33301 -0.166992 2.5 -0.5 3.5s-0.833008 2.16699 -1.5 3.5
c0 1.33301 -0.166992 2.33301 -0.5 3s-0.5 1.33398 -0.5 2.00098c-1.33301 4 -2.33301 8.16699 -3 12.5s-1 8.16602 -1 11.499c0 22 6 43 18 63s28.333 35.667 49 47c9.33301 5.33301 19.5 9.83301 30.5 13.5s22.5 6.5 34.5 8.5c4.66699 0.666992 9.66699 1.16699 15 1.5
s10.333 0.5 15 0.5h1.5h1.5c41.333 -0.666992 79.333 -13.5 114 -38.5s53.667 -61.833 57 -110.5h-55c-2 21.333 -8.5 40.333 -19.5 57s-27.167 28.667 -48.5 36c-4.66699 1.33301 -9.83398 2.5 -15.501 3.5s-11.5 1.5 -17.5 1.5c-2.66699 0.666992 -5.16699 1 -7.5 1h-6.5
c-3.33301 0 -6.83301 -0.166992 -10.5 -0.5s-7.5 -0.5 -11.5 -0.5c-23.333 -3.33301 -44.5 -11.166 -63.5 -23.499s-28.5 -28.833 -28.5 -49.5c0 -4.66699 0.666992 -9.83398 2 -15.501s3.33301 -11.5 6 -17.5c6 -16 17.333 -28 34 -36s34.667 -14.333 54 -19
c7.33301 -1.33301 14.5 -2.83301 21.5 -4.5s13.833 -3.16699 20.5 -4.5c3.33301 -0.666992 6.5 -1.33398 9.5 -2.00098s5.83301 -1.33398 8.5 -2.00098l14.5 -4l15.5 -4c23.333 -6.66699 45.333 -16.5 66 -29.5s34 -32.167 40 -57.5
c0.666992 -2.66699 1.16699 -5.33398 1.5 -8.00098s0.5 -5 0.5 -7c0.666992 -2.66699 1 -5.33398 1 -8.00098v-8c0 -20.667 -4.5 -40.167 -13.5 -58.5s-22.167 -33.5 -39.5 -45.5c-11.333 -6.66699 -23.833 -12.334 -37.5 -17.001s-27.5 -8 -41.5 -10
c-6.66699 -1.33301 -13.5 -2.33301 -20.5 -3s-13.833 -1 -20.5 -1c-45.333 0 -87 13 -125 39s-57.333 65 -58 117v0z" />
    <glyph glyph-name="t" unicode="t" horiz-adv-x="243" 
d="M138 596l0.00195312 -132h86v-44h-86v-337c0 -19.333 2.66699 -32.833 8 -40.5s13.333 -11.5 24 -11.5c5.33301 0 12 1 20 3l25 6h1.5h0.5c1.33301 0.666992 2.5 1.16699 3.5 1.5s2.16699 0.5 3.5 0.5v-42c-6 -0.666992 -12 -1.66699 -18 -3
s-12.333 -2.66602 -19 -3.99902c-4.66699 -0.666992 -9.33398 -1.16699 -14.001 -1.5s-9.33398 -0.5 -14.001 -0.5c-6 0 -11.833 0.5 -17.5 1.5s-11.167 2.16699 -16.5 3.5c-18.667 5.33301 -30.167 15.166 -34.5 29.499s-6.5 29.833 -6.5 46.5v5.5v5.5v337h-63v44h63v132
h54v0z" />
    <glyph glyph-name="u" unicode="u" horiz-adv-x="465" 
d="M415 464l0.00292969 -464.003h-52v75c-14 -22 -33.5 -40.167 -58.5 -54.5s-50.833 -23.5 -77.5 -27.5c-5.33301 -1.33301 -10.5 -2.16602 -15.5 -2.49902s-10.167 -0.5 -15.5 -0.5c-3.33301 0 -6.83301 0.166992 -10.5 0.5s-7.16699 0.5 -10.5 0.5
c-16.667 2 -33 6.66699 -49 14s-30 17.666 -42 30.999c-15.333 16 -24.833 34.167 -28.5 54.5s-5.5 40.833 -5.5 61.5v312h54v-299v-14.5c0 -5 0.333008 -9.83301 1 -14.5c0.666992 -12.667 2.66699 -25.167 6 -37.5s9.66602 -23.166 18.999 -32.499
c9.33301 -8.66699 19.666 -15.167 30.999 -19.5s23 -7.16602 35 -8.49902c2.66699 -0.666992 5.33398 -1 8.00098 -1h8c3.33301 0 6.5 0.166992 9.5 0.5s6.16699 0.5 9.5 0.5c3.33301 0.666992 6.66602 1.16699 9.99902 1.5s6.33301 0.833008 9 1.5
c37.333 5.33301 65.166 22.833 83.499 52.5s27.5 61.834 27.5 96.501v274h54v0z" />
    <glyph glyph-name="v" unicode="v" horiz-adv-x="473" 
d="M211 0l-175 464h58l147 -398l146 398h55l-173 -464h-58v0z" />
    <glyph glyph-name="w" unicode="w" horiz-adv-x="695" 
d="M183 0l-144 464h53l120 -388l106 388h60l105 -388l118 388h54l-144 -464h-57l-109 387l-105 -387h-57v0z" />
    <glyph glyph-name="x" unicode="x" horiz-adv-x="473" 
d="M39 0l162 238l-156 226h67l121 -185l120 185h65l-152 -226l168 -238h-66l-133 198l-133 -198h-63v0z" />
    <glyph glyph-name="y" unicode="y" horiz-adv-x="454" 
d="M227 -89c-11.333 -32 -27.168 -56.333 -47.501 -73s-45.166 -25 -74.499 -25c-3.33301 0 -7.33301 0.166992 -12 0.5s-9.33398 0.833008 -14.001 1.5h-2.5h-3.5c-1.33301 0 -2.66602 0.166992 -3.99902 0.5s-2.66602 0.5 -3.99902 0.5v49
c2 0.666992 4.16699 0.833984 6.5 0.500977s4.83301 -0.833008 7.5 -1.5h2h2c2.66699 -0.666992 5.5 -1.16699 8.5 -1.5s5.83301 -0.5 8.5 -0.5s5.66699 0.166992 9 0.5s6.66602 0.833008 9.99902 1.5c5.33301 0.666992 10.333 2 15 4s9 4.66699 13 8
c8 6.66699 15.167 16.167 21.5 28.5s11.833 25.5 16.5 39.5c4 10 7.5 19.667 10.5 29s5.83301 17.666 8.5 24.999l-180 466h57l149 -396l148 396h55l-206 -553v0z" />
    <glyph glyph-name="z" unicode="z" horiz-adv-x="464" 
d="M47 0v45l298 375h-283v44h348v-47l-295 -368h308v-49h-376v0z" />
    <glyph glyph-name="braceleft" unicode="{" horiz-adv-x="464" 
d="M412 643v-38.001h-12c-40.667 0 -68 -7.66699 -82 -23s-21 -45.666 -21 -90.999v-105c0 -38.667 -4.16699 -70.667 -12.5 -96s-32.5 -44.666 -72.5 -57.999c38 -12.667 61.667 -32 71 -58s14 -58 14 -96v-104c0 -48.667 7.5 -79.834 22.5 -93.501
s45.833 -20.5 92.5 -20.5v-38c-66.667 0.666992 -110.167 11.167 -130.5 31.5s-30.5 64.5 -30.5 132.5v102c0 51.333 -9.83301 84.833 -29.5 100.5s-53.5 23.5 -101.5 23.5v39c48 0 81.833 8.16699 101.5 24.5s29.5 49.833 29.5 100.5v104c0 68 10.167 112 30.5 132
s63.833 30.333 130.5 31v0z" />
    <glyph glyph-name="bar" unicode="|" horiz-adv-x="233" 
d="M115 682h39v-891h-39v891v0z" />
    <glyph glyph-name="braceright" unicode="}" horiz-adv-x="465" 
d="M50 643c66.667 -0.666992 110.167 -11 130.5 -31s30.5 -64 30.5 -132v-104c0 -50.667 10.167 -84.167 30.5 -100.5s53.833 -24.5 100.5 -24.5v-39c-46.667 0 -80.167 -7.83301 -100.5 -23.5s-30.5 -49.167 -30.5 -100.5v-103c0 -68 -10.167 -112 -30.5 -132
s-63.833 -30 -130.5 -30v36c48 0.666992 79.167 7.83398 93.5 21.501s21.5 45.167 21.5 94.5v103c1.33301 39.333 6.16602 71.333 14.499 96s32.166 44 71.499 58c-39.333 13.333 -63.166 32.666 -71.499 57.999s-13.166 57.333 -14.499 96v105
c0 48 -7.33301 79.167 -22 93.5s-45.667 21.5 -93 21.5v37v0z" />
    <glyph glyph-name="asciitilde" unicode="~" horiz-adv-x="415" 
d="M332 639c-8 -26.667 -17.9971 -45.832 -29.9971 -57.499s-24 -18.834 -36 -21.501c-2.66699 0 -5 -0.166992 -7 -0.5s-4 -0.5 -6 -0.5c-6 0 -12.333 0.666992 -19 2s-13.334 3 -20.001 5c-2 0.666992 -3.83301 1.16699 -5.5 1.5s-3.16699 0.833008 -4.5 1.5
c-8.66699 2.66699 -16.834 5 -24.501 7s-15.167 3 -22.5 3c-8 0 -15.667 -2.16699 -23 -6.5s-13.666 -12.166 -18.999 -23.499h-34c6.66699 23.333 16.667 42.5 30 57.5s30.333 22.5 51 22.5c4 0 8.5 -0.5 13.5 -1.5s10.167 -2.16699 15.5 -3.5
c1.33301 0 2.66602 -0.166992 3.99902 -0.5s2.66602 -0.833008 3.99902 -1.5c2.66699 -0.666992 5.5 -1.5 8.5 -2.5s5.83301 -2.16699 8.5 -3.5c6.66699 -2.66699 13 -5 19 -7s12 -3 18 -3c8 0 15.833 2.66699 23.5 8s14.5 13.666 20.5 24.999h35v0z" />
    <glyph glyph-name="space" 
 />
    <glyph glyph-name="F" 
 />
    <glyph glyph-name="asciitilde" 
 />
    <glyph glyph-name="D" 
 />
    <glyph glyph-name="N" 
 />
    <glyph glyph-name="bullet" 
 />
    <glyph glyph-name="guilsinglleft" 
 />
    <glyph glyph-name="Ydieresis" 
 />
    <glyph glyph-name="tilde" 
 />
    <glyph glyph-name="greater" unicode="&#xa0;" 
 />
    <glyph glyph-name="Z" unicode="&#xa1;" 
 />
    <glyph glyph-name="slash" unicode="&#xa2;" 
 />
    <glyph glyph-name="endash" unicode="&#xa3;" 
 />
    <glyph glyph-name="quotedblleft" unicode="&#xa4;" 
 />
    <glyph glyph-name="emdash" unicode="&#xa5;" 
 />
    <glyph glyph-name="circumflex" unicode="&#xa6;" 
 />
    <glyph glyph-name="scaron" unicode="&#xa7;" horiz-adv-x="483" 
d="M99 63c2.66699 -1.33301 5.16309 -2.49902 7.49609 -3.49902s4.83301 -2.16699 7.5 -3.5c18.667 -7.33301 36.834 -12.5 54.501 -15.5s32.834 -4.5 45.501 -4.5c30.667 0 55.667 6 75 18s32.666 25.333 39.999 40c2 4 3.5 8 4.5 12s1.5 8 1.5 12
c0 20 -9.66699 35.167 -29 45.5s-41.666 19.833 -66.999 28.5l-13 4.5l-13 4.5c-29.333 10 -56.5 22.667 -81.5 38s-38.5 38.333 -40.5 69c0 5.33301 0.5 10.5 1.5 15.5s2.5 10.167 4.5 15.5c6 16.667 16.5 32.834 31.5 48.501s33.833 28.5 56.5 38.5l-12.5 8l-12.5 8
c-15.333 10 -29.333 22.5 -42 37.5s-19 34.5 -19 58.5c0 28.667 9.16699 52.667 27.5 72s39.833 32.666 64.5 39.999c6.66699 1.33301 14.167 2.5 22.5 3.5s17.166 1.5 26.499 1.5c3.33301 0.666992 6.83301 1 10.5 1h10.5h4.5h4.5
c19.333 -0.666992 37.833 -2.16699 55.5 -4.5s30.834 -5.5 39.501 -9.5v-55c-11.333 3.33301 -22.5 6.33301 -33.5 9s-21.833 4.66699 -32.5 6c-4 0 -7.83301 0.166992 -11.5 0.5s-7.16699 0.5 -10.5 0.5h-15.5c-5.66699 0 -11.834 -0.666992 -18.501 -2
c-24.667 -2.66699 -43.667 -9.83398 -57 -21.501s-20.666 -24.167 -21.999 -37.5v-2v-2c1.33301 -19.333 11.333 -34.666 30 -45.999s40.334 -21.666 65.001 -30.999l10 -4l10 -4c28.667 -12 55 -25.833 79 -41.5s36 -38.834 36 -69.501c0 -20 -5.66699 -36.167 -17 -48.5
s-23.666 -22.833 -36.999 -31.5c-7.33301 -4.66699 -14.5 -8.83398 -21.5 -12.501s-13.167 -7.5 -18.5 -11.5c5.33301 -3.33301 11.5 -7 18.5 -11s13.833 -8.33301 20.5 -13c15.333 -10 29.333 -23 42 -39s19 -37 19 -63c0 -32 -11.167 -57.833 -33.5 -77.5
s-46.833 -33.5 -73.5 -41.5c-11.333 -3.33301 -22.333 -5.83301 -33 -7.5s-20.667 -2.5 -30 -2.5c-26 0 -49.833 1.66699 -71.5 5s-41.5 8 -59.5 14v61v0zM249.996 253.001c3.33301 4.66699 7.66699 8.66406 13 11.9971l16 10c1.33301 0.666992 2.5 1.33398 3.5 2.00098
s2.16699 1.33398 3.5 2.00098c10.667 6.66699 20.5 14 29.5 22s13.5 19.333 13.5 34c0 10 -3.83301 18.333 -11.5 25s-17.5 12.667 -29.5 18c-8 4 -16.833 8 -26.5 12s-19.167 8.33301 -28.5 13l-1.5 1.5c-0.333008 0.333008 -0.833008 0.5 -1.5 0.5
c-26 -10.667 -44.833 -22.5 -56.5 -35.5s-17.5 -26.5 -17.5 -40.5c0 -16 6.66699 -29.167 20 -39.5s32 -20.166 56 -29.499c2.66699 -1.33301 5.5 -2.5 8.5 -3.5s6.16699 -2.16699 9.5 -3.5v0z" />
    <glyph glyph-name="H" unicode="&#xa8;" 
 />
    <glyph glyph-name="I" unicode="&#xa9;" horiz-adv-x="806" 
d="M407 -11l-13.001 -0.00292969c-100 0.666992 -181.5 33.834 -244.5 99.501s-94.5 147.834 -94.5 246.501c3.33301 98.667 40 176.834 110 234.501s148.333 86.5 235 86.5h10c3.33301 0 6.33301 -0.333008 9 -1c82.667 -4.66699 158.334 -37 227.001 -97
s103 -134.667 103 -224v-11c-3.33301 -98.667 -34.833 -178.167 -94.5 -238.5s-142.167 -91.833 -247.5 -94.5v-1zM111.999 334.997c0 -84 26.3311 -153.833 78.998 -209.5s122.334 -83.5 209.001 -83.5c87.333 0 157.5 24.667 210.5 74s79.5 118.333 79.5 207
c0 87.333 -28.167 155.5 -84.5 204.5s-124.833 73.5 -205.5 73.5c-79.333 0 -147.166 -26.667 -203.499 -80s-84.5 -115.333 -84.5 -186v0zM524.997 383.997c-4 27.333 -16.5 48.1689 -37.5 62.502s-47.833 21.5 -80.5 21.5c-35.333 0 -62.5 -11.167 -81.5 -33.5
s-30.833 -47.166 -35.5 -74.499c-1.33301 -5.33301 -2.16602 -10.5 -2.49902 -15.5s-0.5 -10.167 -0.5 -15.5c0 -42 12.833 -78.167 38.5 -108.5s57.5 -45.5 95.5 -45.5c29.333 0 53 9 71 27s29 39.333 33 64h57c-2.66699 -40.667 -17 -71.834 -43 -93.501
s-54 -35.834 -84 -42.501c-7.33301 -1.33301 -14.166 -2.33301 -20.499 -3s-12.833 -1 -19.5 -1c-8.66699 0 -17.834 0.666992 -27.501 2s-19.167 3.66602 -28.5 6.99902c-32.667 10.667 -62.834 31.5 -90.501 62.5s-41.5 74.833 -41.5 131.5c0 52 11.333 91.5 34 118.5
s47.667 45.833 75 56.5c12.667 4.66699 25.167 8 37.5 10s23.5 3 33.5 3c47.333 0 87.5 -10.667 120.5 -32s51.167 -55 54.5 -101h-57v0z" />
    <glyph glyph-name="J" unicode="&#xaa;" 
 />
    <glyph glyph-name="ampersand" unicode="&#xab;" horiz-adv-x="394" 
d="M45 238l101 174h52l-88 -174l81 -175h-45l-101 175v0zM211 238l100 174h50l-85 -174l79 -175h-44l-100 175v0z" />
    <glyph glyph-name="quotesingle" unicode="&#xac;" 
 />
    <glyph glyph-name="daggerdbl" unicode="&#xad;" 
 />
    <glyph glyph-name="dagger" unicode="&#xae;" horiz-adv-x="806" 
d="M55 335c3.33301 98.667 39.999 176.831 109.999 234.498s148.333 86.5 235 86.5h10c3.33301 0 6.33301 -0.333008 9 -1c82.667 -4.66699 158.334 -37 227.001 -97s103 -134.667 103 -224v-11c-3.33301 -98.667 -34.833 -178.167 -94.5 -238.5
s-142.167 -91.833 -247.5 -94.5l-13 -1c-100 0.666992 -181.5 33.834 -244.5 99.501s-94.5 147.834 -94.5 246.501v0zM111.999 334.997c0 -84 26.3311 -153.833 78.998 -209.5s122.334 -83.5 209.001 -83.5c87.333 0 157.5 24.667 210.5 74s79.5 118.333 79.5 207
c0 87.333 -28.167 155.5 -84.5 204.5s-124.833 73.5 -205.5 73.5c-79.333 0 -147.166 -26.667 -203.499 -80s-84.5 -115.333 -84.5 -186v0zM420.997 516.997c48 0 88.167 -6 120.5 -18s48.5 -41 48.5 -87c0 -36 -11.667 -62.833 -35 -80.5s-49 -27.5 -77 -29.5
c-2 -0.666992 -4.16699 -1 -6.5 -1h-6.5l117 -168h-65l-110 168h-76v-168h-59v384h149v0zM443.997 467.997h-113v-118h113c33.333 0 56.333 5.16699 69 15.5s19 25.833 19 46.5c0 25.333 -8.16699 41 -24.5 47s-37.5 9 -63.5 9v0z" />
    <glyph glyph-name="macron" unicode="&#xaf;" 
 />
    <glyph glyph-name="zero" unicode="&#xb0;" horiz-adv-x="363" 
d="M102 580c0 21.333 6.83301 39.333 20.5 54s32.834 22 57.501 22c25.333 0 46 -6.5 62 -19.5s24 -31.833 24 -56.5c0 -27.333 -8 -47.833 -24 -61.5s-36.667 -20.5 -62 -20.5c-24.667 0 -43.834 7.66699 -57.501 23s-20.5 35 -20.5 59v0zM180 532
c18 0 30.833 4.66992 38.5 14.0029s11.5 20.666 11.5 33.999c0 14 -4.66699 24.5 -14 31.5s-21.333 10.5 -36 10.5c-14 0 -24.5 -4.33301 -31.5 -13s-10.5 -18.334 -10.5 -29.001v-6c0 -2 0.333008 -4 1 -6c1.33301 -8.66699 5 -16.834 11 -24.501s16 -11.5 30 -11.5v0z" />
    <glyph glyph-name="at" unicode="&#xb1;" 
 />
    <glyph glyph-name="P" unicode="&#xb2;" 
 />
    <glyph glyph-name="S" unicode="&#xb3;" 
 />
    <glyph glyph-name="T" unicode="&#xb4;" 
 />
    <glyph glyph-name="U" unicode="&#xb5;" 
 />
    <glyph glyph-name="V" unicode="&#xb6;" horiz-adv-x="605" 
d="M420 549l-100.999 0.000976562v-669h-56v399c-46.667 0 -86.5 16.5 -119.5 49.5s-49.5 72.167 -49.5 117.5c0 4.66699 0.166992 9.5 0.5 14.5s1.16602 9.83301 2.49902 14.5c6 31.333 22.667 60.166 50 86.499s66 39.5 116 39.5h218v-721h-61v669v0z" />
    <glyph glyph-name="quoteleft" unicode="&#xb8;" 
 />
    <glyph glyph-name="one" unicode="&#xb9;" 
 />
    <glyph glyph-name="G" unicode="&#xba;" 
 />
    <glyph glyph-name="bracketleft" unicode="&#xbb;" 
 />
    <glyph glyph-name="w" unicode="&#xbc;" 
 />
    <glyph glyph-name="bracketright" unicode="&#xbd;" 
 />
    <glyph glyph-name="R" unicode="&#xbe;" 
 />
    <glyph glyph-name="underscore" unicode="&#xbf;" 
 />
    <glyph glyph-name="grave" unicode="&#xc0;" horiz-adv-x="595" 
d="M24 0l243 642h72l243 -642h-62l-73 198h-288l-73 -198h-62v0zM428 250l-125 330l-125 -330h250v0z" />
    <glyph glyph-name="grave" unicode="&#x410;" horiz-adv-x="595" 
d="M24 0l243 642h72l243 -642h-62l-73 198h-288l-73 -198h-62v0zM428 250l-125 330l-125 -330h250v0z" />
    <glyph glyph-name="a" unicode="&#xc1;" horiz-adv-x="585" 
d="M138 590l-0.000976562 -231.997h138h27.5c9 0 18.167 -0.333008 27.5 -1c40 -2.66699 78 -10.834 114 -24.501s63.333 -40.834 82 -81.501c3.33301 -7.33301 6 -15.333 8 -24s3.33301 -17.667 4 -27c0.666992 -4.66699 1.16699 -9.16699 1.5 -13.5
s0.5 -8.83301 0.5 -13.5c0 -4 -0.166992 -8.16699 -0.5 -12.5s-0.833008 -8.5 -1.5 -12.5l-2 -12.5l-2 -12.5c-14.667 -54 -42.167 -87.833 -82.5 -101.5s-83.166 -20.834 -128.499 -21.501h-9.5h-9.5h-226v642h394v-52h-335v0zM310.999 53.0029c45.333 0 85 6.66699 119 20
s51 47.333 51 102c0 52 -16.5 87.167 -49.5 105.5s-72.167 27.5 -117.5 27.5h-176v-255h173v0z" />
    <glyph glyph-name="a" unicode="&#x411;" horiz-adv-x="585" 
d="M138 590l-0.000976562 -231.997h138h27.5c9 0 18.167 -0.333008 27.5 -1c40 -2.66699 78 -10.834 114 -24.501s63.333 -40.834 82 -81.501c3.33301 -7.33301 6 -15.333 8 -24s3.33301 -17.667 4 -27c0.666992 -4.66699 1.16699 -9.16699 1.5 -13.5
s0.5 -8.83301 0.5 -13.5c0 -4 -0.166992 -8.16699 -0.5 -12.5s-0.833008 -8.5 -1.5 -12.5l-2 -12.5l-2 -12.5c-14.667 -54 -42.167 -87.833 -82.5 -101.5s-83.166 -20.834 -128.499 -21.501h-9.5h-9.5h-226v642h394v-52h-335v0zM310.999 53.0029c45.333 0 85 6.66699 119 20
s51 47.333 51 102c0 52 -16.5 87.167 -49.5 105.5s-72.167 27.5 -117.5 27.5h-176v-255h173v0z" />
    <glyph glyph-name="b" unicode="&#xc2;" horiz-adv-x="585" 
d="M79 0v642.003h213h9.5h8.5c47.333 -2 91.166 -13.167 131.499 -33.5s63.833 -57.833 70.5 -112.5v-13c0 -31.333 -8.5 -59.833 -25.5 -85.5s-40.167 -44.834 -69.5 -57.501c38.667 -10.667 69 -31.834 91 -63.501s33 -66.167 33 -103.5
c0 -4 -0.166992 -8.16699 -0.5 -12.5s-0.833008 -8.5 -1.5 -12.5l-2 -12.5l-2 -12.5c-14.667 -54 -42.167 -87.833 -82.5 -101.5s-83.166 -20.834 -128.499 -21.501h-9.5h-9.5h-226v0zM138 308.003v-255h173c45.333 0 85 6.66699 119 20s51 47.333 51 102
c0 52 -16.5 87.167 -49.5 105.5s-72.167 27.5 -117.5 27.5h-176v0zM280 590.003h-141.999v-232h138h10h10c39.333 0.666992 75.166 7.66699 107.499 21s48.5 45.333 48.5 96c0 43.333 -15 73.333 -45 90s-72.333 25 -127 25v0z" />
    <glyph glyph-name="b" unicode="&#x412;" horiz-adv-x="585" 
d="M79 0v642.003h213h9.5h8.5c47.333 -2 91.166 -13.167 131.499 -33.5s63.833 -57.833 70.5 -112.5v-13c0 -31.333 -8.5 -59.833 -25.5 -85.5s-40.167 -44.834 -69.5 -57.501c38.667 -10.667 69 -31.834 91 -63.501s33 -66.167 33 -103.5
c0 -4 -0.166992 -8.16699 -0.5 -12.5s-0.833008 -8.5 -1.5 -12.5l-2 -12.5l-2 -12.5c-14.667 -54 -42.167 -87.833 -82.5 -101.5s-83.166 -20.834 -128.499 -21.501h-9.5h-9.5h-226v0zM138 308.003v-255h173c45.333 0 85 6.66699 119 20s51 47.333 51 102
c0 52 -16.5 87.167 -49.5 105.5s-72.167 27.5 -117.5 27.5h-176v0zM280 590.003h-141.999v-232h138h10h10c39.333 0.666992 75.166 7.66699 107.499 21s48.5 45.333 48.5 96c0 43.333 -15 73.333 -45 90s-72.333 25 -127 25v0z" />
    <glyph glyph-name="c" unicode="&#xc3;" horiz-adv-x="413" 
d="M79 0v642h367v-52h-308v-590h-59v0z" />
    <glyph glyph-name="c" unicode="&#x413;" horiz-adv-x="413" 
d="M79 0v642h367v-52h-308v-590h-59v0z" />
    <glyph glyph-name="d" unicode="&#xc4;" horiz-adv-x="666" 
d="M84 52c5.33301 12 10 24.999 14 38.999s7.33301 28 10 42c2.66699 12 4.66699 24.167 6 36.5s2.66602 23.833 3.99902 34.5c3.33301 28.667 5.83301 61.834 7.5 99.501s2.83398 76.5 3.50098 116.5c0.666992 16 1 31.833 1 47.5v46.5v128h431v-590h50v-198h-60v146h-447
v-146h-59v198h39v0zM178 193.999c-0.666992 -10 -1.83203 -21.1689 -3.49902 -33.502s-3.83398 -25.166 -6.50098 -38.499c-2.66699 -12.667 -5.5 -25.167 -8.5 -37.5s-6.5 -23.166 -10.5 -32.499h352v536h-313v-136v-42.5c0 -14.333 -0.333008 -28.5 -1 -42.5
c-0.666992 -28 -1.66699 -56.333 -3 -85s-3.33301 -58 -6 -88v0z" />
    <glyph glyph-name="d" unicode="&#x414;" horiz-adv-x="666" 
d="M84 52c5.33301 12 10 24.999 14 38.999s7.33301 28 10 42c2.66699 12 4.66699 24.167 6 36.5s2.66602 23.833 3.99902 34.5c3.33301 28.667 5.83301 61.834 7.5 99.501s2.83398 76.5 3.50098 116.5c0.666992 16 1 31.833 1 47.5v46.5v128h431v-590h50v-198h-60v146h-447
v-146h-59v198h39v0zM178 193.999c-0.666992 -10 -1.83203 -21.1689 -3.49902 -33.502s-3.83398 -25.166 -6.50098 -38.499c-2.66699 -12.667 -5.5 -25.167 -8.5 -37.5s-6.5 -23.166 -10.5 -32.499h352v536h-313v-136v-42.5c0 -14.333 -0.333008 -28.5 -1 -42.5
c-0.666992 -28 -1.66699 -56.333 -3 -85s-3.33301 -58 -6 -88v0z" />
    <glyph glyph-name="e" unicode="&#xc5;" horiz-adv-x="566" 
d="M86 0v642h420v-52h-362v-233h331v-52h-331v-252h371v-53h-429v0z" />
    <glyph glyph-name="e" unicode="&#x415;" horiz-adv-x="566" 
d="M86 0v642h420v-52h-362v-233h331v-52h-331v-252h371v-53h-429v0z" />
    <glyph glyph-name="f" unicode="&#xc6;" horiz-adv-x="827" 
d="M447 642v-268l234 268h73l-235 -266l262 -376h-69l-234 337l-31 -34v-303h-58v303l-31 34l-233 -337h-70l263 376l-235 266h73l233 -268v268h58v0z" />
    <glyph glyph-name="f" unicode="&#x416;" horiz-adv-x="827" 
d="M447 642v-268l234 268h73l-235 -266l262 -376h-69l-234 337l-31 -34v-303h-58v303l-31 34l-233 -337h-70l263 376l-235 266h73l233 -268v268h58v0z" />
    <glyph glyph-name="g" unicode="&#xc7;" horiz-adv-x="585" 
d="M259 311l0.000976562 54.0068c1.33301 0 2.5 -0.166992 3.5 -0.5s1.83301 -0.5 2.5 -0.5c1.33301 0 2.5 -0.166992 3.5 -0.5s1.83301 -0.5 2.5 -0.5h12.5c4.33301 0 8.5 0.333008 12.5 1c36 2 69 10.667 99 26s45.667 43.666 47 84.999v6c0 40.667 -12.667 71.667 -38 93
s-61.666 32 -108.999 32c-44 0 -79.667 -13.833 -107 -41.5s-43.666 -64.167 -48.999 -109.5h-58c1.33301 60 24.666 107.667 69.999 143s95 53.666 149 54.999h3.5h2.5c5.33301 0 10.666 -0.166992 15.999 -0.5s10.666 -0.833008 15.999 -1.5c14.667 -2 29 -5.33301 43 -10
s27.333 -10.334 40 -17.001c22 -13.333 39.5 -31 52.5 -53s21.167 -45 24.5 -69c0 -3.33301 0.166992 -6.83301 0.5 -10.5s0.5 -7.16699 0.5 -10.5v-8.5c0 -3 -0.333008 -5.83301 -1 -8.5c-2.66699 -25.333 -11.667 -49.5 -27 -72.5s-36.666 -40.167 -63.999 -51.5
c38 -9.33301 68.333 -29.833 91 -61.5s34 -66.167 34 -103.5c0 -4 -0.166992 -8.16699 -0.5 -12.5s-0.833008 -8.83301 -1.5 -13.5c-1.33301 -4.66699 -2.33301 -9.16699 -3 -13.5s-1.66699 -8.5 -3 -12.5c-12.667 -40.667 -38.667 -73 -78 -97s-90.333 -36 -153 -36l-3 -1
c-62.667 0.666992 -115 22.5 -157 65.5s-64.667 95.167 -68 156.5h58c4 -48.667 20.833 -89.334 50.5 -122.001s69.5 -51 119.5 -55c8.66699 0 18 0.666992 28 2s19.667 3 29 5c30.667 7.33301 58.667 21.166 84 41.499s38 51.166 38 92.499
c-0.666992 48.667 -16.5 82 -47.5 100s-65.167 29 -102.5 33c-10.667 1.33301 -21.334 2.16602 -32.001 2.49902s-21 0.5 -31 0.5v0z" />
    <glyph glyph-name="g" unicode="&#x417;" horiz-adv-x="585" 
d="M259 311l0.000976562 54.0068c1.33301 0 2.5 -0.166992 3.5 -0.5s1.83301 -0.5 2.5 -0.5c1.33301 0 2.5 -0.166992 3.5 -0.5s1.83301 -0.5 2.5 -0.5h12.5c4.33301 0 8.5 0.333008 12.5 1c36 2 69 10.667 99 26s45.667 43.666 47 84.999v6c0 40.667 -12.667 71.667 -38 93
s-61.666 32 -108.999 32c-44 0 -79.667 -13.833 -107 -41.5s-43.666 -64.167 -48.999 -109.5h-58c1.33301 60 24.666 107.667 69.999 143s95 53.666 149 54.999h3.5h2.5c5.33301 0 10.666 -0.166992 15.999 -0.5s10.666 -0.833008 15.999 -1.5c14.667 -2 29 -5.33301 43 -10
s27.333 -10.334 40 -17.001c22 -13.333 39.5 -31 52.5 -53s21.167 -45 24.5 -69c0 -3.33301 0.166992 -6.83301 0.5 -10.5s0.5 -7.16699 0.5 -10.5v-8.5c0 -3 -0.333008 -5.83301 -1 -8.5c-2.66699 -25.333 -11.667 -49.5 -27 -72.5s-36.666 -40.167 -63.999 -51.5
c38 -9.33301 68.333 -29.833 91 -61.5s34 -66.167 34 -103.5c0 -4 -0.166992 -8.16699 -0.5 -12.5s-0.833008 -8.83301 -1.5 -13.5c-1.33301 -4.66699 -2.33301 -9.16699 -3 -13.5s-1.66699 -8.5 -3 -12.5c-12.667 -40.667 -38.667 -73 -78 -97s-90.333 -36 -153 -36l-3 -1
c-62.667 0.666992 -115 22.5 -157 65.5s-64.667 95.167 -68 156.5h58c4 -48.667 20.833 -89.334 50.5 -122.001s69.5 -51 119.5 -55c8.66699 0 18 0.666992 28 2s19.667 3 29 5c30.667 7.33301 58.667 21.166 84 41.499s38 51.166 38 92.499
c-0.666992 48.667 -16.5 82 -47.5 100s-65.167 29 -102.5 33c-10.667 1.33301 -21.334 2.16602 -32.001 2.49902s-21 0.5 -31 0.5v0z" />
    <glyph glyph-name="h" unicode="&#xc8;" horiz-adv-x="614" 
d="M79 0v642h59v-546l358 546h68v-642h-60v553l-361 -553h-64v0z" />
    <glyph glyph-name="h" unicode="&#x418;" horiz-adv-x="614" 
d="M79 0v642h59v-546l358 546h68v-642h-60v553l-361 -553h-64v0z" />
    <glyph glyph-name="i" unicode="&#xc9;" horiz-adv-x="614" 
d="M79 0v642h59v-546l358 546h68v-642h-60v553l-361 -553h-64v0zM319 715c28.667 0 48.333 5.16699 59 15.5s16 21.833 16 34.5h52c0 -33.333 -12.5 -59.333 -37.5 -78s-52.167 -29 -81.5 -31h-5.5h-5.5h-1.5h-1.5c-30.667 0.666992 -58.667 10 -84 28s-38 44.333 -38 79h50
c0 -12 6 -23 18 -33s32 -15 60 -15v0z" />
    <glyph glyph-name="i" unicode="&#x419;" horiz-adv-x="614" 
d="M79 0v642h59v-546l358 546h68v-642h-60v553l-361 -553h-64v0zM319 715c28.667 0 48.333 5.16699 59 15.5s16 21.833 16 34.5h52c0 -33.333 -12.5 -59.333 -37.5 -78s-52.167 -29 -81.5 -31h-5.5h-5.5h-1.5h-1.5c-30.667 0.666992 -58.667 10 -84 28s-38 44.333 -38 79h50
c0 -12 6 -23 18 -33s32 -15 60 -15v0z" />
    <glyph glyph-name="j" unicode="&#xca;" horiz-adv-x="614" 
d="M75 0v642h58v-339l331 339h76l-261 -266l292 -376h-73l-258 337l-107 -110v-227h-58v0z" />
    <glyph glyph-name="j" unicode="&#x41a;" horiz-adv-x="614" 
d="M75 0v642h58v-339l331 339h76l-261 -266l292 -376h-73l-258 337l-107 -110v-227h-58v0z" />
    <glyph glyph-name="k" unicode="&#xcb;" horiz-adv-x="595" 
d="M21 -3v55.001c25.333 1.33301 44 13.666 56 36.999s21 61.333 27 114c3.33301 26 5.5 58.5 6.5 97.5s1.83301 78.833 2.5 119.5v40v39v143h432v-642h-60v588h-313v-137c0 -35.333 -0.333008 -70 -1 -104s-2.33398 -68 -5.00098 -102l-2 -25.5l-2 -25.5
c-5.33301 -68 -20.666 -117.667 -45.999 -149s-57 -47 -95 -47v-1z" />
    <glyph glyph-name="k" unicode="&#x41b;" horiz-adv-x="595" 
d="M21 -3v55.001c25.333 1.33301 44 13.666 56 36.999s21 61.333 27 114c3.33301 26 5.5 58.5 6.5 97.5s1.83301 78.833 2.5 119.5v40v39v143h432v-642h-60v588h-313v-137c0 -35.333 -0.333008 -70 -1 -104s-2.33398 -68 -5.00098 -102l-2 -25.5l-2 -25.5
c-5.33301 -68 -20.666 -117.667 -45.999 -149s-57 -47 -95 -47v-1z" />
    <glyph glyph-name="l" unicode="&#xcc;" horiz-adv-x="715" 
d="M78 0v642h82l213 -564l207 564h83v-642h-57v561l-206 -561h-55l-209 561v-561h-58v0z" />
    <glyph glyph-name="l" unicode="&#x41c;" horiz-adv-x="715" 
d="M78 0v642h82l213 -564l207 564h83v-642h-57v561l-206 -561h-55l-209 561v-561h-58v0z" />
    <glyph glyph-name="m" unicode="&#xcd;" horiz-adv-x="614" 
d="M79 0v642h59v-277h366v277h60v-642h-60v311h-366v-311h-59v0z" />
    <glyph glyph-name="m" unicode="&#x41d;" horiz-adv-x="614" 
d="M79 0v642h59v-277h366v277h60v-642h-60v311h-366v-311h-59v0z" />
    <glyph glyph-name="n" unicode="&#xce;" horiz-adv-x="705" 
d="M60 321c0 95.333 25.167 175.333 75.5 240s121.166 97 212.499 97c6.66699 0 13.5 -0.166992 20.5 -0.5s14.167 -0.833008 21.5 -1.5c4.66699 -0.666992 9.33398 -1.16699 14.001 -1.5s9.33398 -0.833008 14.001 -1.5c76.667 -12.667 133.167 -49.667 169.5 -111
s56.166 -127.333 59.499 -198c0.666992 -4 1 -7.83301 1 -11.5v-11.5c0 -91.333 -24 -170.166 -72 -236.499s-121.667 -99.5 -221 -99.5s-173.333 33.167 -222 99.5s-73 145.166 -73 236.499v0zM378 606l-23.001 0.000976562c-27.333 0 -54.166 -5 -80.499 -15
s-49.833 -24 -70.5 -42c-30 -27.333 -50.833 -59.5 -62.5 -96.5s-18.167 -75.167 -19.5 -114.5v-8.5v-8.5c0 -72.667 18.333 -138.334 55 -197.001s96 -88 178 -88c63.333 0 115.5 21 156.5 63s64.833 93.667 71.5 155l2 18.5c0.666992 6.33301 1 12.833 1 19.5
c0.666992 4.66699 1 9.16699 1 13.5v12.5v13.5c0 4.33301 -0.333008 8.5 -1 12.5c-3.33301 62.667 -20.833 120.5 -52.5 173.5s-83.5 82.5 -155.5 88.5v0z" />
    <glyph glyph-name="n" unicode="&#x41e;" horiz-adv-x="705" 
d="M60 321c0 95.333 25.167 175.333 75.5 240s121.166 97 212.499 97c6.66699 0 13.5 -0.166992 20.5 -0.5s14.167 -0.833008 21.5 -1.5c4.66699 -0.666992 9.33398 -1.16699 14.001 -1.5s9.33398 -0.833008 14.001 -1.5c76.667 -12.667 133.167 -49.667 169.5 -111
s56.166 -127.333 59.499 -198c0.666992 -4 1 -7.83301 1 -11.5v-11.5c0 -91.333 -24 -170.166 -72 -236.499s-121.667 -99.5 -221 -99.5s-173.333 33.167 -222 99.5s-73 145.166 -73 236.499v0zM378 606l-23.001 0.000976562c-27.333 0 -54.166 -5 -80.499 -15
s-49.833 -24 -70.5 -42c-30 -27.333 -50.833 -59.5 -62.5 -96.5s-18.167 -75.167 -19.5 -114.5v-8.5v-8.5c0 -72.667 18.333 -138.334 55 -197.001s96 -88 178 -88c63.333 0 115.5 21 156.5 63s64.833 93.667 71.5 155l2 18.5c0.666992 6.33301 1 12.833 1 19.5
c0.666992 4.66699 1 9.16699 1 13.5v12.5v13.5c0 4.33301 -0.333008 8.5 -1 12.5c-3.33301 62.667 -20.833 120.5 -52.5 173.5s-83.5 82.5 -155.5 88.5v0z" />
    <glyph glyph-name="o" unicode="&#xcf;" horiz-adv-x="614" 
d="M79 0v642h485v-642h-60v590h-366v-590h-59v0z" />
    <glyph glyph-name="o" unicode="&#x41f;" horiz-adv-x="614" 
d="M79 0v642h485v-642h-60v590h-366v-590h-59v0z" />
    <glyph glyph-name="p" unicode="&#xd0;" horiz-adv-x="504" 
d="M105 0l-0.000976562 642h224c60 0 110.167 -13.167 150.5 -39.5s60.5 -72.5 60.5 -138.5c0 -74.667 -24.167 -124 -72.5 -148s-104.166 -36.333 -167.499 -37h-136v-279h-59v0zM325.999 590l-162.001 -0.00195312v-258h137c46.667 0 87.834 7.83301 123.501 23.5
s53.5 51.834 53.5 108.501c0 48.667 -14.5 81.834 -43.5 99.501s-65.167 26.5 -108.5 26.5v0z" />
    <glyph glyph-name="p" unicode="&#x420;" horiz-adv-x="504" 
d="M105 0l-0.000976562 642h224c60 0 110.167 -13.167 150.5 -39.5s60.5 -72.5 60.5 -138.5c0 -74.667 -24.167 -124 -72.5 -148s-104.166 -36.333 -167.499 -37h-136v-279h-59v0zM325.999 590l-162.001 -0.00195312v-258h137c46.667 0 87.834 7.83301 123.501 23.5
s53.5 51.834 53.5 108.501c0 48.667 -14.5 81.834 -43.5 99.501s-65.167 26.5 -108.5 26.5v0z" />
    <glyph glyph-name="q" unicode="&#xd1;" horiz-adv-x="645" 
d="M540 211l58.001 0.000976562c-4 -62.667 -26.333 -114.667 -67 -156s-93 -64.333 -157 -69l-32 -1c-84.667 0.666992 -151 29.167 -199 85.5s-74 126.833 -78 211.5c0 4 -0.166992 7.83301 -0.5 11.5s-0.5 7.16699 -0.5 10.5
c-0.666992 3.33301 -1.16699 6.83301 -1.5 10.5s-0.5 7.5 -0.5 11.5c0 9.33301 0.333008 18.666 1 27.999l2 29c4.66699 40 14.834 78.833 30.501 116.5s38.5 69.5 68.5 95.5c21.333 18.667 46.666 33 75.999 43s59.333 16 90 18h8.5h8.5h1.5h1.5
c59.333 -0.666992 114 -17.667 164 -51s76 -83.333 78 -150h-59c-4.66699 48.667 -24.834 85.334 -60.501 110.001s-74.5 38 -116.5 40h-4.5h-4.5h-8c-2.66699 0 -5.66699 -0.333008 -9 -1c-24.667 -1.33301 -48.834 -6.83301 -72.501 -16.5s-44.167 -22.5 -61.5 -38.5
c-22 -20.667 -38.167 -45 -48.5 -73s-17.166 -57 -20.499 -87c-1.33301 -10.667 -2.33301 -21.5 -3 -32.5s-1 -21.833 -1 -32.5v-3v-4c-0.666992 -1.33301 -1 -2.66602 -1 -3.99902v-3c0 -70.667 18.833 -134.334 56.5 -191.001s93.167 -85 166.5 -85c2 0 4 0.166992 6 0.5
s4 0.5 6 0.5s3.83301 0.166992 5.5 0.5s3.5 0.5 5.5 0.5c51.333 3.33301 92 21.166 122 53.499s46.667 72.833 50 121.5v0z" />
    <glyph glyph-name="q" unicode="&#x421;" horiz-adv-x="645" 
d="M540 211l58.001 0.000976562c-4 -62.667 -26.333 -114.667 -67 -156s-93 -64.333 -157 -69l-32 -1c-84.667 0.666992 -151 29.167 -199 85.5s-74 126.833 -78 211.5c0 4 -0.166992 7.83301 -0.5 11.5s-0.5 7.16699 -0.5 10.5
c-0.666992 3.33301 -1.16699 6.83301 -1.5 10.5s-0.5 7.5 -0.5 11.5c0 9.33301 0.333008 18.666 1 27.999l2 29c4.66699 40 14.834 78.833 30.501 116.5s38.5 69.5 68.5 95.5c21.333 18.667 46.666 33 75.999 43s59.333 16 90 18h8.5h8.5h1.5h1.5
c59.333 -0.666992 114 -17.667 164 -51s76 -83.333 78 -150h-59c-4.66699 48.667 -24.834 85.334 -60.501 110.001s-74.5 38 -116.5 40h-4.5h-4.5h-8c-2.66699 0 -5.66699 -0.333008 -9 -1c-24.667 -1.33301 -48.834 -6.83301 -72.501 -16.5s-44.167 -22.5 -61.5 -38.5
c-22 -20.667 -38.167 -45 -48.5 -73s-17.166 -57 -20.499 -87c-1.33301 -10.667 -2.33301 -21.5 -3 -32.5s-1 -21.833 -1 -32.5v-3v-4c-0.666992 -1.33301 -1 -2.66602 -1 -3.99902v-3c0 -70.667 18.833 -134.334 56.5 -191.001s93.167 -85 166.5 -85c2 0 4 0.166992 6 0.5
s4 0.5 6 0.5s3.83301 0.166992 5.5 0.5s3.5 0.5 5.5 0.5c51.333 3.33301 92 21.166 122 53.499s46.667 72.833 50 121.5v0z" />
    <glyph glyph-name="Scaron" unicode="&#xd2;" horiz-adv-x="485" 
d="M259 0v590h-199v52h459v-52h-198v-590h-62v0z" />
    <glyph glyph-name="Scaron" unicode="&#x422;" horiz-adv-x="485" 
d="M259 0v590h-199v52h459v-52h-198v-590h-62v0z" />
    <glyph glyph-name="r" unicode="&#xd3;" horiz-adv-x="515" 
d="M256 122l13.0049 29l-193 491h70l164 -407l178 407h70l-250 -559c-10 -22 -26.5 -41.667 -49.5 -59s-51.833 -26 -86.5 -26h-6.5h-6.5c-2 0.666992 -4.16699 1 -6.5 1h-6.5v58c1.33301 0 2.66602 -0.166992 3.99902 -0.5s2.66602 -0.5 3.99902 -0.5
s2.66602 -0.166992 3.99902 -0.5s2.66602 -0.5 3.99902 -0.5c20.667 0 38.5 5.5 53.5 16.5s26.167 22.833 33.5 35.5c1.33301 2.66699 2.66602 5.16699 3.99902 7.5s2.33301 4.83301 3 7.5v0z" />
    <glyph glyph-name="r" unicode="&#x423;" horiz-adv-x="515" 
d="M256 122l13.0049 29l-193 491h70l164 -407l178 407h70l-250 -559c-10 -22 -26.5 -41.667 -49.5 -59s-51.833 -26 -86.5 -26h-6.5h-6.5c-2 0.666992 -4.16699 1 -6.5 1h-6.5v58c1.33301 0 2.66602 -0.166992 3.99902 -0.5s2.66602 -0.5 3.99902 -0.5
s2.66602 -0.166992 3.99902 -0.5s2.66602 -0.5 3.99902 -0.5c20.667 0 38.5 5.5 53.5 16.5s26.167 22.833 33.5 35.5c1.33301 2.66699 2.66602 5.16699 3.99902 7.5s2.33301 4.83301 3 7.5v0z" />
    <glyph glyph-name="t" unicode="&#xd4;" horiz-adv-x="686" 
d="M311 642h60v-42c85.333 -3.33301 149.666 -32.333 192.999 -87s65 -119.667 65 -195c0 -71.333 -21.167 -133.333 -63.5 -186s-107.166 -82.667 -194.499 -90v-42h-60v42c-87.333 7.33301 -152.333 37.333 -195 90s-64 114.667 -64 186c0 75.333 21.667 140.333 65 195
s108 83.667 194 87v42v0zM113 318c0 -54.667 15.832 -104.667 47.499 -150s81.834 -72 150.501 -80v460c-60 -8 -107.5 -33.333 -142.5 -76s-53.5 -94 -55.5 -154v0zM370.999 551v-463c69.333 8 119.666 34.667 150.999 80s47 95.333 47 150v6c0 58.667 -18.667 109 -56 151
s-84.666 67.333 -141.999 76v0z" />
    <glyph glyph-name="t" unicode="&#x424;" horiz-adv-x="686" 
d="M311 642h60v-42c85.333 -3.33301 149.666 -32.333 192.999 -87s65 -119.667 65 -195c0 -71.333 -21.167 -133.333 -63.5 -186s-107.166 -82.667 -194.499 -90v-42h-60v42c-87.333 7.33301 -152.333 37.333 -195 90s-64 114.667 -64 186c0 75.333 21.667 140.333 65 195
s108 83.667 194 87v42v0zM113 318c0 -54.667 15.832 -104.667 47.499 -150s81.834 -72 150.501 -80v460c-60 -8 -107.5 -33.333 -142.5 -76s-53.5 -94 -55.5 -154v0zM370.999 551v-463c69.333 8 119.666 34.667 150.999 80s47 95.333 47 150v6c0 58.667 -18.667 109 -56 151
s-84.666 67.333 -141.999 76v0z" />
    <glyph glyph-name="u" unicode="&#xd5;" horiz-adv-x="605" 
d="M47 0l214 331l-208 311h70l172 -263l170 263h70l-206 -313l222 -329h-71l-185 279l-178 -279h-70v0z" />
    <glyph glyph-name="u" unicode="&#x425;" horiz-adv-x="605" 
d="M47 0l214 331l-208 311h70l172 -263l170 263h70l-206 -313l222 -329h-71l-185 279l-178 -279h-70v0z" />
    <glyph glyph-name="zero" unicode="&#xd6;" horiz-adv-x="645" 
d="M551 0h-475v642h59v-590h366v590h60v-590h50v-198h-60v146v0z" />
    <glyph glyph-name="zero" unicode="&#x426;" horiz-adv-x="645" 
d="M551 0h-475v642h59v-590h366v590h60v-590h50v-198h-60v146v0z" />
    <glyph glyph-name="parenright" unicode="&#xd7;" horiz-adv-x="564" 
d="M53 399l-0.00195312 243h59v-247v-6c0 -2 0.333008 -4 1 -6c1.33301 -11.333 6.33301 -22.666 15 -33.999s22.334 -21.666 41.001 -30.999c10.667 -4.66699 23 -8.83398 37 -12.501s28.667 -5.5 44 -5.5c18 0 37 2 57 6s40.333 10.333 61 19
c14 5.33301 28 11.833 42 19.5s27.667 16.5 41 26.5v271h60v-642h-60v311c-14.667 -10.667 -30.167 -20 -46.5 -28s-32.833 -14.333 -49.5 -19c-17.333 -5.33301 -34.666 -9.33301 -51.999 -12s-34 -4 -50 -4c-22 0 -43 2.16699 -63 6.5s-37.333 9.83301 -52 16.5
c-0.666992 0 -1.16699 0.166992 -1.5 0.5s-0.833008 0.5 -1.5 0.5c-20.667 8.66699 -39.5 23.167 -56.5 43.5s-25.5 48.166 -25.5 83.499v0z" />
    <glyph glyph-name="parenright" unicode="&#x427;" horiz-adv-x="564" 
d="M53 399l-0.00195312 243h59v-247v-6c0 -2 0.333008 -4 1 -6c1.33301 -11.333 6.33301 -22.666 15 -33.999s22.334 -21.666 41.001 -30.999c10.667 -4.66699 23 -8.83398 37 -12.501s28.667 -5.5 44 -5.5c18 0 37 2 57 6s40.333 10.333 61 19
c14 5.33301 28 11.833 42 19.5s27.667 16.5 41 26.5v271h60v-642h-60v311c-14.667 -10.667 -30.167 -20 -46.5 -28s-32.833 -14.333 -49.5 -19c-17.333 -5.33301 -34.666 -9.33301 -51.999 -12s-34 -4 -50 -4c-22 0 -43 2.16699 -63 6.5s-37.333 9.83301 -52 16.5
c-0.666992 0 -1.16699 0.166992 -1.5 0.5s-0.833008 0.5 -1.5 0.5c-20.667 8.66699 -39.5 23.167 -56.5 43.5s-25.5 48.166 -25.5 83.499v0z" />
    <glyph glyph-name="x" unicode="&#xd8;" horiz-adv-x="724" 
d="M136 53h208v589h56v-589h208v589h58v-642h-588v642h58v-589v0z" />
    <glyph glyph-name="x" unicode="&#x428;" horiz-adv-x="724" 
d="M136 53h208v589h56v-589h208v589h58v-642h-588v642h58v-589v0z" />
    <glyph glyph-name="y" unicode="&#xd9;" horiz-adv-x="765" 
d="M671 0h-582v642h58v-589h208v589h57v-589h207v589h58v-589h54v-199h-60v146v0z" />
    <glyph glyph-name="y" unicode="&#x429;" horiz-adv-x="765" 
d="M671 0h-582v642h58v-589h208v589h57v-589h207v589h58v-589h54v-199h-60v146v0z" />
    <glyph glyph-name="z" unicode="&#xda;" horiz-adv-x="705" 
d="M191 590h-172v52h231v-284h137c32 0 56.5 -0.333008 73.5 -1s32.167 -2.33398 45.5 -5.00098l14 -4c4.66699 -1.33301 9.66699 -2.66602 15 -3.99902c36 -11.333 64.833 -33 86.5 -65s32.834 -66.333 33.501 -103v-2v-2c0 -4 -0.166992 -8 -0.5 -12
s-0.833008 -8 -1.5 -12c-0.666992 -4.66699 -1.33398 -9 -2.00098 -13s-1.66699 -8 -3 -12c-14 -53.333 -40.833 -87 -80.5 -101s-82.167 -21.333 -127.5 -22h-10.5h-11.5h-227v590v0zM250 308l0.000976562 -255h173c45.333 0 85 6.66699 119 20s51 47.333 51 102
c0 52 -16.333 87.167 -49 105.5s-71.334 27.5 -116.001 27.5h-178v0z" />
    <glyph glyph-name="z" unicode="&#x42a;" horiz-adv-x="705" 
d="M191 590h-172v52h231v-284h137c32 0 56.5 -0.333008 73.5 -1s32.167 -2.33398 45.5 -5.00098l14 -4c4.66699 -1.33301 9.66699 -2.66602 15 -3.99902c36 -11.333 64.833 -33 86.5 -65s32.834 -66.333 33.501 -103v-2v-2c0 -4 -0.166992 -8 -0.5 -12
s-0.833008 -8 -1.5 -12c-0.666992 -4.66699 -1.33398 -9 -2.00098 -13s-1.66699 -8 -3 -12c-14 -53.333 -40.833 -87 -80.5 -101s-82.167 -21.333 -127.5 -22h-10.5h-11.5h-227v590v0zM250 308l0.000976562 -255h173c45.333 0 85 6.66699 119 20s51 47.333 51 102
c0 52 -16.333 87.167 -49 105.5s-71.334 27.5 -116.001 27.5h-178v0z" />
    <glyph glyph-name="braceleft" unicode="&#xdb;" horiz-adv-x="724" 
d="M138 642l-0.000976562 -283.997h138h27.5c9 0 18.167 -0.333008 27.5 -1c40 -2.66699 78 -10.834 114 -24.501s63.333 -40.834 82 -81.501c3.33301 -7.33301 6 -15.333 8 -24s3.33301 -17.667 4 -27c0.666992 -4.66699 1.16699 -9.16699 1.5 -13.5
s0.5 -8.83301 0.5 -13.5c0 -4 -0.166992 -8.16699 -0.5 -12.5s-0.833008 -8.5 -1.5 -12.5l-2 -12.5l-2 -12.5c-14.667 -54 -42.167 -87.833 -82.5 -101.5s-83.166 -20.834 -128.499 -21.501h-9.5h-9.5h-226v642h59v0zM137.999 53.0029h173c45.333 0 85 6.66699 119 20
s51 47.333 51 102c0 52 -16.5 87.167 -49.5 105.5s-72.167 27.5 -117.5 27.5h-176v-255v0zM607.999 0.00292969v643h58v-643h-58v0z" />
    <glyph glyph-name="braceleft" unicode="&#x42b;" horiz-adv-x="724" 
d="M138 642l-0.000976562 -283.997h138h27.5c9 0 18.167 -0.333008 27.5 -1c40 -2.66699 78 -10.834 114 -24.501s63.333 -40.834 82 -81.501c3.33301 -7.33301 6 -15.333 8 -24s3.33301 -17.667 4 -27c0.666992 -4.66699 1.16699 -9.16699 1.5 -13.5
s0.5 -8.83301 0.5 -13.5c0 -4 -0.166992 -8.16699 -0.5 -12.5s-0.833008 -8.5 -1.5 -12.5l-2 -12.5l-2 -12.5c-14.667 -54 -42.167 -87.833 -82.5 -101.5s-83.166 -20.834 -128.499 -21.501h-9.5h-9.5h-226v642h59v0zM137.999 53.0029h173c45.333 0 85 6.66699 119 20
s51 47.333 51 102c0 52 -16.5 87.167 -49.5 105.5s-72.167 27.5 -117.5 27.5h-176v-255v0zM607.999 0.00292969v643h58v-643h-58v0z" />
    <glyph glyph-name="bar" unicode="&#xdc;" horiz-adv-x="595" 
d="M138 642l-0.000976562 -283.997h138h27.5c9 0 18.167 -0.333008 27.5 -1c40 -2.66699 78 -10.834 114 -24.501s63.333 -40.834 82 -81.501c3.33301 -7.33301 6 -15.333 8 -24s3.33301 -17.667 4 -27c0.666992 -4.66699 1.16699 -9.16699 1.5 -13.5
s0.5 -8.83301 0.5 -13.5c0 -4 -0.166992 -8.16699 -0.5 -12.5s-0.833008 -8.5 -1.5 -12.5l-2 -12.5l-2 -12.5c-14.667 -54 -42.167 -87.833 -82.5 -101.5s-83.166 -20.834 -128.499 -21.501h-9.5h-9.5h-226v642h59v0zM310.999 53.0029c45.333 0 85 6.66699 119 20
s51 47.333 51 102c0 52 -16.5 87.167 -49.5 105.5s-72.167 27.5 -117.5 27.5h-176v-255h173v0z" />
    <glyph glyph-name="bar" unicode="&#x42c;" horiz-adv-x="595" 
d="M138 642l-0.000976562 -283.997h138h27.5c9 0 18.167 -0.333008 27.5 -1c40 -2.66699 78 -10.834 114 -24.501s63.333 -40.834 82 -81.501c3.33301 -7.33301 6 -15.333 8 -24s3.33301 -17.667 4 -27c0.666992 -4.66699 1.16699 -9.16699 1.5 -13.5
s0.5 -8.83301 0.5 -13.5c0 -4 -0.166992 -8.16699 -0.5 -12.5s-0.833008 -8.5 -1.5 -12.5l-2 -12.5l-2 -12.5c-14.667 -54 -42.167 -87.833 -82.5 -101.5s-83.166 -20.834 -128.499 -21.501h-9.5h-9.5h-226v642h59v0zM310.999 53.0029c45.333 0 85 6.66699 119 20
s51 47.333 51 102c0 52 -16.5 87.167 -49.5 105.5s-72.167 27.5 -117.5 27.5h-176v-255h173v0z" />
    <glyph glyph-name="braceright" unicode="&#xdd;" horiz-adv-x="665" 
d="M306 36h4.50391c1.66699 0 3.5 -0.333008 5.5 -1h1h1c2 0 4 -0.166992 6 -0.5s3.66699 -0.5 5 -0.5c74.667 0 130.334 28.5 167.001 85.5s55 120.833 55 191.5h-318v54h316c-0.666992 6 -1.16699 11.833 -1.5 17.5s-0.833008 11.167 -1.5 16.5
c-4 28 -11.333 55.167 -22 81.5s-26 49.166 -46 68.499c-14.667 13.333 -31.834 24.5 -51.501 33.5s-39.5 15.167 -59.5 18.5c-7.33301 1.33301 -14.333 2.33301 -21 3s-13.334 1 -20.001 1c-44 0 -84.5 -12.333 -121.5 -37s-58.167 -62.334 -63.5 -113.001h-58
c1.33301 67.333 27.166 118 77.499 152s105.5 51 165.5 51c5.33301 0 10.666 -0.166992 15.999 -0.5s10.666 -0.833008 15.999 -1.5c28 -2.66699 55.333 -9.16699 82 -19.5s50.334 -24.166 71.001 -41.499c30 -26 52.5 -57.833 67.5 -95.5s24.833 -76.5 29.5 -116.5
c1.33301 -10 2.16602 -19.667 2.49902 -29s0.5 -18.666 0.5 -27.999c0 -4 -0.166992 -7.83301 -0.5 -11.5s-0.5 -7.16699 -0.5 -10.5s-0.166992 -6.83301 -0.5 -10.5s-0.5 -7.5 -0.5 -11.5c-4 -84.667 -30 -155.167 -78 -211.5s-114.667 -84.5 -200 -84.5l-31 -1
c-64 5.33301 -116.333 28.666 -157 69.999s-63 93.333 -67 156h59c3.33301 -48.667 20 -89.167 50 -121.5s70.333 -50.166 121 -53.499v0z" />
    <glyph glyph-name="braceright" unicode="&#x42d;" horiz-adv-x="665" 
d="M306 36h4.50391c1.66699 0 3.5 -0.333008 5.5 -1h1h1c2 0 4 -0.166992 6 -0.5s3.66699 -0.5 5 -0.5c74.667 0 130.334 28.5 167.001 85.5s55 120.833 55 191.5h-318v54h316c-0.666992 6 -1.16699 11.833 -1.5 17.5s-0.833008 11.167 -1.5 16.5
c-4 28 -11.333 55.167 -22 81.5s-26 49.166 -46 68.499c-14.667 13.333 -31.834 24.5 -51.501 33.5s-39.5 15.167 -59.5 18.5c-7.33301 1.33301 -14.333 2.33301 -21 3s-13.334 1 -20.001 1c-44 0 -84.5 -12.333 -121.5 -37s-58.167 -62.334 -63.5 -113.001h-58
c1.33301 67.333 27.166 118 77.499 152s105.5 51 165.5 51c5.33301 0 10.666 -0.166992 15.999 -0.5s10.666 -0.833008 15.999 -1.5c28 -2.66699 55.333 -9.16699 82 -19.5s50.334 -24.166 71.001 -41.499c30 -26 52.5 -57.833 67.5 -95.5s24.833 -76.5 29.5 -116.5
c1.33301 -10 2.16602 -19.667 2.49902 -29s0.5 -18.666 0.5 -27.999c0 -4 -0.166992 -7.83301 -0.5 -11.5s-0.5 -7.16699 -0.5 -10.5s-0.166992 -6.83301 -0.5 -10.5s-0.5 -7.5 -0.5 -11.5c-4 -84.667 -30 -155.167 -78 -211.5s-114.667 -84.5 -200 -84.5l-31 -1
c-64 5.33301 -116.333 28.666 -157 69.999s-63 93.333 -67 156h59c3.33301 -48.667 20 -89.167 50 -121.5s70.333 -50.166 121 -53.499v0z" />
    <glyph glyph-name="asciitilde" unicode="&#xde;" horiz-adv-x="724" 
d="M668 321c0 -91.333 -19.501 -170.167 -58.501 -236.5s-99.167 -99.5 -180.5 -99.5c-78.667 0 -137.667 32.167 -177 96.5s-59.666 140.833 -60.999 229.5h-55v-311h-58v642h58v-277h57c5.33301 85.333 28.333 155.5 69 210.5s95.334 82.5 164.001 82.5
c4.66699 0 9.5 -0.166992 14.5 -0.5s10.167 -0.833008 15.5 -1.5c4 0 8.16699 -0.333008 12.5 -1l12.5 -2c62.667 -12.667 108.667 -49.667 138 -111s45.666 -127.333 48.999 -198v-11.5v-11.5v0zM428.999 35.999c49.333 0 89.3359 21.001 120.003 63.001
s48.667 93.667 54 155c1.33301 11.333 2.16602 22.333 2.49902 33s0.5 21.334 0.5 32.001v12v12c-2.66699 62.667 -16.334 120.667 -41.001 174s-64 83 -118 89h-18c-4.66699 0 -9.33398 -0.333008 -14.001 -1s-9.66699 -1.33398 -15 -2.00098
c-15.333 -4 -30.5 -10.5 -45.5 -19.5s-28.5 -20.5 -40.5 -34.5c-22 -27.333 -37.333 -59.5 -46 -96.5s-13.667 -75.167 -15 -114.5v-8.5v-8.5c0 -72.667 13.833 -138.334 41.5 -197.001s72.5 -88 134.5 -88v0z" />
    <glyph glyph-name="asciitilde" unicode="&#x42e;" horiz-adv-x="724" 
d="M668 321c0 -91.333 -19.501 -170.167 -58.501 -236.5s-99.167 -99.5 -180.5 -99.5c-78.667 0 -137.667 32.167 -177 96.5s-59.666 140.833 -60.999 229.5h-55v-311h-58v642h58v-277h57c5.33301 85.333 28.333 155.5 69 210.5s95.334 82.5 164.001 82.5
c4.66699 0 9.5 -0.166992 14.5 -0.5s10.167 -0.833008 15.5 -1.5c4 0 8.16699 -0.333008 12.5 -1l12.5 -2c62.667 -12.667 108.667 -49.667 138 -111s45.666 -127.333 48.999 -198v-11.5v-11.5v0zM428.999 35.999c49.333 0 89.3359 21.001 120.003 63.001
s48.667 93.667 54 155c1.33301 11.333 2.16602 22.333 2.49902 33s0.5 21.334 0.5 32.001v12v12c-2.66699 62.667 -16.334 120.667 -41.001 174s-64 83 -118 89h-18c-4.66699 0 -9.33398 -0.333008 -14.001 -1s-9.66699 -1.33398 -15 -2.00098
c-15.333 -4 -30.5 -10.5 -45.5 -19.5s-28.5 -20.5 -40.5 -34.5c-22 -27.333 -37.333 -59.5 -46 -96.5s-13.667 -75.167 -15 -114.5v-8.5v-8.5c0 -72.667 13.833 -138.334 41.5 -197.001s72.5 -88 134.5 -88v0z" />
    <glyph glyph-name="quotedblleft" unicode="&#xdf;" horiz-adv-x="595" 
d="M543 0l-60 -0.00195312v288h-186c-33.333 0 -61.333 -4.66699 -84 -14s-37 -32.666 -43 -69.999c-2 -10.667 -3.33301 -22.334 -4 -35.001l-2 -39c-0.666992 -3.33301 -1 -6.66602 -1 -9.99902v-9c-1.33301 -20.667 -3.16602 -40.667 -5.49902 -60
s-6.83301 -36.333 -13.5 -51h-66v10c5.33301 5.33301 9.33301 11 12 17s4.66699 12.333 6 19c0.666992 4 1.16699 7.83301 1.5 11.5s0.833008 7.16699 1.5 10.5l8 97c0 2 0.166992 3.83301 0.5 5.5s0.5 3.5 0.5 5.5c2 32 6.83301 59.833 14.5 83.5
s28.834 41.834 63.501 54.501c-32 12 -56.833 31.667 -74.5 59s-27.834 56 -30.501 86v6.5v6.5c0 4 0.166992 7.83301 0.5 11.5s0.833008 7.5 1.5 11.5c3.33301 24 11.666 47 24.999 69s31.333 39.333 54 52c13.333 7.33301 27.333 12.833 42 16.5s29.667 6.16699 45 7.5
c8 0.666992 16.167 1.16699 24.5 1.5s16.5 0.5 24.5 0.5h245v-642v0zM313 339.998l169.998 0.00195312v250h-182h-15.5c-5 0 -10.167 -0.333008 -15.5 -1c-18 -1.33301 -35.5 -4.5 -52.5 -9.5s-31.833 -13.833 -44.5 -26.5c-7.33301 -8.66699 -13.166 -18.167 -17.499 -28.5
s-7.5 -21.166 -9.5 -32.499c-1.33301 -4.66699 -2.16602 -9.33398 -2.49902 -14.001s-0.5 -9.33398 -0.5 -14.001v-2.5c0 -1 0.333008 -1.83301 1 -2.5v-3v-2c2.66699 -46 20 -76.333 52 -91s67 -22.334 105 -23.001h6h6v0z" />
    <glyph glyph-name="quotedblleft" unicode="&#x42f;" horiz-adv-x="595" 
d="M543 0l-60 -0.00195312v288h-186c-33.333 0 -61.333 -4.66699 -84 -14s-37 -32.666 -43 -69.999c-2 -10.667 -3.33301 -22.334 -4 -35.001l-2 -39c-0.666992 -3.33301 -1 -6.66602 -1 -9.99902v-9c-1.33301 -20.667 -3.16602 -40.667 -5.49902 -60
s-6.83301 -36.333 -13.5 -51h-66v10c5.33301 5.33301 9.33301 11 12 17s4.66699 12.333 6 19c0.666992 4 1.16699 7.83301 1.5 11.5s0.833008 7.16699 1.5 10.5l8 97c0 2 0.166992 3.83301 0.5 5.5s0.5 3.5 0.5 5.5c2 32 6.83301 59.833 14.5 83.5
s28.834 41.834 63.501 54.501c-32 12 -56.833 31.667 -74.5 59s-27.834 56 -30.501 86v6.5v6.5c0 4 0.166992 7.83301 0.5 11.5s0.833008 7.5 1.5 11.5c3.33301 24 11.666 47 24.999 69s31.333 39.333 54 52c13.333 7.33301 27.333 12.833 42 16.5s29.667 6.16699 45 7.5
c8 0.666992 16.167 1.16699 24.5 1.5s16.5 0.5 24.5 0.5h245v-642v0zM313 339.998l169.998 0.00195312v250h-182h-15.5c-5 0 -10.167 -0.333008 -15.5 -1c-18 -1.33301 -35.5 -4.5 -52.5 -9.5s-31.833 -13.833 -44.5 -26.5c-7.33301 -8.66699 -13.166 -18.167 -17.499 -28.5
s-7.5 -21.166 -9.5 -32.499c-1.33301 -4.66699 -2.16602 -9.33398 -2.49902 -14.001s-0.5 -9.33398 -0.5 -14.001v-2.5c0 -1 0.333008 -1.83301 1 -2.5v-3v-2c2.66699 -46 20 -76.333 52 -91s67 -22.334 105 -23.001h6h6v0z" />
    <glyph glyph-name="equal" unicode="&#xe0;" horiz-adv-x="514" 
d="M373 68c-16 -16 -36.167 -30.5039 -60.5 -43.5039s-49.5 -22.167 -75.5 -27.5c-8.66699 -2 -17 -3.5 -25 -4.5s-16 -1.5 -24 -1.5c-24.667 0 -48.167 5.33301 -70.5 16s-40.5 28.334 -54.5 53.001c-3.33301 6.66699 -6.16602 13.334 -8.49902 20.001
s-4.16602 13.334 -5.49902 20.001c-0.666992 3.33301 -1.16699 6.66602 -1.5 9.99902s-0.5 6.66602 -0.5 9.99902c0 24.667 6.83301 47.834 20.5 69.501s32.167 37.834 55.5 48.501c19.333 9.33301 39.833 16 61.5 20s43.5 7.33301 65.5 10
c2.66699 0.666992 5.33398 1 8.00098 1s5.33398 0.333008 8.00098 1l35 4c11.333 1.33301 22.666 3 33.999 5c13.333 2.66699 22.666 9.16699 27.999 19.5s8 21.5 8 33.5c0 3.33301 -0.166992 6.5 -0.5 9.5s-0.833008 6.16699 -1.5 9.5c-2 11.333 -5.5 22.166 -10.5 32.499
s-11.167 18.166 -18.5 23.499c-9.33301 6.66699 -20 11.834 -32 15.501s-24 6.16699 -36 7.5c-2.66699 0.666992 -5.5 1 -8.5 1h-9.5c-31.333 0 -60 -9 -86 -27s-40.333 -44 -43 -78h-54c2 46 20.667 81.833 56 107.5s74.333 39.834 117 42.501h6.5h7.5
c42 0 80.333 -11.667 115 -35s52 -58.666 52 -105.999v-247c0 -18.667 2.5 -31.5 7.5 -38.5s14.167 -10.5 27.5 -10.5c1.33301 0 2.66602 0.166992 3.99902 0.5s3 0.5 5 0.5h1h2c0.666992 0.666992 1.66699 1 3 1h3v-41h-6.5c-2.33301 0 -4.5 -0.333008 -6.5 -1
c-4.66699 0 -9.16699 -0.166992 -13.5 -0.5s-8.5 -0.5 -12.5 -0.5c-18.667 0 -34.334 4.33301 -47.001 13s-19 26 -19 52v5v0zM288 52.9961c37.333 16.667 60.333 38.1641 69 64.4971s13 55.833 13 88.5v37c-15.333 -4.66699 -30.833 -8.16699 -46.5 -10.5
s-31.5 -4.5 -47.5 -6.5c-2 -0.666992 -3.83301 -1 -5.5 -1s-3.5 -0.333008 -5.5 -1c-14.667 -2 -29.5 -4.16699 -44.5 -6.5s-29.5 -5.83301 -43.5 -10.5c-19.333 -5.33301 -36.666 -16.666 -51.999 -33.999s-23 -35.666 -23 -54.999c0 -3.33301 0.333008 -6.83301 1 -10.5
s1.66699 -7.5 3 -11.5c2 -4.66699 4.66699 -9.5 8 -14.5s7 -9.5 11 -13.5c9.33301 -9.33301 20.5 -16.666 33.5 -21.999s26.5 -8.33301 40.5 -9h4h4c3.33301 0 6.83301 0.166992 10.5 0.5s7.16699 0.5 10.5 0.5c11.333 1.33301 22.166 3.5 32.499 6.5s19.5 5.83301 27.5 8.5
v0z" />
    <glyph glyph-name="equal" unicode="&#x430;" horiz-adv-x="514" 
d="M373 68c-16 -16 -36.167 -30.5039 -60.5 -43.5039s-49.5 -22.167 -75.5 -27.5c-8.66699 -2 -17 -3.5 -25 -4.5s-16 -1.5 -24 -1.5c-24.667 0 -48.167 5.33301 -70.5 16s-40.5 28.334 -54.5 53.001c-3.33301 6.66699 -6.16602 13.334 -8.49902 20.001
s-4.16602 13.334 -5.49902 20.001c-0.666992 3.33301 -1.16699 6.66602 -1.5 9.99902s-0.5 6.66602 -0.5 9.99902c0 24.667 6.83301 47.834 20.5 69.501s32.167 37.834 55.5 48.501c19.333 9.33301 39.833 16 61.5 20s43.5 7.33301 65.5 10
c2.66699 0.666992 5.33398 1 8.00098 1s5.33398 0.333008 8.00098 1l35 4c11.333 1.33301 22.666 3 33.999 5c13.333 2.66699 22.666 9.16699 27.999 19.5s8 21.5 8 33.5c0 3.33301 -0.166992 6.5 -0.5 9.5s-0.833008 6.16699 -1.5 9.5c-2 11.333 -5.5 22.166 -10.5 32.499
s-11.167 18.166 -18.5 23.499c-9.33301 6.66699 -20 11.834 -32 15.501s-24 6.16699 -36 7.5c-2.66699 0.666992 -5.5 1 -8.5 1h-9.5c-31.333 0 -60 -9 -86 -27s-40.333 -44 -43 -78h-54c2 46 20.667 81.833 56 107.5s74.333 39.834 117 42.501h6.5h7.5
c42 0 80.333 -11.667 115 -35s52 -58.666 52 -105.999v-247c0 -18.667 2.5 -31.5 7.5 -38.5s14.167 -10.5 27.5 -10.5c1.33301 0 2.66602 0.166992 3.99902 0.5s3 0.5 5 0.5h1h2c0.666992 0.666992 1.66699 1 3 1h3v-41h-6.5c-2.33301 0 -4.5 -0.333008 -6.5 -1
c-4.66699 0 -9.16699 -0.166992 -13.5 -0.5s-8.5 -0.5 -12.5 -0.5c-18.667 0 -34.334 4.33301 -47.001 13s-19 26 -19 52v5v0zM288 52.9961c37.333 16.667 60.333 38.1641 69 64.4971s13 55.833 13 88.5v37c-15.333 -4.66699 -30.833 -8.16699 -46.5 -10.5
s-31.5 -4.5 -47.5 -6.5c-2 -0.666992 -3.83301 -1 -5.5 -1s-3.5 -0.333008 -5.5 -1c-14.667 -2 -29.5 -4.16699 -44.5 -6.5s-29.5 -5.83301 -43.5 -10.5c-19.333 -5.33301 -36.666 -16.666 -51.999 -33.999s-23 -35.666 -23 -54.999c0 -3.33301 0.333008 -6.83301 1 -10.5
s1.66699 -7.5 3 -11.5c2 -4.66699 4.66699 -9.5 8 -14.5s7 -9.5 11 -13.5c9.33301 -9.33301 20.5 -16.666 33.5 -21.999s26.5 -8.33301 40.5 -9h4h4c3.33301 0 6.83301 0.166992 10.5 0.5s7.16699 0.5 10.5 0.5c11.333 1.33301 22.166 3.5 32.499 6.5s19.5 5.83301 27.5 8.5
v0z" />
    <glyph glyph-name="K" unicode="&#xe1;" horiz-adv-x="524" 
d="M230 541c-32.667 -6.66699 -58.0039 -21.001 -76.0039 -43.001s-30.333 -49.667 -37 -83c15.333 17.333 36.333 31.333 63 42s56.334 16 89.001 16h9h10c2.66699 0 5.66699 -0.166992 9 -0.5s6.33301 -0.5 9 -0.5c59.333 -8 102 -35 128 -81s39.667 -95.667 41 -149v-4.5
v-5.5c0 -68.667 -17.333 -126 -52 -172s-88.667 -69 -162 -69c-74 0 -127.833 23 -161.5 69s-50.5 103.333 -50.5 172c0 143.333 16.167 235.333 48.5 276s67.833 66.334 106.5 77.001c32.667 8 59.334 14.833 80.001 20.5s37.334 11.167 50.001 16.5
c8 3.33301 14.5 6.5 19.5 9.5s9.16699 6.5 12.5 10.5h60c-6.66699 -26.667 -26.667 -47.5 -60 -62.5s-78.666 -27.833 -135.999 -38.5v0zM260.996 35.999c43.333 0 78.667 14.1689 106 42.502s43.333 63.833 48 106.5c0.666992 3.33301 1.16699 7 1.5 11s0.5 8 0.5 12v11v11
v11.5c0 3.66699 -0.333008 7.16699 -1 10.5c-2.66699 42 -14.167 80.833 -34.5 116.5s-54.5 55.5 -102.5 59.5h-18c-53.333 0 -92.833 -19.333 -118.5 -58s-38.5 -83 -38.5 -133v-1.5c0 -0.333008 0.333008 -0.833008 1 -1.5v-1.5v-0.5v-2v-1
c-0.666992 -0.666992 -1 -1.33398 -1 -2.00098v-2c0 -48.667 12.5 -92.334 37.5 -131.001s64.833 -58 119.5 -58v0z" />
    <glyph glyph-name="K" unicode="&#x431;" horiz-adv-x="524" 
d="M230 541c-32.667 -6.66699 -58.0039 -21.001 -76.0039 -43.001s-30.333 -49.667 -37 -83c15.333 17.333 36.333 31.333 63 42s56.334 16 89.001 16h9h10c2.66699 0 5.66699 -0.166992 9 -0.5s6.33301 -0.5 9 -0.5c59.333 -8 102 -35 128 -81s39.667 -95.667 41 -149v-4.5
v-5.5c0 -68.667 -17.333 -126 -52 -172s-88.667 -69 -162 -69c-74 0 -127.833 23 -161.5 69s-50.5 103.333 -50.5 172c0 143.333 16.167 235.333 48.5 276s67.833 66.334 106.5 77.001c32.667 8 59.334 14.833 80.001 20.5s37.334 11.167 50.001 16.5
c8 3.33301 14.5 6.5 19.5 9.5s9.16699 6.5 12.5 10.5h60c-6.66699 -26.667 -26.667 -47.5 -60 -62.5s-78.666 -27.833 -135.999 -38.5v0zM260.996 35.999c43.333 0 78.667 14.1689 106 42.502s43.333 63.833 48 106.5c0.666992 3.33301 1.16699 7 1.5 11s0.5 8 0.5 12v11v11
v11.5c0 3.66699 -0.333008 7.16699 -1 10.5c-2.66699 42 -14.167 80.833 -34.5 116.5s-54.5 55.5 -102.5 59.5h-18c-53.333 0 -92.833 -19.333 -118.5 -58s-38.5 -83 -38.5 -133v-1.5c0 -0.333008 0.333008 -0.833008 1 -1.5v-1.5v-0.5v-2v-1
c-0.666992 -0.666992 -1 -1.33398 -1 -2.00098v-2c0 -48.667 12.5 -92.334 37.5 -131.001s64.833 -58 119.5 -58v0z" />
    <glyph glyph-name="quotedbl" unicode="&#xe2;" horiz-adv-x="444" 
d="M387 182c2 -4.66699 3.83105 -9.66602 5.49805 -14.999s2.83398 -11 3.50098 -17c1.33301 -4 2.16602 -8 2.49902 -12s0.5 -8 0.5 -12c0 -2.66699 -0.166992 -5.66699 -0.5 -9s-0.5 -6.33301 -0.5 -9l-2 -10c-0.666992 -3.33301 -1.33398 -6.33301 -2.00098 -9
c-10.667 -38 -30.834 -62.167 -60.501 -72.5s-61.5 -15.833 -95.5 -16.5h-8.5h-9.5h-168v464h159h11.5c3.66699 0 7.5 -0.333008 11.5 -1c32.667 -2 63.334 -10.333 92.001 -25s45.334 -41.334 50.001 -80.001v-8c0 -22.667 -6.5 -43.5 -19.5 -62.5
s-30.167 -33.167 -51.5 -42.5c18.667 -4.66699 34.834 -12 48.501 -22s24.834 -23.667 33.501 -41v0zM106.998 220.001v-172.999h118c31.333 0 59 4.5 83 13.5s36 32.167 36 69.5c0 35.333 -11.5 59.166 -34.5 71.499s-49.833 18.5 -80.5 18.5h-122v0zM106.998 420.002v-157
h94h4h4c28.667 0 55 4.16699 79 12.5s36 30.5 36 66.5c0 30 -10.333 50.5 -31 61.5s-49.667 16.5 -87 16.5h-99v0z" />
    <glyph glyph-name="quotedbl" unicode="&#x432;" horiz-adv-x="444" 
d="M387 182c2 -4.66699 3.83105 -9.66602 5.49805 -14.999s2.83398 -11 3.50098 -17c1.33301 -4 2.16602 -8 2.49902 -12s0.5 -8 0.5 -12c0 -2.66699 -0.166992 -5.66699 -0.5 -9s-0.5 -6.33301 -0.5 -9l-2 -10c-0.666992 -3.33301 -1.33398 -6.33301 -2.00098 -9
c-10.667 -38 -30.834 -62.167 -60.501 -72.5s-61.5 -15.833 -95.5 -16.5h-8.5h-9.5h-168v464h159h11.5c3.66699 0 7.5 -0.333008 11.5 -1c32.667 -2 63.334 -10.333 92.001 -25s45.334 -41.334 50.001 -80.001v-8c0 -22.667 -6.5 -43.5 -19.5 -62.5
s-30.167 -33.167 -51.5 -42.5c18.667 -4.66699 34.834 -12 48.501 -22s24.834 -23.667 33.501 -41v0zM106.998 220.001v-172.999h118c31.333 0 59 4.5 83 13.5s36 32.167 36 69.5c0 35.333 -11.5 59.166 -34.5 71.499s-49.833 18.5 -80.5 18.5h-122v0zM106.998 420.002v-157
h94h4h4c28.667 0 55 4.16699 79 12.5s36 30.5 36 66.5c0 30 -10.333 50.5 -31 61.5s-49.667 16.5 -87 16.5h-99v0z" />
    <glyph glyph-name="atilde" unicode="&#xe3;" horiz-adv-x="344" 
d="M314 420h-202v-420h-55v464h257v-44v0z" />
    <glyph glyph-name="atilde" unicode="&#x433;" horiz-adv-x="344" 
d="M314 420h-202v-420h-55v464h257v-44v0z" />
    <glyph glyph-name="adieresis" unicode="&#xe4;" horiz-adv-x="494" 
d="M23 -105v154.001h30c4 8.66699 7.33301 17 10 25s5 16 7 24c2 7.33301 3.66699 15 5 23s2.33301 16.333 3 25c2.66699 20.667 4.66699 44.167 6 70.5s2.33301 53.166 3 80.499c0 18 0.166992 35.5 0.5 52.5s0.5 33.5 0.5 49.5v65h327v-415h40v-154h-55v105h-324v-105h-53
v0zM131 149.001c-2.66699 -22 -5.83203 -40.833 -9.49902 -56.5s-7.83398 -30.167 -12.501 -43.5h251v371h-221v-87c0 -27.333 -0.666992 -54.333 -2 -81c-0.666992 -16.667 -1.5 -33.5 -2.5 -50.5s-2.16699 -34.5 -3.5 -52.5v0z" />
    <glyph glyph-name="adieresis" unicode="&#x434;" horiz-adv-x="494" 
d="M23 -105v154.001h30c4 8.66699 7.33301 17 10 25s5 16 7 24c2 7.33301 3.66699 15 5 23s2.33301 16.333 3 25c2.66699 20.667 4.66699 44.167 6 70.5s2.33301 53.166 3 80.499c0 18 0.166992 35.5 0.5 52.5s0.5 33.5 0.5 49.5v65h327v-415h40v-154h-55v105h-324v-105h-53
v0zM131 149.001c-2.66699 -22 -5.83203 -40.833 -9.49902 -56.5s-7.83398 -30.167 -12.501 -43.5h251v371h-221v-87c0 -27.333 -0.666992 -54.333 -2 -81c-0.666992 -16.667 -1.5 -33.5 -2.5 -50.5s-2.16699 -34.5 -3.5 -52.5v0z" />
    <glyph glyph-name="yright" unicode="&#xe5;" horiz-adv-x="494" 
d="M99 222c0 -61.333 14.667 -107.666 44 -138.999s61.666 -48.333 96.999 -51h4h4h3.5h3.5c28.667 2 55.667 12.667 81 32s41.333 46 48 80h54c-6.66699 -48.667 -27.5 -86.167 -62.5 -112.5s-76.5 -39.833 -124.5 -40.5l-10 -1c-72 0.666992 -123.167 26 -153.5 76
s-45.5 107 -45.5 171c0 1.33301 0.166992 3 0.5 5s0.5 4 0.5 6s0.166992 4 0.5 6s0.5 3.66699 0.5 5c0 4.66699 0.333008 9.5 1 14.5l2 15.5c4.66699 33.333 15.334 65.333 32.001 96s41 53.667 73 69c14 7.33301 28.833 12.666 44.5 15.999s31.834 5 48.501 5
c4.66699 0 9.5 -0.166992 14.5 -0.5s9.83301 -0.833008 14.5 -1.5c11.333 -1.33301 22.5 -3.5 33.5 -6.5s20.833 -6.83301 29.5 -11.5c37.333 -18.667 63.666 -45.667 78.999 -81s24.333 -72.333 27 -111c0 -5.33301 0.166992 -10.5 0.5 -15.5s0.5 -10.167 0.5 -15.5v-10
h-345v0zM99 264l290 -0.000976562c-3.33301 43.333 -14.833 81.333 -34.5 114s-54.5 49.334 -104.5 50.001h-7c-47.333 0 -82.833 -16.5 -106.5 -49.5s-36.167 -69.167 -37.5 -108.5v-3.5v-2.5v0z" />
    <glyph glyph-name="yright" unicode="&#x435;" horiz-adv-x="494" 
d="M99 222c0 -61.333 14.667 -107.666 44 -138.999s61.666 -48.333 96.999 -51h4h4h3.5h3.5c28.667 2 55.667 12.667 81 32s41.333 46 48 80h54c-6.66699 -48.667 -27.5 -86.167 -62.5 -112.5s-76.5 -39.833 -124.5 -40.5l-10 -1c-72 0.666992 -123.167 26 -153.5 76
s-45.5 107 -45.5 171c0 1.33301 0.166992 3 0.5 5s0.5 4 0.5 6s0.166992 4 0.5 6s0.5 3.66699 0.5 5c0 4.66699 0.333008 9.5 1 14.5l2 15.5c4.66699 33.333 15.334 65.333 32.001 96s41 53.667 73 69c14 7.33301 28.833 12.666 44.5 15.999s31.834 5 48.501 5
c4.66699 0 9.5 -0.166992 14.5 -0.5s9.83301 -0.833008 14.5 -1.5c11.333 -1.33301 22.5 -3.5 33.5 -6.5s20.833 -6.83301 29.5 -11.5c37.333 -18.667 63.666 -45.667 78.999 -81s24.333 -72.333 27 -111c0 -5.33301 0.166992 -10.5 0.5 -15.5s0.5 -10.167 0.5 -15.5v-10
h-345v0zM99 264l290 -0.000976562c-3.33301 43.333 -14.833 81.333 -34.5 114s-54.5 49.334 -104.5 50.001h-7c-47.333 0 -82.833 -16.5 -106.5 -49.5s-36.167 -69.167 -37.5 -108.5v-3.5v-2.5v0z" />
    <glyph glyph-name="guilsinglright" unicode="&#xe6;" horiz-adv-x="695" 
d="M373 464v-192l196 192h70l-175 -169l196 -295h-62l-172 259l-53 -52v-207h-54v207l-53 52l-174 -259h-61l198 295l-176 169h69l197 -192v192h54v0z" />
    <glyph glyph-name="guilsinglright" unicode="&#x436;" horiz-adv-x="695" 
d="M373 464v-192l196 192h70l-175 -169l196 -295h-62l-172 259l-53 -52v-207h-54v207l-53 52l-174 -259h-61l198 295l-176 169h69l197 -192v192h54v0z" />
    <glyph glyph-name="florin" unicode="&#xe7;" horiz-adv-x="465" 
d="M245 -13c-52 0.666992 -95.835 15.1689 -131.502 43.502s-56.167 71.5 -61.5 129.5h53c3.33301 -34 17 -63.833 41 -89.5s56.333 -38.5 97 -38.5l3 -1c27.333 0 52.5 9 75.5 27s35.833 41.333 38.5 70v13c0 30 -11.333 50.667 -34 62s-48 17 -76 17h-31v43h3
c39.333 0 69.833 6.5 91.5 19.5s32.834 32.833 33.501 59.5v5c0 23.333 -9.16699 42.666 -27.5 57.999s-45.833 23 -82.5 23h-5c-2.66699 0 -5.33398 -0.166992 -8.00098 -0.5s-5.33398 -0.5 -8.00098 -0.5c-26 -3.33301 -50 -14.666 -72 -33.999s-33.667 -45 -35 -77h-52
c2.66699 51.333 21.834 89.833 57.501 115.5s75.834 38.5 120.501 38.5c7.33301 0 14.666 -0.333008 21.999 -1s14.666 -1.66699 21.999 -3c9.33301 -1.33301 18.666 -3.33301 27.999 -6s18.333 -5.66699 27 -9c20 -8 35 -19.833 45 -35.5s16 -31.834 18 -48.501v-5.5v-4.5
v-5.5v-4.5c-2 -20.667 -9.33301 -40.334 -22 -59.001s-29 -33 -49 -43c18.667 -4.66699 34.834 -12 48.501 -22s24.834 -23.667 33.501 -41c0.666992 -2 1.33398 -3.83301 2.00098 -5.5s1.33398 -3.16699 2.00098 -4.5c2 -7.33301 3.5 -14.333 4.5 -21s1.5 -12.667 1.5 -18
c0 -33.333 -13.667 -62.833 -41 -88.5s-57.333 -42.5 -90 -50.5c-7.33301 -2 -14.5 -3.5 -21.5 -4.5s-13.833 -1.5 -20.5 -1.5v-1z" />
    <glyph glyph-name="florin" unicode="&#x437;" horiz-adv-x="465" 
d="M245 -13c-52 0.666992 -95.835 15.1689 -131.502 43.502s-56.167 71.5 -61.5 129.5h53c3.33301 -34 17 -63.833 41 -89.5s56.333 -38.5 97 -38.5l3 -1c27.333 0 52.5 9 75.5 27s35.833 41.333 38.5 70v13c0 30 -11.333 50.667 -34 62s-48 17 -76 17h-31v43h3
c39.333 0 69.833 6.5 91.5 19.5s32.834 32.833 33.501 59.5v5c0 23.333 -9.16699 42.666 -27.5 57.999s-45.833 23 -82.5 23h-5c-2.66699 0 -5.33398 -0.166992 -8.00098 -0.5s-5.33398 -0.5 -8.00098 -0.5c-26 -3.33301 -50 -14.666 -72 -33.999s-33.667 -45 -35 -77h-52
c2.66699 51.333 21.834 89.833 57.501 115.5s75.834 38.5 120.501 38.5c7.33301 0 14.666 -0.333008 21.999 -1s14.666 -1.66699 21.999 -3c9.33301 -1.33301 18.666 -3.33301 27.999 -6s18.333 -5.66699 27 -9c20 -8 35 -19.833 45 -35.5s16 -31.834 18 -48.501v-5.5v-4.5
v-5.5v-4.5c-2 -20.667 -9.33301 -40.334 -22 -59.001s-29 -33 -49 -43c18.667 -4.66699 34.834 -12 48.501 -22s24.834 -23.667 33.501 -41c0.666992 -2 1.33398 -3.83301 2.00098 -5.5s1.33398 -3.16699 2.00098 -4.5c2 -7.33301 3.5 -14.333 4.5 -21s1.5 -12.667 1.5 -18
c0 -33.333 -13.667 -62.833 -41 -88.5s-57.333 -42.5 -90 -50.5c-7.33301 -2 -14.5 -3.5 -21.5 -4.5s-13.833 -1.5 -20.5 -1.5v-1z" />
    <glyph glyph-name="comma" unicode="&#xe8;" horiz-adv-x="465" 
d="M350 464h65v-464h-54v389l-243 -389h-66v464h55v-394l243 394v0z" />
    <glyph glyph-name="comma" unicode="&#x438;" horiz-adv-x="465" 
d="M350 464h65v-464h-54v389l-243 -389h-66v464h55v-394l243 394v0z" />
    <glyph glyph-name="L" unicode="&#xe9;" horiz-adv-x="465" 
d="M350 464h65v-464h-54v389l-243 -389h-66v464h55v-394l243 394v0zM290 545l42.001 -0.000976562c0 -24 -9.33301 -42.833 -28 -56.5s-39.334 -21.5 -62.001 -23.5h-4.5h-5.5h-1.5h-1.5c-24 0.666992 -46 7.83398 -66 21.501s-30 33.167 -30 58.5h39
c0 -12.667 6 -22.334 18 -29.001s25.333 -10 40 -10h2.5h2.5c14 0.666992 26.667 4.33398 38 11.001s17 16 17 28v0z" />
    <glyph glyph-name="L" unicode="&#x439;" horiz-adv-x="465" 
d="M350 464h65v-464h-54v389l-243 -389h-66v464h55v-394l243 394v0zM290 545l42.001 -0.000976562c0 -24 -9.33301 -42.833 -28 -56.5s-39.334 -21.5 -62.001 -23.5h-4.5h-5.5h-1.5h-1.5c-24 0.666992 -46 7.83398 -66 21.501s-30 33.167 -30 58.5h39
c0 -12.667 6 -22.334 18 -29.001s25.333 -10 40 -10h2.5h2.5c14 0.666992 26.667 4.33398 38 11.001s17 16 17 28v0z" />
    <glyph glyph-name="asterisk" unicode="&#xea;" horiz-adv-x="465" 
d="M57 0v464h53v-226l232 226h68l-175 -169l198 -295h-62l-173 259l-88 -84v-175h-53v0z" />
    <glyph glyph-name="asterisk" unicode="&#x43a;" horiz-adv-x="465" 
d="M57 0v464h53v-226l232 226h68l-175 -169l198 -295h-62l-173 259l-88 -84v-175h-53v0z" />
    <glyph glyph-name="edieresis" unicode="&#xeb;" horiz-adv-x="475" 
d="M139 138c-4.66699 -48.667 -17.333 -84.001 -38 -106.001s-45.667 -33 -75 -33v53c18.667 0.666992 32.5 6.66699 41.5 18s15.833 36 20.5 74c2 20 3.5 44.333 4.5 73s1.5 58.334 1.5 89.001v15.5v15.5v127h331v-464h-55v420h-223v-76c0 -36 -0.5 -71 -1.5 -105
s-3.16699 -67.667 -6.5 -101v0z" />
    <glyph glyph-name="edieresis" unicode="&#x43b;" horiz-adv-x="475" 
d="M139 138c-4.66699 -48.667 -17.333 -84.001 -38 -106.001s-45.667 -33 -75 -33v53c18.667 0.666992 32.5 6.66699 41.5 18s15.833 36 20.5 74c2 20 3.5 44.333 4.5 73s1.5 58.334 1.5 89.001v15.5v15.5v127h331v-464h-55v420h-223v-76c0 -36 -0.5 -71 -1.5 -105
s-3.16699 -67.667 -6.5 -101v0z" />
    <glyph glyph-name="igrave" unicode="&#xec;" horiz-adv-x="554" 
d="M276 88l155 376h68v-464h-53v355l-145 -355h-50l-144 355v-355h-55v464h70l154 -376v0z" />
    <glyph glyph-name="igrave" unicode="&#x43c;" horiz-adv-x="554" 
d="M276 88l155 376h68v-464h-53v355l-145 -355h-50l-144 355v-355h-55v464h70l154 -376v0z" />
    <glyph glyph-name="ellipsis" unicode="&#xed;" horiz-adv-x="454" 
d="M404 464v-464h-54v220h-254v-220h-55v464h55v-200h254v200h54v0z" />
    <glyph glyph-name="ellipsis" unicode="&#x43d;" horiz-adv-x="454" 
d="M404 464v-464h-54v220h-254v-220h-55v464h55v-200h254v200h54v0z" />
    <glyph glyph-name="percent" unicode="&#xee;" horiz-adv-x="514" 
d="M39 232c0 73.333 17.835 132.167 53.502 176.5s87.5 66.5 155.5 66.5c5.33301 0 10.666 -0.166992 15.999 -0.5s10.666 -0.833008 15.999 -1.5c2.66699 0 5.5 -0.166992 8.5 -0.5s5.83301 -0.5 8.5 -0.5c58.667 -8 101 -35 127 -81s39.667 -95.667 41 -149v-4.5v-5.5
c0 -68.667 -17.167 -126 -51.5 -172s-88.5 -69 -162.5 -69c-73.333 0 -127 23 -161 69s-51 103.333 -51 172v0zM269.002 428.001l-18 0.00390625c-53.333 0 -92.5 -19.333 -117.5 -58s-37.5 -83 -37.5 -133v-5c0 -0.666992 -0.166992 -1.33398 -0.5 -2.00098l-0.5 -1
c0 -0.666992 -0.166992 -1.33398 -0.5 -2.00098s-0.5 -1.33398 -0.5 -2.00098c0 -48.667 12.5 -92.334 37.5 -131.001s64.833 -58 119.5 -58c44 0 79.5 14.167 106.5 42.5s42.833 63.833 47.5 106.5c0.666992 3.33301 1.16699 7 1.5 11s0.5 8 0.5 12v11v11v11.5
c0 3.66699 -0.333008 7.16699 -1 10.5c-2.66699 42 -14.167 80.833 -34.5 116.5s-54.5 55.5 -102.5 59.5v0z" />
    <glyph glyph-name="percent" unicode="&#x43e;" horiz-adv-x="514" 
d="M39 232c0 73.333 17.835 132.167 53.502 176.5s87.5 66.5 155.5 66.5c5.33301 0 10.666 -0.166992 15.999 -0.5s10.666 -0.833008 15.999 -1.5c2.66699 0 5.5 -0.166992 8.5 -0.5s5.83301 -0.5 8.5 -0.5c58.667 -8 101 -35 127 -81s39.667 -95.667 41 -149v-4.5v-5.5
c0 -68.667 -17.167 -126 -51.5 -172s-88.5 -69 -162.5 -69c-73.333 0 -127 23 -161 69s-51 103.333 -51 172v0zM269.002 428.001l-18 0.00390625c-53.333 0 -92.5 -19.333 -117.5 -58s-37.5 -83 -37.5 -133v-5c0 -0.666992 -0.166992 -1.33398 -0.5 -2.00098l-0.5 -1
c0 -0.666992 -0.166992 -1.33398 -0.5 -2.00098s-0.5 -1.33398 -0.5 -2.00098c0 -48.667 12.5 -92.334 37.5 -131.001s64.833 -58 119.5 -58c44 0 79.5 14.167 106.5 42.5s42.833 63.833 47.5 106.5c0.666992 3.33301 1.16699 7 1.5 11s0.5 8 0.5 12v11v11v11.5
c0 3.66699 -0.333008 7.16699 -1 10.5c-2.66699 42 -14.167 80.833 -34.5 116.5s-54.5 55.5 -102.5 59.5v0z" />
    <glyph glyph-name="C" unicode="&#xef;" horiz-adv-x="465" 
d="M361 420h-254v-420h-55v464h363v-464h-54v420v0z" />
    <glyph glyph-name="C" unicode="&#x43f;" horiz-adv-x="465" 
d="M361 420h-254v-420h-55v464h363v-464h-54v420v0z" />
    <glyph glyph-name="exclam" unicode="&#xf0;" horiz-adv-x="514" 
d="M53 -185v649.001h56v-83c18.667 31.333 40.667 54.833 66 70.5s57.333 23.5 96 23.5c70.667 0 122.334 -24.333 155.001 -73s49 -105.334 49 -170.001c0 -66 -16.5 -122.667 -49.5 -170s-85.833 -71.333 -158.5 -72c-36.667 0.666992 -67.834 8.5 -93.501 23.5
s-47.167 37.5 -64.5 67.5v-266h-56v0zM297 425.001c-2 0 -4.16602 0.168945 -6.49902 0.501953s-4.5 0.5 -6.5 0.5c-4.66699 0.666992 -9.16699 1.16699 -13.5 1.5s-8.5 0.5 -12.5 0.5c-52 0 -90.5 -19.5 -115.5 -58.5s-37.5 -84.833 -37.5 -137.5
c1.33301 -50.667 13.833 -96 37.5 -136s63.834 -60 120.501 -60c49.333 0 87.166 16.667 113.499 50s40.166 73.333 41.499 120v23c0 5.33301 -0.166992 10.666 -0.5 15.999s-0.5 10.333 -0.5 15c-3.33301 38 -13.833 73.167 -31.5 105.5s-47.167 52.166 -88.5 59.499v0z
" />
    <glyph glyph-name="exclam" unicode="&#x440;" horiz-adv-x="514" 
d="M53 -185v649.001h56v-83c18.667 31.333 40.667 54.833 66 70.5s57.333 23.5 96 23.5c70.667 0 122.334 -24.333 155.001 -73s49 -105.334 49 -170.001c0 -66 -16.5 -122.667 -49.5 -170s-85.833 -71.333 -158.5 -72c-36.667 0.666992 -67.834 8.5 -93.501 23.5
s-47.167 37.5 -64.5 67.5v-266h-56v0zM297 425.001c-2 0 -4.16602 0.168945 -6.49902 0.501953s-4.5 0.5 -6.5 0.5c-4.66699 0.666992 -9.16699 1.16699 -13.5 1.5s-8.5 0.5 -12.5 0.5c-52 0 -90.5 -19.5 -115.5 -58.5s-37.5 -84.833 -37.5 -137.5
c1.33301 -50.667 13.833 -96 37.5 -136s63.834 -60 120.501 -60c49.333 0 87.166 16.667 113.499 50s40.166 73.333 41.499 120v23c0 5.33301 -0.166992 10.666 -0.5 15.999s-0.5 10.333 -0.5 15c-3.33301 38 -13.833 73.167 -31.5 105.5s-47.167 52.166 -88.5 59.499v0z
" />
    <glyph glyph-name="quotedblleft" unicode="&#xf1;" horiz-adv-x="485" 
d="M386 160l53.0029 -0.00195312c-4.66699 -54.667 -25.834 -96.5 -63.501 -125.5s-78.5 -43.833 -122.5 -44.5h-1.5h-1.5h-7.5c-2.33301 0 -4.83301 0.333008 -7.5 1c-45.333 2.66699 -87.333 21.167 -126 55.5s-60 85.166 -64 152.499v9v8
c-0.666992 2.66699 -1 5.33398 -1 8.00098v8c0 78 19.333 136.667 58 176s81 61.333 127 66c3.33301 0 6.83301 0.166992 10.5 0.5s7.16699 0.5 10.5 0.5c44.667 0 85.667 -13.667 123 -41s57.333 -66.666 60 -117.999h-52c-5.33301 36 -20.333 63.5 -45 82.5
s-51 28.833 -79 29.5h-2h-2c-3.33301 0 -6.5 -0.166992 -9.5 -0.5s-6.16699 -0.5 -9.5 -0.5c-32.667 -4.66699 -62.667 -21.334 -90 -50.001s-42 -70 -44 -124v-5.5v-5.5c-0.666992 -2 -1 -4 -1 -6v-6v-11.5c0 -3.66699 0.333008 -7.5 1 -11.5
c3.33301 -42 16.166 -80.667 38.499 -116s57.166 -53.666 104.499 -54.999h1.5h0.5c0.666992 0 1.16699 -0.166992 1.5 -0.5s0.833008 -0.5 1.5 -0.5s1.33398 -0.166992 2.00098 -0.5l1 -0.5c37.333 0 67.666 12.333 90.999 37s38 54.334 44 89.001v0z" />
    <glyph glyph-name="quotedblleft" unicode="&#x441;" horiz-adv-x="485" 
d="M386 160l53.0029 -0.00195312c-4.66699 -54.667 -25.834 -96.5 -63.501 -125.5s-78.5 -43.833 -122.5 -44.5h-1.5h-1.5h-7.5c-2.33301 0 -4.83301 0.333008 -7.5 1c-45.333 2.66699 -87.333 21.167 -126 55.5s-60 85.166 -64 152.499v9v8
c-0.666992 2.66699 -1 5.33398 -1 8.00098v8c0 78 19.333 136.667 58 176s81 61.333 127 66c3.33301 0 6.83301 0.166992 10.5 0.5s7.16699 0.5 10.5 0.5c44.667 0 85.667 -13.667 123 -41s57.333 -66.666 60 -117.999h-52c-5.33301 36 -20.333 63.5 -45 82.5
s-51 28.833 -79 29.5h-2h-2c-3.33301 0 -6.5 -0.166992 -9.5 -0.5s-6.16699 -0.5 -9.5 -0.5c-32.667 -4.66699 -62.667 -21.334 -90 -50.001s-42 -70 -44 -124v-5.5v-5.5c-0.666992 -2 -1 -4 -1 -6v-6v-11.5c0 -3.66699 0.333008 -7.5 1 -11.5
c3.33301 -42 16.166 -80.667 38.499 -116s57.166 -53.666 104.499 -54.999h1.5h0.5c0.666992 0 1.16699 -0.166992 1.5 -0.5s0.833008 -0.5 1.5 -0.5s1.33398 -0.166992 2.00098 -0.5l1 -0.5c37.333 0 67.666 12.333 90.999 37s38 54.334 44 89.001v0z" />
    <glyph glyph-name="two" unicode="&#xf2;" horiz-adv-x="434" 
d="M402 464v-44h-154v-420h-55v420h-154v44h363v0z" />
    <glyph glyph-name="two" unicode="&#x442;" horiz-adv-x="434" 
d="M402 464v-44h-154v-420h-55v420h-154v44h363v0z" />
    <glyph glyph-name="three" unicode="&#xf3;" horiz-adv-x="454" 
d="M227 -89c-11.333 -32 -27.168 -56.333 -47.501 -73s-45.166 -25 -74.499 -25c-3.33301 0 -7.33301 0.166992 -12 0.5s-9.33398 0.833008 -14.001 1.5h-2.5h-3.5c-1.33301 0 -2.66602 0.166992 -3.99902 0.5s-2.66602 0.5 -3.99902 0.5v49
c2 0.666992 4.16699 0.833984 6.5 0.500977s4.83301 -0.833008 7.5 -1.5h2h2c2.66699 -0.666992 5.5 -1.16699 8.5 -1.5s5.83301 -0.5 8.5 -0.5s5.66699 0.166992 9 0.5s6.66602 0.833008 9.99902 1.5c5.33301 0.666992 10.333 2 15 4s9 4.66699 13 8
c8 6.66699 15.167 16.167 21.5 28.5s11.833 25.5 16.5 39.5c4 10 7.5 19.667 10.5 29s5.83301 17.666 8.5 24.999l-180 466h57l149 -396l148 396h55l-206 -553v0z" />
    <glyph glyph-name="three" unicode="&#x443;" horiz-adv-x="454" 
d="M227 -89c-11.333 -32 -27.168 -56.333 -47.501 -73s-45.166 -25 -74.499 -25c-3.33301 0 -7.33301 0.166992 -12 0.5s-9.33398 0.833008 -14.001 1.5h-2.5h-3.5c-1.33301 0 -2.66602 0.166992 -3.99902 0.5s-2.66602 0.5 -3.99902 0.5v49
c2 0.666992 4.16699 0.833984 6.5 0.500977s4.83301 -0.833008 7.5 -1.5h2h2c2.66699 -0.666992 5.5 -1.16699 8.5 -1.5s5.83301 -0.5 8.5 -0.5s5.66699 0.166992 9 0.5s6.66602 0.833008 9.99902 1.5c5.33301 0.666992 10.333 2 15 4s9 4.66699 13 8
c8 6.66699 15.167 16.167 21.5 28.5s11.833 25.5 16.5 39.5c4 10 7.5 19.667 10.5 29s5.83301 17.666 8.5 24.999l-180 466h57l149 -396l148 396h55l-206 -553v0z" />
    <glyph glyph-name="hyphen" unicode="&#xf4;" horiz-adv-x="755" 
d="M355 395l0.000976562 246.999h55v-247c14.667 28 33.667 48.333 57 61s50.666 19 81.999 19c61.333 0 105.833 -24.5 133.5 -73.5s41.5 -105.5 41.5 -169.5c0 -66 -13.667 -122.667 -41 -170s-72 -71.333 -134 -72c-31.333 0.666992 -58.5 6.5 -81.5 17.5
s-42.167 30.167 -57.5 57.5v-250h-55v248c-15.333 -27.333 -34.5 -46.166 -57.5 -56.499s-50.167 -15.833 -81.5 -16.5c-62 0.666992 -106.667 24.667 -134 72s-41 104 -41 170c0 64 14 120.5 42 169.5s72.333 73.5 133 73.5c31.333 0 58.5 -6.33301 81.5 -19
s42.167 -33 57.5 -61v0zM224.001 35.999c46 0 78.667 20.001 98 60.001s29.333 85.333 30 136c0 51.333 -10 96.833 -30 136.5s-52.667 59.5 -98 59.5h-15c-40 -4 -68.5 -24.833 -85.5 -62.5s-26.167 -78.834 -27.5 -123.501v-6v-6c0 -50 9.66699 -94.833 29 -134.5
s52.333 -59.5 99 -59.5v0zM541.001 36c46.667 0 79.667 19.832 99 59.499s29 84.5 29 134.5v6v6c-1.33301 44.667 -10.5 85.834 -27.5 123.501s-46.167 58.5 -87.5 62.5h-16c-44.667 0 -76.667 -19.833 -96 -59.5s-29 -85.167 -29 -136.5c0 -50.667 9.83301 -96 29.5 -136
s52.5 -60 98.5 -60v0z" />
    <glyph glyph-name="hyphen" unicode="&#x444;" horiz-adv-x="755" 
d="M355 395l0.000976562 246.999h55v-247c14.667 28 33.667 48.333 57 61s50.666 19 81.999 19c61.333 0 105.833 -24.5 133.5 -73.5s41.5 -105.5 41.5 -169.5c0 -66 -13.667 -122.667 -41 -170s-72 -71.333 -134 -72c-31.333 0.666992 -58.5 6.5 -81.5 17.5
s-42.167 30.167 -57.5 57.5v-250h-55v248c-15.333 -27.333 -34.5 -46.166 -57.5 -56.499s-50.167 -15.833 -81.5 -16.5c-62 0.666992 -106.667 24.667 -134 72s-41 104 -41 170c0 64 14 120.5 42 169.5s72.333 73.5 133 73.5c31.333 0 58.5 -6.33301 81.5 -19
s42.167 -33 57.5 -61v0zM224.001 35.999c46 0 78.667 20.001 98 60.001s29.333 85.333 30 136c0 51.333 -10 96.833 -30 136.5s-52.667 59.5 -98 59.5h-15c-40 -4 -68.5 -24.833 -85.5 -62.5s-26.167 -78.834 -27.5 -123.501v-6v-6c0 -50 9.66699 -94.833 29 -134.5
s52.333 -59.5 99 -59.5v0zM541.001 36c46.667 0 79.667 19.832 99 59.499s29 84.5 29 134.5v6v6c-1.33301 44.667 -10.5 85.834 -27.5 123.501s-46.167 58.5 -87.5 62.5h-16c-44.667 0 -76.667 -19.833 -96 -59.5s-29 -85.167 -29 -136.5c0 -50.667 9.83301 -96 29.5 -136
s52.5 -60 98.5 -60v0z" />
    <glyph glyph-name="period" unicode="&#xf5;" horiz-adv-x="473" 
d="M39 0l162 238l-156 226h67l121 -185l120 185h65l-152 -226l168 -238h-66l-133 198l-133 -198h-63v0z" />
    <glyph glyph-name="period" unicode="&#x445;" horiz-adv-x="473" 
d="M39 0l162 238l-156 226h67l121 -185l120 185h65l-152 -226l168 -238h-66l-133 198l-133 -198h-63v0z" />
    <glyph glyph-name="odieresis" unicode="&#xf6;" horiz-adv-x="485" 
d="M107 50h254v414h54v-415h40v-154h-55v105h-348v464h55v-414v0z" />
    <glyph glyph-name="odieresis" unicode="&#x446;" horiz-adv-x="485" 
d="M107 50h254v414h54v-415h40v-154h-55v105h-348v464h55v-414v0z" />
    <glyph glyph-name="divide" unicode="&#xf7;" horiz-adv-x="444" 
d="M337 269v195h55v-464h-55v220c-28.667 -16 -55.667 -27.833 -81 -35.5s-49 -11.5 -71 -11.5c-16.667 0 -33.167 2.33301 -49.5 7s-31.833 11 -46.5 19c-16.667 9.33301 -28.667 22.833 -36 40.5s-11 38.834 -11 63.501v161h55v-177c0 -14 2.66699 -26.333 8 -37
s12.333 -17.667 21 -21c10 -4.66699 20.167 -8.33398 30.5 -11.001s20.833 -4 31.5 -4c20.667 0 43.167 4.66699 67.5 14s51.5 23 81.5 41v0z" />
    <glyph glyph-name="divide" unicode="&#x447;" horiz-adv-x="444" 
d="M337 269v195h55v-464h-55v220c-28.667 -16 -55.667 -27.833 -81 -35.5s-49 -11.5 -71 -11.5c-16.667 0 -33.167 2.33301 -49.5 7s-31.833 11 -46.5 19c-16.667 9.33301 -28.667 22.833 -36 40.5s-11 38.834 -11 63.501v161h55v-177c0 -14 2.66699 -26.333 8 -37
s12.333 -17.667 21 -21c10 -4.66699 20.167 -8.33398 30.5 -11.001s20.833 -4 31.5 -4c20.667 0 43.167 4.66699 67.5 14s51.5 23 81.5 41v0z" />
    <glyph glyph-name="oslash" unicode="&#xf8;" horiz-adv-x="736" 
d="M52 0v464h53v-414h235v414h54v-414h233v414h54v-464h-629v0z" />
    <glyph glyph-name="oslash" unicode="&#x448;" horiz-adv-x="736" 
d="M52 0v464h53v-414h235v414h54v-414h233v414h54v-464h-629v0z" />
    <glyph glyph-name="question" unicode="&#xf9;" horiz-adv-x="757" 
d="M668 0h-615v464h54v-414h235v414h53v-414h234v414h53v-415h41v-154h-55v105v0z" />
    <glyph glyph-name="question" unicode="&#x449;" horiz-adv-x="757" 
d="M668 0h-615v464h54v-414h235v414h53v-414h234v414h53v-415h41v-154h-55v105v0z" />
    <glyph glyph-name="A" unicode="&#xfa;" horiz-adv-x="566" 
d="M23 420l0.00195312 43.999h207v-201h94h12h11c33.333 -1.33301 65 -7.16602 95 -17.499s53 -31.5 69 -63.5c2 -4.66699 3.66699 -9.66699 5 -15s2.66602 -11 3.99902 -17c0.666992 -4 1.16699 -8 1.5 -12s0.5 -8 0.5 -12c0 -2.66699 -0.166992 -5.66699 -0.5 -9
s-0.5 -6.33301 -0.5 -9l-2 -10c-0.666992 -3.33301 -1.33398 -6.33301 -2.00098 -9c-10.667 -38.667 -31.167 -63 -61.5 -73s-62.5 -15.333 -96.5 -16h-7.5h-7.5h-169v420h-152v0zM230.002 219.999v-172.999h118c32 0 59.833 4.5 83.5 13.5s35.5 32.167 35.5 69.5
c0 35.333 -11.5 59.166 -34.5 71.499s-49.833 18.5 -80.5 18.5h-122v0z" />
    <glyph glyph-name="A" unicode="&#x44a;" horiz-adv-x="566" 
d="M23 420l0.00195312 43.999h207v-201h94h12h11c33.333 -1.33301 65 -7.16602 95 -17.499s53 -31.5 69 -63.5c2 -4.66699 3.66699 -9.66699 5 -15s2.66602 -11 3.99902 -17c0.666992 -4 1.16699 -8 1.5 -12s0.5 -8 0.5 -12c0 -2.66699 -0.166992 -5.66699 -0.5 -9
s-0.5 -6.33301 -0.5 -9l-2 -10c-0.666992 -3.33301 -1.33398 -6.33301 -2.00098 -9c-10.667 -38.667 -31.167 -63 -61.5 -73s-62.5 -15.333 -96.5 -16h-7.5h-7.5h-169v420h-152v0zM230.002 219.999v-172.999h118c32 0 59.833 4.5 83.5 13.5s35.5 32.167 35.5 69.5
c0 35.333 -11.5 59.166 -34.5 71.499s-49.833 18.5 -80.5 18.5h-122v0z" />
    <glyph glyph-name="slash" unicode="&#xfb;" horiz-adv-x="554" 
d="M381 182c2 -4.66699 3.66699 -9.66895 5 -15.002s2.66602 -11 3.99902 -17c0.666992 -4 1.16699 -8 1.5 -12s0.5 -8 0.5 -12v-9c0 -3.33301 -0.333008 -6.33301 -1 -9c-0.666992 -3.33301 -1.16699 -6.66602 -1.5 -9.99902s-1.16602 -6.33301 -2.49902 -9
c-10 -38 -29.833 -62.167 -59.5 -72.5s-61.5 -15.833 -95.5 -16.5h-9h-9h-169v464h55v-201h94h12h11c33.333 -1.33301 65 -7.16602 95 -17.499s53 -31.5 69 -63.5v0zM100 219.998v-172.999h119c31.333 0 58.833 4.5 82.5 13.5s35.5 32.167 35.5 69.5
c0 35.333 -11.333 59.166 -34 71.499s-49.667 18.5 -81 18.5h-122v0zM452 -0.000976562v464h54v-464h-54v0z" />
    <glyph glyph-name="slash" unicode="&#x44b;" horiz-adv-x="554" 
d="M381 182c2 -4.66699 3.66699 -9.66895 5 -15.002s2.66602 -11 3.99902 -17c0.666992 -4 1.16699 -8 1.5 -12s0.5 -8 0.5 -12v-9c0 -3.33301 -0.333008 -6.33301 -1 -9c-0.666992 -3.33301 -1.16699 -6.66602 -1.5 -9.99902s-1.16602 -6.33301 -2.49902 -9
c-10 -38 -29.833 -62.167 -59.5 -72.5s-61.5 -15.833 -95.5 -16.5h-9h-9h-169v464h55v-201h94h12h11c33.333 -1.33301 65 -7.16602 95 -17.499s53 -31.5 69 -63.5v0zM100 219.998v-172.999h119c31.333 0 58.833 4.5 82.5 13.5s35.5 32.167 35.5 69.5
c0 35.333 -11.333 59.166 -34 71.499s-49.667 18.5 -81 18.5h-122v0zM452 -0.000976562v464h54v-464h-54v0z" />
    <glyph glyph-name="udieresis" unicode="&#xfc;" horiz-adv-x="444" 
d="M387 182c2 -4.66699 3.83496 -9.66797 5.50195 -15.001s2.83398 -11 3.50098 -17c1.33301 -4 2.16602 -8 2.49902 -12s0.5 -8 0.5 -12c0 -2.66699 -0.166992 -5.66699 -0.5 -9s-0.5 -6.33301 -0.5 -9l-2 -10c-0.666992 -3.33301 -1.33398 -6.33301 -2.00098 -9
c-10.667 -38 -30.834 -62.167 -60.501 -72.5s-61.5 -15.833 -95.5 -16.5h-8.5h-9.5h-168v464h55v-201h94h11.5h11.5c32.667 -1.33301 64 -7.16602 94 -17.499s53 -31.5 69 -63.5v0zM107.002 46.999l118 0.000976562c31.333 0 59 4.5 83 13.5s36 32.167 36 69.5
c0 35.333 -11.5 59.166 -34.5 71.499s-49.833 18.5 -80.5 18.5h-122v-173v0z" />
    <glyph glyph-name="udieresis" unicode="&#x44c;" horiz-adv-x="444" 
d="M387 182c2 -4.66699 3.83496 -9.66797 5.50195 -15.001s2.83398 -11 3.50098 -17c1.33301 -4 2.16602 -8 2.49902 -12s0.5 -8 0.5 -12c0 -2.66699 -0.166992 -5.66699 -0.5 -9s-0.5 -6.33301 -0.5 -9l-2 -10c-0.666992 -3.33301 -1.33398 -6.33301 -2.00098 -9
c-10.667 -38 -30.834 -62.167 -60.501 -72.5s-61.5 -15.833 -95.5 -16.5h-8.5h-9.5h-168v464h55v-201h94h11.5h11.5c32.667 -1.33301 64 -7.16602 94 -17.499s53 -31.5 69 -63.5v0zM107.002 46.999l118 0.000976562c31.333 0 59 4.5 83 13.5s36 32.167 36 69.5
c0 35.333 -11.5 59.166 -34.5 71.499s-49.833 18.5 -80.5 18.5h-122v-173v0z" />
    <glyph glyph-name="period" unicode="&#xfd;" horiz-adv-x="485" 
d="M49 160l52.9971 0.00195312c5.33301 -34.667 19.333 -64.334 42 -89.001s52.334 -37 89.001 -37c0.666992 0 1.33398 0.166992 2.00098 0.5s1.66699 0.5 3 0.5v0h1c0.666992 0.666992 1.33398 1 2.00098 1h2c49.333 1.33301 85 20.166 107 56.499s34.333 75.833 37 118.5
v4.5v4.5h-215v44h214c-3.33301 50.667 -18.666 89.167 -45.999 115.5s-57.333 41.5 -90 45.5c-2.66699 0.666992 -5.5 1 -8.5 1h-8.5c-28.667 0 -55.5 -9.16699 -80.5 -27.5s-40.167 -45.833 -45.5 -82.5h-52c1.33301 40.667 14.166 74 38.499 100s53.833 43.333 88.5 52
c5.33301 1.33301 10.666 2.5 15.999 3.5s11 1.83301 17 2.5c3.33301 0.666992 7 1 11 1h11c4 0 7.83301 -0.166992 11.5 -0.5s7.5 -0.5 11.5 -0.5c45.333 -6 87 -28.5 125 -67.5s57 -97.167 57 -174.5v-33c-4 -66 -24.833 -116 -62.5 -150s-78.5 -53.333 -122.5 -58
c-3.33301 -0.666992 -6.66602 -1 -9.99902 -1h-10c-44.667 0 -86 14.5 -124 43.5s-59.333 71.167 -64 126.5v0z" />
    <glyph glyph-name="period" unicode="&#x44d;" horiz-adv-x="485" 
d="M49 160l52.9971 0.00195312c5.33301 -34.667 19.333 -64.334 42 -89.001s52.334 -37 89.001 -37c0.666992 0 1.33398 0.166992 2.00098 0.5s1.66699 0.5 3 0.5v0h1c0.666992 0.666992 1.33398 1 2.00098 1h2c49.333 1.33301 85 20.166 107 56.499s34.333 75.833 37 118.5
v4.5v4.5h-215v44h214c-3.33301 50.667 -18.666 89.167 -45.999 115.5s-57.333 41.5 -90 45.5c-2.66699 0.666992 -5.5 1 -8.5 1h-8.5c-28.667 0 -55.5 -9.16699 -80.5 -27.5s-40.167 -45.833 -45.5 -82.5h-52c1.33301 40.667 14.166 74 38.499 100s53.833 43.333 88.5 52
c5.33301 1.33301 10.666 2.5 15.999 3.5s11 1.83301 17 2.5c3.33301 0.666992 7 1 11 1h11c4 0 7.83301 -0.166992 11.5 -0.5s7.5 -0.5 11.5 -0.5c45.333 -6 87 -28.5 125 -67.5s57 -97.167 57 -174.5v-33c-4 -66 -24.833 -116 -62.5 -150s-78.5 -53.333 -122.5 -58
c-3.33301 -0.666992 -6.66602 -1 -9.99902 -1h-10c-44.667 0 -86 14.5 -124 43.5s-59.333 71.167 -64 126.5v0z" />
    <glyph glyph-name="thorn" unicode="&#xfe;" horiz-adv-x="605" 
d="M156 264c4.66699 64 23.667 115.167 57 153.5s79.666 57.5 138.999 57.5c4.66699 0 9.5 -0.166992 14.5 -0.5s10.167 -0.833008 15.5 -1.5c2 0 4.33301 -0.166992 7 -0.5s5.33398 -0.5 8.00098 -0.5c56 -8 96.167 -35 120.5 -81s37.166 -95.667 38.499 -149v-4.5v-5.5
c0 -68.667 -16.167 -126 -48.5 -172s-83.166 -69 -152.499 -69c-67.333 0 -117 21.667 -149 65s-48.667 98 -50 164h-44v-220h-55v464h55v-200h44v0zM499 185c0.666992 5.33301 1.16699 11 1.5 17s0.5 12 0.5 18v6v6v8.5v8.5c-2 42.667 -12.167 82.167 -30.5 118.5
s-50.833 56.5 -97.5 60.5h-16c-51.333 0 -88.5 -19.833 -111.5 -59.5s-34.5 -85.167 -34.5 -136.5c0 -50.667 11.167 -96 33.5 -136s59.833 -60 112.5 -60c40.667 0 73.5 14.167 98.5 42.5s39.5 63.833 43.5 106.5v0z" />
    <glyph glyph-name="thorn" unicode="&#x44e;" horiz-adv-x="605" 
d="M156 264c4.66699 64 23.667 115.167 57 153.5s79.666 57.5 138.999 57.5c4.66699 0 9.5 -0.166992 14.5 -0.5s10.167 -0.833008 15.5 -1.5c2 0 4.33301 -0.166992 7 -0.5s5.33398 -0.5 8.00098 -0.5c56 -8 96.167 -35 120.5 -81s37.166 -95.667 38.499 -149v-4.5v-5.5
c0 -68.667 -16.167 -126 -48.5 -172s-83.166 -69 -152.499 -69c-67.333 0 -117 21.667 -149 65s-48.667 98 -50 164h-44v-220h-55v464h55v-200h44v0zM499 185c0.666992 5.33301 1.16699 11 1.5 17s0.5 12 0.5 18v6v6v8.5v8.5c-2 42.667 -12.167 82.167 -30.5 118.5
s-50.833 56.5 -97.5 60.5h-16c-51.333 0 -88.5 -19.833 -111.5 -59.5s-34.5 -85.167 -34.5 -136.5c0 -50.667 11.167 -96 33.5 -136s59.833 -60 112.5 -60c40.667 0 73.5 14.167 98.5 42.5s39.5 63.833 43.5 106.5v0z" />
    <glyph glyph-name="space" unicode="&#xff;" horiz-adv-x="475" 
d="M102 0l-58.001 -0.00195312v6c5.33301 4.66699 9.16602 10 11.499 16s3.83301 12 4.5 18v4.5v4.5l6 69c0 1.33301 0.166992 2.66602 0.5 3.99902s0.5 2.33301 0.5 3c2 24 6.33301 44.333 13 61s24.334 29.667 53.001 39c-26 8.66699 -46.667 23.667 -62 45
s-23.333 44 -24 68v2v2c0 2.66699 0.166992 5.16699 0.5 7.5s0.5 4.83301 0.5 7.5c2.66699 17.333 9.33398 33.833 20.001 49.5s25.334 28.167 44.001 37.5c16 7.33301 33.167 12.333 51.5 15s36.833 4.33398 55.5 5.00098h22h22h162v-464h-54v204h-144
c-26.667 0 -49.334 -3 -68.001 -9s-30.667 -22 -36 -48c-1.33301 -8 -2.33301 -16.5 -3 -25.5l-2 -27.5v-6v-5c-1.33301 -15.333 -2.83301 -30.166 -4.5 -44.499s-5.5 -27.166 -11.5 -38.499v0zM124.999 396.998c-0.666992 0 -1.16602 -0.166016 -1.49902 -0.499023
l-1.5 -1.5c-3.33301 -3.33301 -6.5 -8.16602 -9.5 -14.499s-5.5 -13.166 -7.5 -20.499c-1.33301 -4.66699 -2.5 -9.33398 -3.5 -14.001s-1.5 -8.66699 -1.5 -12v-1.5v-0.5c0 -0.666992 0.166992 -1.16699 0.5 -1.5s0.5 -0.833008 0.5 -1.5s0.166992 -1.33398 0.5 -2.00098
l0.5 -1c9.33301 -30 24.166 -50.5 44.499 -61.5s50.5 -16.5 90.5 -16.5h134v172h-151h-5.5h-4.5c-15.333 -0.666992 -30.333 -2.33398 -45 -5.00098s-28 -8.66699 -40 -18v0z" />
    <glyph glyph-name="space" unicode="&#x44f;" horiz-adv-x="475" 
d="M102 0l-58.001 -0.00195312v6c5.33301 4.66699 9.16602 10 11.499 16s3.83301 12 4.5 18v4.5v4.5l6 69c0 1.33301 0.166992 2.66602 0.5 3.99902s0.5 2.33301 0.5 3c2 24 6.33301 44.333 13 61s24.334 29.667 53.001 39c-26 8.66699 -46.667 23.667 -62 45
s-23.333 44 -24 68v2v2c0 2.66699 0.166992 5.16699 0.5 7.5s0.5 4.83301 0.5 7.5c2.66699 17.333 9.33398 33.833 20.001 49.5s25.334 28.167 44.001 37.5c16 7.33301 33.167 12.333 51.5 15s36.833 4.33398 55.5 5.00098h22h22h162v-464h-54v204h-144
c-26.667 0 -49.334 -3 -68.001 -9s-30.667 -22 -36 -48c-1.33301 -8 -2.33301 -16.5 -3 -25.5l-2 -27.5v-6v-5c-1.33301 -15.333 -2.83301 -30.166 -4.5 -44.499s-5.5 -27.166 -11.5 -38.499v0zM124.999 396.998c-0.666992 0 -1.16602 -0.166016 -1.49902 -0.499023
l-1.5 -1.5c-3.33301 -3.33301 -6.5 -8.16602 -9.5 -14.499s-5.5 -13.166 -7.5 -20.499c-1.33301 -4.66699 -2.5 -9.33398 -3.5 -14.001s-1.5 -8.66699 -1.5 -12v-1.5v-0.5c0 -0.666992 0.166992 -1.16699 0.5 -1.5s0.5 -0.833008 0.5 -1.5s0.166992 -1.33398 0.5 -2.00098
l0.5 -1c9.33301 -30 24.166 -50.5 44.499 -61.5s50.5 -16.5 90.5 -16.5h134v172h-151h-5.5h-4.5c-15.333 -0.666992 -30.333 -2.33398 -45 -5.00098s-28 -8.66699 -40 -18v0z" />
    <glyph glyph-name="amacron" unicode="&#x101;" 
 />
    <glyph glyph-name="OE" unicode="&#x152;" 
 />
    <glyph glyph-name="glyph258" unicode="&#x153;" 
 />
    <glyph glyph-name="perthousand" unicode="&#x160;" 
 />
    <glyph glyph-name="seven" unicode="&#x161;" 
 />
    <glyph glyph-name="glyph259" unicode="&#x178;" 
 />
    <glyph glyph-name="less" unicode="&#x192;" 
 />
    <glyph glyph-name="glyph237" unicode="&#x2c6;" 
 />
    <glyph glyph-name="six" unicode="&#x2dc;" 
 />
    <glyph glyph-name="numbersign" unicode="&#x2013;" 
 />
    <glyph glyph-name="O" unicode="&#x2014;" 
 />
    <glyph glyph-name="four" unicode="&#x2018;" 
 />
    <glyph glyph-name="quoteright" unicode="&#x2019;" 
 />
    <glyph glyph-name="parenleft" unicode="&#x201a;" 
 />
    <glyph glyph-name="oe" unicode="&#x201c;" 
 />
    <glyph glyph-name="B" unicode="&#x201d;" 
 />
    <glyph glyph-name="greater" unicode="&#x201e;" 
 />
    <glyph glyph-name="glyph233" unicode="&#x2020;" 
 />
    <glyph glyph-name="glyph236" unicode="&#x2021;" 
 />
    <glyph glyph-name="glyph257" unicode="&#x2022;" 
 />
    <glyph glyph-name="glyph232" unicode="&#x2026;" 
 />
    <glyph glyph-name="v" unicode="&#x2030;" 
 />
    <glyph glyph-name="glyph243" unicode="&#x2039;" 
 />
    <glyph glyph-name="eight" unicode="&#x203a;" 
 />
    <glyph glyph-name="dollar" unicode="&#x2122;" 
 />
    <glyph glyph-name="periodcentered" unicode="&#x2219;" 
 />
    <glyph glyph-name="glyph1" horiz-adv-x="0" 
 />
    <glyph glyph-name="glyph2" horiz-adv-x="302" 
 />
    <glyph glyph-name="s" 
 />
    <glyph glyph-name="backslash" 
 />
    <glyph glyph-name="nine" 
 />
    <glyph glyph-name="colon" 
 />
    <glyph glyph-name="Y" 
 />
    <glyph glyph-name="X" 
 />
    <glyph glyph-name="asciicircum" 
 />
    <glyph glyph-name="semicolon" 
 />
    <glyph glyph-name="equal" 
 />
    <glyph glyph-name="exclam" 
 />
    <glyph glyph-name="five" 
 />
    <glyph glyph-name="Q" 
 />
    <glyph glyph-name="quotedblright" 
 />
    <glyph glyph-name="hyphen" 
 />
    <glyph glyph-name="space" 
 />
    <glyph glyph-name="E" 
 />
    <glyph glyph-name="M" 
 />
    <glyph glyph-name="plus" 
 />
    <glyph glyph-name="glyph229" 
 />
    <glyph glyph-name="glyph230" 
 />
    <glyph glyph-name="glyph231" 
 />
    <glyph glyph-name="glyph234" 
 />
    <glyph glyph-name="glyph235" 
 />
    <glyph glyph-name="glyph238" 
 />
    <glyph glyph-name="glyph239" 
 />
    <glyph glyph-name="glyph240" 
 />
    <glyph glyph-name="glyph241" 
 />
    <glyph glyph-name="glyph242" 
 />
    <glyph glyph-name="glyph244" 
 />
    <glyph glyph-name="glyph245" 
 />
    <glyph glyph-name="glyph246" 
 />
    <glyph glyph-name="glyph247" 
 />
    <glyph glyph-name="glyph248" 
 />
    <glyph glyph-name="glyph249" 
 />
    <glyph glyph-name="glyph250" 
 />
    <glyph glyph-name="glyph251" 
 />
    <glyph glyph-name="glyph252" 
 />
    <glyph glyph-name="glyph253" 
 />
    <glyph glyph-name="glyph254" 
 />
    <glyph glyph-name="glyph255" 
 />
    <glyph glyph-name="glyph256" 
 />
    <glyph glyph-name="glyph268" 
 />
    <glyph glyph-name="glyph269" 
 />
    <glyph glyph-name="glyph270" 
 />
    <glyph glyph-name="glyph271" 
 />
    <glyph glyph-name="glyph272" 
 />
    <glyph glyph-name="glyph273" 
 />
    <glyph glyph-name="glyph274" 
 />
    <glyph glyph-name="glyph275" 
 />
    <glyph glyph-name="glyph276" 
 />
    <glyph glyph-name="glyph277" 
 />
    <glyph glyph-name="glyph278" 
 />
    <glyph glyph-name="glyph279" 
 />
    <glyph glyph-name="glyph280" 
 />
    <glyph glyph-name="glyph281" 
 />
    <glyph glyph-name="glyph282" 
 />
    <glyph glyph-name="glyph283" 
 />
    <glyph glyph-name="glyph284" 
 />
    <glyph glyph-name="glyph285" 
 />
    <glyph glyph-name="glyph286" 
 />
    <glyph glyph-name="glyph287" 
 />
    <glyph glyph-name="glyph288" 
 />
    <glyph glyph-name="glyph289" 
 />
    <glyph glyph-name="glyph290" 
 />
    <glyph glyph-name="glyph291" 
 />
    <glyph glyph-name="glyph292" 
 />
    <glyph glyph-name="glyph293" 
 />
    <glyph glyph-name="glyph294" 
 />
    <glyph glyph-name="glyph295" 
 />
    <glyph glyph-name="glyph296" 
 />
    <glyph glyph-name="glyph297" 
 />
    <glyph glyph-name="glyph298" 
 />
    <glyph glyph-name="glyph299" 
 />
    <glyph glyph-name="glyph300" 
 />
    <glyph glyph-name="glyph301" 
 />
    <glyph glyph-name="glyph302" 
 />
    <glyph glyph-name="glyph303" 
 />
    <glyph glyph-name="glyph304" 
 />
    <glyph glyph-name="glyph305" 
 />
    <glyph glyph-name="glyph306" 
 />
    <glyph glyph-name="glyph307" 
 />
    <glyph glyph-name="glyph308" 
 />
    <glyph glyph-name="glyph309" 
 />
    <glyph glyph-name="glyph310" 
 />
    <glyph glyph-name="glyph311" 
 />
    <glyph glyph-name="glyph312" 
 />
    <glyph glyph-name="glyph313" 
 />
    <glyph glyph-name="glyph314" 
 />
    <glyph glyph-name="glyph315" 
 />
    <glyph glyph-name="glyph316" 
 />
    <glyph glyph-name="glyph317" 
 />
    <glyph glyph-name="glyph318" 
 />
    <glyph glyph-name="glyph319" 
 />
    <glyph glyph-name="glyph320" 
 />
    <glyph glyph-name="glyph321" 
 />
    <glyph glyph-name="glyph322" 
 />
    <glyph glyph-name="glyph323" 
 />
    <glyph glyph-name="glyph324" 
 />
    <glyph glyph-name="glyph325" 
 />
    <glyph glyph-name="glyph326" 
 />
    <glyph glyph-name="glyph327" 
 />
    <glyph glyph-name="glyph328" 
 />
    <glyph glyph-name="glyph329" 
 />
    <glyph glyph-name="glyph330" 
 />
    <glyph glyph-name="glyph331" 
 />
    <glyph glyph-name="glyph332" 
 />
    <glyph glyph-name="glyph333" 
 />
    <glyph glyph-name="glyph334" 
 />
    <glyph glyph-name="glyph335" 
 />
    <glyph glyph-name="glyph336" 
 />
    <glyph glyph-name="glyph337" 
 />
    <glyph glyph-name="glyph338" 
 />
    <glyph glyph-name="glyph339" 
 />
    <glyph glyph-name="glyph340" 
 />
    <glyph glyph-name="glyph341" 
 />
    <glyph glyph-name="glyph342" 
 />
    <glyph glyph-name="glyph343" 
 />
    <glyph glyph-name="glyph344" 
 />
    <glyph glyph-name="glyph345" 
 />
    <glyph glyph-name="glyph346" 
 />
    <glyph glyph-name="glyph347" 
 />
    <glyph glyph-name="glyph348" 
 />
    <glyph glyph-name="glyph349" 
 />
    <glyph glyph-name="glyph350" 
 />
    <glyph glyph-name="glyph351" 
 />
    <glyph glyph-name="glyph352" 
 />
    <glyph glyph-name="glyph353" 
 />
    <glyph glyph-name="glyph354" 
 />
    <glyph glyph-name="glyph355" 
 />
    <glyph glyph-name="glyph356" 
 />
    <glyph glyph-name="glyph357" 
 />
    <glyph glyph-name="glyph358" 
 />
    <glyph glyph-name="glyph359" 
 />
    <glyph glyph-name="glyph360" 
 />
    <glyph glyph-name="glyph361" 
 />
    <glyph glyph-name="glyph362" 
 />
    <glyph glyph-name="glyph363" 
 />
    <glyph glyph-name="glyph364" 
 />
    <glyph glyph-name="glyph365" 
 />
    <glyph glyph-name="glyph366" 
 />
    <glyph glyph-name="glyph367" 
 />
    <glyph glyph-name="glyph368" 
 />
    <glyph glyph-name="glyph369" 
 />
    <glyph glyph-name="glyph370" 
 />
    <glyph glyph-name="glyph371" 
 />
    <glyph glyph-name="glyph372" 
 />
    <glyph glyph-name="glyph373" 
 />
    <glyph glyph-name="glyph374" 
 />
    <glyph glyph-name="glyph375" 
 />
    <glyph glyph-name="glyph376" 
 />
    <glyph glyph-name="glyph377" 
 />
    <glyph glyph-name="glyph378" 
 />
    <glyph glyph-name="glyph379" 
 />
    <glyph glyph-name="glyph380" 
 />
    <glyph glyph-name="glyph381" 
 />
    <glyph glyph-name="glyph382" 
 />
    <glyph glyph-name="glyph383" 
 />
    <glyph glyph-name="glyph384" 
 />
    <glyph glyph-name="glyph385" 
 />
    <glyph glyph-name="glyph386" 
 />
    <glyph glyph-name="glyph387" 
 />
    <glyph glyph-name="glyph388" 
 />
    <glyph glyph-name="glyph389" 
 />
    <glyph glyph-name="glyph390" 
 />
    <glyph glyph-name="glyph391" 
 />
    <glyph glyph-name="glyph392" 
 />
    <glyph glyph-name="glyph393" 
 />
    <glyph glyph-name="glyph394" 
 />
    <glyph glyph-name="glyph395" 
 />
    <glyph glyph-name="glyph396" 
 />
    <glyph glyph-name="glyph397" 
 />
    <glyph glyph-name="glyph398" 
 />
    <glyph glyph-name="glyph399" 
 />
    <glyph glyph-name="glyph400" 
 />
    <glyph glyph-name="glyph401" 
 />
    <glyph glyph-name="glyph402" 
 />
    <glyph glyph-name="glyph403" 
 />
    <glyph glyph-name="glyph404" 
 />
    <glyph glyph-name="glyph405" 
 />
    <glyph glyph-name="glyph406" 
 />
    <glyph glyph-name="glyph407" 
 />
    <glyph glyph-name="glyph408" 
 />
    <glyph glyph-name="glyph409" 
 />
    <glyph glyph-name="glyph410" 
 />
    <glyph glyph-name="glyph411" 
 />
    <glyph glyph-name="glyph412" 
 />
    <glyph glyph-name="glyph413" 
 />
    <glyph glyph-name="glyph414" 
 />
    <glyph glyph-name="glyph415" 
 />
    <glyph glyph-name="glyph416" 
 />
    <glyph glyph-name="glyph417" 
 />
    <glyph glyph-name="glyph418" 
 />
    <glyph glyph-name="glyph419" 
 />
    <glyph glyph-name="glyph420" 
 />
    <glyph glyph-name="glyph421" 
 />
    <glyph glyph-name="glyph422" 
 />
    <glyph glyph-name="glyph423" 
 />
    <glyph glyph-name="glyph424" 
 />
    <glyph glyph-name="glyph425" 
 />
    <glyph glyph-name="glyph426" 
 />
    <glyph glyph-name="glyph427" 
 />
    <glyph glyph-name="glyph428" 
 />
    <glyph glyph-name="glyph429" 
 />
    <glyph glyph-name="glyph430" 
 />
    <glyph glyph-name="glyph431" 
 />
    <glyph glyph-name="glyph432" 
 />
    <glyph glyph-name="glyph433" 
 />
    <glyph glyph-name="glyph434" 
 />
    <glyph glyph-name="glyph435" 
 />
    <glyph glyph-name="glyph436" 
 />
    <glyph glyph-name="glyph437" 
 />
    <glyph glyph-name="glyph438" 
 />
    <glyph glyph-name="glyph439" 
 />
    <glyph glyph-name="glyph440" 
 />
    <glyph glyph-name="glyph441" 
 />
    <glyph glyph-name="glyph442" 
 />
    </font>
</defs>
</svg>
